<?xml version="1.0" encoding="UTF-8"?>
<svg id="uuid-f5ee59c1-9931-463d-8830-01953dac9670" data-name="Capa 1" xmlns="http://www.w3.org/2000/svg" viewBox="0 0 540 520">
  <defs>
    <style>
      .uuid-81eb2c60-fa1b-4a16-8b6e-ddf4b994a394 {
        fill: #f1f1f1;
      }

      .uuid-81eb2c60-fa1b-4a16-8b6e-ddf4b994a394, .uuid-37e03cf8-d18e-475e-a92a-4fce66c02bfc {
        stroke: #333;
        stroke-linecap: round;
        stroke-linejoin: round;
        stroke-width: .5px;
      }

      .uuid-37e03cf8-d18e-475e-a92a-4fce66c02bfc {
        fill: none;
      }

      .uuid-b4e63510-eb12-4d58-a7ef-09dedb782e32 {
        fill: #474747;
      }

      .uuid-b4e63510-eb12-4d58-a7ef-09dedb782e32, .uuid-a4df100a-77f3-415c-985e-79ede3c23b59, .uuid-83cbf9cb-22a5-434a-abb2-9b747a544528, .uuid-43977d84-5fbe-4c4e-a8a6-022bee86d57f, .uuid-c94f4e6b-2295-4144-b6ea-3ac0065ca26d, .uuid-21e5dd11-37e6-40ce-87ed-b25095f03c87, .uuid-ce11ca0b-83c5-453f-b604-cf811b2256e7, .uuid-232248b7-d2f8-4bca-9699-ed1633bebbf0, .uuid-ff74e771-057b-4549-bf9a-65aff7dfefe4 {
        stroke-width: 0px;
      }

      .uuid-a4df100a-77f3-415c-985e-79ede3c23b59 {
        fill: #7fb9f1;
      }

      .uuid-83cbf9cb-22a5-434a-abb2-9b747a544528 {
        fill: #7fb9f2;
      }

      .uuid-43977d84-5fbe-4c4e-a8a6-022bee86d57f {
        fill: #459bf1;
      }

      .uuid-c94f4e6b-2295-4144-b6ea-3ac0065ca26d {
        fill: #bad6f3;
      }

      .uuid-21e5dd11-37e6-40ce-87ed-b25095f03c87 {
        fill: #333;
      }

      .uuid-ce11ca0b-83c5-453f-b604-cf811b2256e7 {
        fill: #efcf48;
      }

      .uuid-232248b7-d2f8-4bca-9699-ed1633bebbf0 {
        fill: #eccc48;
      }

      .uuid-ff74e771-057b-4549-bf9a-65aff7dfefe4 {
        fill: #f4f4f4;
      }
    </style>
  </defs>
  <g>
    <g>
      <g>
        <path class="uuid-a4df100a-77f3-415c-985e-79ede3c23b59" d="m213.55,35.38c.16.13.23.35.16.55-.08.2-.26.34-.48.34H36.47c-.21,0-.4-.14-.47-.34s-.01-.42.15-.55l25.33-20.44c.09-.07.2-.11.31-.11h126.12c.11,0,.22.04.31.11l25.33,20.44Zm-175.67-.11h173.94l-24.09-19.44H61.97l-24.09,19.44Z"/>
        <polygon class="uuid-a4df100a-77f3-415c-985e-79ede3c23b59" points="211.82 35.27 37.88 35.27 61.97 15.83 187.73 15.83 211.82 35.27"/>
      </g>
      <g>
        <path class="uuid-a4df100a-77f3-415c-985e-79ede3c23b59" d="m503.85,35.38c.16.13.22.35.15.55s-.26.34-.47.34h-176.76c-.22,0-.4-.14-.48-.34-.07-.2,0-.42.16-.55l25.33-20.44c.09-.07.2-.11.31-.11h126.12c.11,0,.22.04.31.11l25.33,20.44Zm-175.67-.11h173.94l-24.09-19.44h-125.76l-24.09,19.44Z"/>
        <polygon class="uuid-a4df100a-77f3-415c-985e-79ede3c23b59" points="502.12 35.27 328.18 35.27 352.27 15.83 478.03 15.83 502.12 35.27"/>
      </g>
      <g>
        <path class="uuid-83cbf9cb-22a5-434a-abb2-9b747a544528" d="m173.41,70.97v357.6c0,.27-.23.5-.5.5s-.5-.23-.5-.5v-57.91H13.26v133.77c0,.27-.22.5-.5.5s-.5-.23-.5-.5V70.97c0-.28.22-.5.5-.5h160.15c.27,0,.5.22.5.5Zm-1,298.69v-112.22H13.26v112.22h23.11v-32.75c0-.28.22-.5.5-.5h23.83c.28,0,.5.22.5.5v32.75h5.04c-.48-10.28-.69-21.08,2.02-30.76.38-1.37.82-2.73,1.25-4.04.77-2.32,1.56-4.72,2-7.24v-7.88c0-.28.22-.5.5-.5h4.52c.28,0,.5.22.5.5v7.96c.45,2.44,1.23,4.84,2,7.16.43,1.31.87,2.67,1.26,4.04,2.7,9.68,2.5,20.48,2.01,30.76h6.59v-40.15s.01-.04.01-.06c0-.03.01-.06.02-.1.01-.03.03-.06.04-.09.01-.01.02-.03.03-.05l6.73-8.9c.1-.13.25-.2.4-.2h9.01c.15,0,.3.07.4.2l6.73,8.9s.02.04.03.05c.01.03.03.06.04.09.01.04.02.07.02.1,0,.02,0,.04,0,.06v40.15h6.7c-.65-19.32-.96-29.07,2.66-37.66.5-1.21,1.09-2.4,1.66-3.55.99-2,2.02-4.08,2.61-6.25v-6.91c0-.27.23-.5.5-.5h5.98c.27,0,.5.23.5.5v6.91c.59,2.17,1.62,4.25,2.61,6.25.57,1.16,1.16,2.34,1.67,3.55,3.61,8.59,3.3,18.34,2.65,37.66h4.6c-.65-22.11-.97-33.25,2.64-43.06.51-1.37,1.1-2.74,1.67-4.05,1-2.31,2.03-4.69,2.62-7.18v-7.93c0-.27.22-.5.5-.5h5.97c.28,0,.5.23.5.5v7.93c.6,2.49,1.63,4.87,2.63,7.18.56,1.31,1.15,2.68,1.66,4.05,3.61,9.81,3.3,20.95,2.64,43.06h7.08Zm0-113.22v-98.46H13.26v98.46h20.45c-.64-9.02-.92-18.51,2.67-27.03.51-1.21,1.1-2.4,1.67-3.55.99-2,2.02-4.08,2.61-6.25v-6.91c0-.28.22-.5.5-.5h5.97c.28,0,.5.22.5.5v6.91c.59,2.17,1.62,4.24,2.61,6.25.57,1.15,1.16,2.34,1.67,3.55,3.59,8.52,3.31,18.01,2.68,27.03h4.71v-23.33c0-.28.22-.5.5-.5h33.03c.28,0,.5.22.5.5v23.33h5.4v-47.17c0-.28.23-.5.5-.5h22.48c.27,0,.5.22.5.5v47.17h4.46v-39.51c0-.28.23-.5.5-.5h8.02v-4.12c0-.28.23-.5.5-.5h14.03c.28,0,.5.22.5.5v4.12h8.03c.27,0,.5.22.5.5v39.51h13.66Zm0-99.46v-85.51H13.26v85.51h6.59v-23.71c0-.27.23-.5.5-.5h33.03c.28,0,.5.23.5.5v23.71h10.85c-.59-19.36-.88-29.12,2.42-37.71.46-1.21,1-2.4,1.52-3.55.9-2.01,1.84-4.09,2.38-6.26v-6.92c0-.27.22-.5.5-.5h5.44c.28,0,.5.23.5.5v6.92c.54,2.17,1.48,4.25,2.39,6.26.51,1.15,1.05,2.34,1.51,3.55,3.3,8.59,3.01,18.35,2.42,37.71h8.87l-1.5-34.53c-.01-.12.04-.24.12-.34l8.94-10.74v-8.83c0-.27.23-.5.5-.5h9.37c.27,0,.5.23.5.5v8.83l8.95,10.74c.08.1.12.22.11.34l-1.5,34.53h8.5v-39.52c0-.27.23-.5.5-.5h31.08c.27,0,.5.23.5.5v39.52h13.66Zm-8.07,212.46c.65-21.85.94-32.89-2.59-42.49-.5-1.35-1.08-2.7-1.64-4-1.02-2.37-2.08-4.81-2.69-7.41-.01-.04-.02-.08-.02-.11v-7.49h-4.97v7.49s-.01.07-.01.11c-.62,2.6-1.67,5.04-2.69,7.41-.57,1.3-1.15,2.65-1.65,4-3.53,9.6-3.23,20.64-2.59,42.49h18.85Zm-6.59-113v-39.01h-30.08v39.01h30.08Zm0-99.46v-39.02h-20.86c.09.09.14.22.14.36v38.3c0,.14-.05.27-.15.36h20.87Zm-8.53,59.45v-3.62h-13.03v3.62h13.03Zm-10.31,153.01c.64-19.05.93-28.69-2.59-37.05-.49-1.18-1.07-2.36-1.64-3.49-1.02-2.07-2.08-4.21-2.69-6.5-.02-.04-.02-.09-.02-.13v-6.48h-4.98v6.48s0,.09-.02.13c-.61,2.29-1.67,4.43-2.69,6.5-.56,1.13-1.15,2.31-1.64,3.49-3.52,8.36-3.23,18-2.59,37.05h18.86Zm-11.24-212.46h8.52c-.1-.09-.16-.22-.16-.36v-38.3c0-.14.06-.27.15-.36h-8.51v39.02Zm-6.46,99.46v-46.67h-13.46c.08.09.14.21.14.34v46.27s-.01.04-.02.06h13.34Zm-2.55-133.84l-8.94-10.73c-.07-.09-.11-.2-.11-.32v-8.51h-8.37v8.51c0,.12-.04.23-.11.32l-8.94,10.73,1.48,34.09h23.51l1.48-34.09Zm-7.3,246.91v-39.5h-21.47v39.5h21.47Zm-.5-40.5l-5.98-7.9h-8.51l-5.98,7.9h20.47Zm-3.84-119.24h-7.29v46.67h7.17s-.01-.04-.01-.06v-46.27c0-.13.05-.25.13-.34Zm-14.69,46.67v-22.83h-5.75.01v22.82h-.01s5.75.01,5.75.01Zm-6.74,0h0v-22.82h0s-25.29-.01-25.29-.01v22.83h25.29Zm-2.77-99.75c.58-19.06.85-28.69-2.36-37.07-.45-1.18-.98-2.35-1.5-3.49-.93-2.07-1.89-4.21-2.45-6.49-.01-.04-.02-.08-.02-.12v-6.48h-4.44v6.48s-.01.08-.02.12c-.56,2.28-1.52,4.42-2.45,6.49-.52,1.14-1.05,2.31-1.5,3.49-3.21,8.38-2.94,18.01-2.36,37.07h17.1Zm-1.52,212.97c.48-10.21.69-20.93-1.98-30.49-.37-1.35-.82-2.7-1.24-4-.78-2.35-1.58-4.79-2.04-7.38v-7.55h-3.53v7.46c-.47,2.68-1.27,5.12-2.04,7.47-.43,1.3-.87,2.65-1.25,4-2.67,9.56-2.46,20.28-1.98,30.49h14.06Zm-21.1-.22v-32.03h-22.83v32.03h22.83Zm-6.61-113.07c.63-8.9.9-18.26-2.6-26.57-.5-1.18-1.08-2.36-1.64-3.5-1.03-2.07-2.09-4.2-2.7-6.49-.01-.04-.02-.09-.02-.13v-6.48h-4.97v6.48s-.01.09-.02.13c-.61,2.29-1.67,4.43-2.7,6.5-.56,1.13-1.14,2.31-1.64,3.49-3.5,8.32-3.23,17.67-2.6,26.57h18.89Zm-.71-99.76v-22.84H20.85v22.84h32.03Z"/>
        <path class="uuid-c94f4e6b-2295-4144-b6ea-3ac0065ca26d" d="m161.75,326.95c3.53,9.6,3.24,20.64,2.59,42.49h-18.85c-.64-21.85-.94-32.89,2.59-42.49.5-1.35,1.08-2.7,1.65-4,1.02-2.37,2.07-4.81,2.69-7.41,0-.04.01-.08.01-.11v-7.49h4.97v7.49s.01.07.02.11c.61,2.6,1.67,5.04,2.69,7.41.56,1.3,1.14,2.65,1.64,4Z"/>
        <path class="uuid-c94f4e6b-2295-4144-b6ea-3ac0065ca26d" d="m157.75,117.96v39.02h-20.87c.1-.09.15-.22.15-.36v-38.3c0-.14-.05-.27-.14-.36h20.86Z"/>
        <rect class="uuid-83cbf9cb-22a5-434a-abb2-9b747a544528" x="136.19" y="212.81" width="13.03" height="3.62"/>
        <path class="uuid-c94f4e6b-2295-4144-b6ea-3ac0065ca26d" d="m136.32,332.39c3.52,8.36,3.23,18,2.59,37.05h-18.86c-.64-19.05-.93-28.69,2.59-37.05.49-1.18,1.08-2.36,1.64-3.49,1.02-2.07,2.08-4.21,2.69-6.5.02-.04.02-.09.02-.13v-6.48h4.98v6.48s0,.09.02.13c.61,2.29,1.67,4.43,2.69,6.5.57,1.13,1.15,2.31,1.64,3.49Z"/>
        <path class="uuid-83cbf9cb-22a5-434a-abb2-9b747a544528" d="m136.19,156.98h-8.52v-39.02h8.51c-.09.09-.15.22-.15.36v38.3c0,.14.06.27.16.36Z"/>
        <path class="uuid-83cbf9cb-22a5-434a-abb2-9b747a544528" d="m121.21,209.77v46.67h-13.34s.02-.04.02-.06v-46.27c0-.13-.06-.25-.14-.34h13.46Z"/>
        <path class="uuid-c94f4e6b-2295-4144-b6ea-3ac0065ca26d" d="m109.72,111.87l8.94,10.73-1.48,34.09h-23.51l-1.48-34.09,8.94-10.73c.07-.09.11-.2.11-.32v-8.51h8.37v8.51c0,.12.04.23.11.32Z"/>
        <polygon class="uuid-83cbf9cb-22a5-434a-abb2-9b747a544528" points="104.88 321.11 110.86 329.01 90.39 329.01 96.37 321.11 104.88 321.11"/>
        <path class="uuid-c94f4e6b-2295-4144-b6ea-3ac0065ca26d" d="m99.73,209.77h7.29c-.08.09-.13.21-.13.34v46.27s.01.04.01.06h-7.17v-46.67Z"/>
        <path class="uuid-c94f4e6b-2295-4144-b6ea-3ac0065ca26d" d="m79.32,339.17c2.67,9.56,2.46,20.28,1.98,30.49h-14.06c-.48-10.21-.69-20.93,1.98-30.49.38-1.35.82-2.7,1.25-4,.77-2.35,1.57-4.79,2.04-7.47v-7.46h3.53v7.55c.46,2.59,1.26,5.03,2.04,7.38.42,1.3.87,2.65,1.24,4Z"/>
        <path class="uuid-c94f4e6b-2295-4144-b6ea-3ac0065ca26d" d="m50.99,229.8c3.5,8.31,3.23,17.67,2.6,26.57h-18.89c-.63-8.9-.9-18.25,2.6-26.57.5-1.18,1.08-2.36,1.64-3.49,1.03-2.07,2.09-4.21,2.7-6.5.01-.04.02-.09.02-.13v-6.48h4.97v6.48s.01.09.02.13c.61,2.29,1.67,4.42,2.7,6.49.56,1.14,1.14,2.32,1.64,3.5Z"/>
        <rect class="uuid-c94f4e6b-2295-4144-b6ea-3ac0065ca26d" x="20.85" y="133.77" width="32.03" height="22.84"/>
      </g>
      <path class="uuid-a4df100a-77f3-415c-985e-79ede3c23b59" d="m105.12,336.55h-9.01c-.28,0-.5.22-.5.5s.22.5.5.5h9.01c.28,0,.5-.22.5-.5s-.22-.5-.5-.5Z"/>
      <path class="uuid-a4df100a-77f3-415c-985e-79ede3c23b59" d="m105.12,340.86h-9.01c-.28,0-.5.22-.5.5s.22.5.5.5h9.01c.28,0,.5-.22.5-.5s-.22-.5-.5-.5Z"/>
      <path class="uuid-a4df100a-77f3-415c-985e-79ede3c23b59" d="m56.16,340.86h-9.01c-.28,0-.5.22-.5.5s.22.5.5.5h9.01c.28,0,.5-.22.5-.5s-.22-.5-.5-.5Z"/>
      <path class="uuid-a4df100a-77f3-415c-985e-79ede3c23b59" d="m56.16,344.44h-9.01c-.28,0-.5.22-.5.5s.22.5.5.5h9.01c.28,0,.5-.22.5-.5s-.22-.5-.5-.5Z"/>
      <path class="uuid-a4df100a-77f3-415c-985e-79ede3c23b59" d="m50.36,364.43h-9.01c-.28,0-.5.22-.5.5s.22.5.5.5h9.01c.28,0,.5-.22.5-.5s-.22-.5-.5-.5Z"/>
      <path class="uuid-a4df100a-77f3-415c-985e-79ede3c23b59" d="m132.03,249.84h9.01c.28,0,.5-.22.5-.5s-.22-.5-.5-.5h-9.01c-.28,0-.5.22-.5.5s.22.5.5.5Z"/>
      <path class="uuid-a4df100a-77f3-415c-985e-79ede3c23b59" d="m132.03,245.52h9.01c.28,0,.5-.22.5-.5s-.22-.5-.5-.5h-9.01c-.28,0-.5.22-.5.5s.22.5.5.5Z"/>
      <path class="uuid-a4df100a-77f3-415c-985e-79ede3c23b59" d="m126.42,341.36c0,.28.22.5.5.5h5.1c.28,0,.5-.22.5-.5s-.22-.5-.5-.5h-5.1c-.28,0-.5.22-.5.5Z"/>
      <path class="uuid-a4df100a-77f3-415c-985e-79ede3c23b59" d="m144.59,136.09h9.01c.28,0,.5-.22.5-.5s-.22-.5-.5-.5h-9.01c-.28,0-.5.22-.5.5s.22.5.5.5Z"/>
      <path class="uuid-a4df100a-77f3-415c-985e-79ede3c23b59" d="m144.59,140.47h9.01c.28,0,.5-.22.5-.5s-.22-.5-.5-.5h-9.01c-.28,0-.5.22-.5.5s.22.5.5.5Z"/>
      <g>
        <path class="uuid-a4df100a-77f3-415c-985e-79ede3c23b59" d="m527.75,70.97v433.46c0,.27-.22.5-.5.5s-.5-.23-.5-.5v-132.09h-159.15v56.23c0,.27-.22.5-.5.5s-.5-.23-.5-.5V70.97c0-.28.23-.5.5-.5h160.15c.28,0,.5.22.5.5Zm-1,300.37v-115.85h-159.15v115.85h8.34c-.64-9.03-.91-18.51,2.67-27.04.51-1.2,1.1-2.4,1.67-3.55.99-2,2.02-4.08,2.61-6.24v-6.92c0-.27.22-.5.5-.5h5.97c.28,0,.5.23.5.5v6.92c.6,2.17,1.62,4.24,2.62,6.25.57,1.15,1.15,2.34,1.66,3.54,3.59,8.53,3.32,18.01,2.68,27.04h4.71v-23.34c0-.28.23-.5.5-.5h33.03c.28,0,.5.22.5.5v23.34h5.41v-47.18c0-.27.22-.5.5-.5h22.47c.28,0,.5.23.5.5v47.18h3.9c-.65-21.96-.94-33.06,2.65-42.84.51-1.38,1.1-2.74,1.67-4.06,1-2.3,2.03-4.68,2.62-7.17v-7.93c0-.27.22-.5.5-.5h5.97c.28,0,.5.23.5.5v7.93c.6,2.49,1.63,4.87,2.62,7.18.57,1.31,1.16,2.67,1.67,4.05,3.6,9.78,3.3,20.88,2.65,42.84h6.14v-40.08s.01-.04.01-.06c0-.03.01-.06.02-.09.01-.04.03-.07.05-.1.01-.01.01-.03.02-.05l6.73-8.9c.1-.13.25-.2.4-.2h9.01c.16,0,.3.07.4.2l6.73,8.9s.02.04.03.05c.01.03.03.06.04.1,0,.03.02.06.02.09,0,.02.01.04.01.06v40.08h7.95Zm0-116.85v-109.79h-159.15v109.79h8.9v-39.52c0-.27.22-.5.5-.5h8.02v-4.12c0-.27.23-.5.5-.5h14.03c.28,0,.5.23.5.5v4.12h8.02c.28,0,.5.23.5.5v39.52h10.51c-.6-19.36-.88-29.12,2.41-37.71.46-1.21,1-2.4,1.52-3.55.91-2.01,1.84-4.09,2.38-6.26v-6.92c0-.27.23-.5.5-.5h5.45c.28,0,.5.23.5.5v6.92c.54,2.17,1.47,4.25,2.38,6.26.52,1.15,1.06,2.34,1.52,3.55,3.3,8.59,3.01,18.35,2.41,37.71h8.87l-1.5-34.53c0-.12.04-.24.12-.34l8.95-10.74v-8.83c0-.27.22-.5.5-.5h9.36c.28,0,.5.23.5.5v8.83l8.95,10.74c.08.1.12.22.12.34l-1.5,34.53h8.5v-39.52c0-.27.22-.5.5-.5h31.07c.28,0,.5.23.5.5v39.52h13.66Zm0-110.79v-72.23h-159.15v72.23h11.93v-28.07c0-.11.03-.22.1-.31l6.57-8.29v-4.68c0-.28.23-.5.5-.5h21.29c.28,0,.5.22.5.5v4.68l6.57,8.29s.03.05.04.07l.03.06c.02.06.04.12.04.18v28.07h8.77v-28.07c0-.09.02-.17.06-.25l4.66-8.3v-4.73c0-.28.22-.5.5-.5h15.05c.28,0,.5.22.5.5v4.73l4.66,8.3c.04.08.06.16.06.25v28.07h10.26l-1.49-34.23c0-.13.04-.25.12-.34l8.94-10.74v-8.33h-2.07c-.28,0-.5-.23-.5-.5v-4.43c0-.28.22-.5.5-.5h14.51c.28,0,.5.22.5.5v4.43c0,.27-.22.5-.5.5h-2.07v8.33l8.95,10.74c.08.09.12.21.11.34l-1.49,34.23h7.8c-.64-19.17-.94-28.87,2.67-37.43.5-1.21,1.09-2.4,1.66-3.55,1-2.01,2.02-4.08,2.61-6.25v-6.91c0-.28.23-.5.5-.5h5.98c.28,0,.5.22.5.5v6.91c.59,2.17,1.62,4.24,2.61,6.25.57,1.15,1.16,2.34,1.67,3.55,3.6,8.56,3.31,18.26,2.66,37.43h12.89Zm-8.95,227.56v-39.5h-21.47v39.5h21.47Zm-.5-40.5l-5.98-7.9h-8.51l-5.98,7.9h20.47Zm-4.44-187.06c.64-19.05.93-28.68-2.59-37.05-.49-1.17-1.07-2.35-1.64-3.49-1.02-2.07-2.08-4.21-2.69-6.49,0-.05-.02-.09-.02-.13v-6.48h-4.98v6.48s0,.08,0,.13c-.62,2.28-1.68,4.42-2.7,6.49-.56,1.14-1.15,2.32-1.64,3.49-3.52,8.37-3.23,18-2.58,37.05h18.85Zm-.77,110.79v-39.02h-20.86c.09.09.15.22.15.36v38.3c0,.14-.06.27-.15.36h20.86Zm-21.56-39.02h-8.51v39.02h8.51c-.09-.09-.15-.22-.15-.36v-38.3c0-.14.06-.27.15-.36Zm-2.34,155.87c.65-21.86.94-32.89-2.59-42.49-.5-1.36-1.08-2.7-1.64-4.01-1.02-2.36-2.08-4.8-2.69-7.4-.01-.04-.02-.08-.02-.12v-7.48h-4.97v7.48s0,.08-.02.12c-.61,2.6-1.66,5.04-2.68,7.4-.57,1.3-1.15,2.65-1.65,4.01-3.53,9.6-3.23,20.63-2.59,42.49h18.85Zm-2.51-261.72l-8.94-10.73c-.07-.09-.11-.2-.11-.32v-8.51h-8.37v8.51c0,.12-.04.23-.11.32l-8.94,10.73,1.48,34.08h23.51l1.48-34.08Zm-6.48-20.56v-3.43h-13.51v3.43h13.51Zm-6.19,131.05l-8.94-10.73c-.08-.09-.12-.2-.12-.32v-8.51h-8.36v8.51c0,.12-.04.23-.12.32l-8.94,10.73,1.48,34.09h23.52l1.48-34.09Zm-9.57,151.23v-46.68h-13.46c.08.09.14.21.14.35v46.26s-.01.04-.02.07h13.34Zm-14.18-46.68h-7.29v46.68h7.16s-.01-.05-.01-.07v-46.26c0-.14.05-.26.14-.35Zm-.83-180.96v-27.94l-4.59-8.18c-.09.07-.2.13-.33.13h-13.65c-.13,0-.25-.06-.33-.13l-4.59,8.18v27.94h23.49Zm-4.72-36.95v-3.9h-14.05v3.9c.06-.03.13-.04.2-.04h13.65c.07,0,.14.01.2.04Zm-6.55,147.45c.59-19.06.86-28.69-2.35-37.06-.46-1.19-.99-2.36-1.5-3.5-.93-2.07-1.9-4.21-2.46-6.49-.01-.04-.01-.08-.01-.12v-6.48h-4.45v6.48s0,.08-.01.12c-.56,2.28-1.53,4.42-2.46,6.49-.51,1.14-1.04,2.32-1.49,3.5-3.21,8.37-2.95,18-2.36,37.06h17.09Zm-2.6,117.14v-22.84h-5.75s.01.01.01.02v22.8s-.01,0-.01.02h5.75Zm-6.74,0v-22.84h-25.29v22.84h25.29Zm-13.65-227.64v-27.57h-9.31v27.57h9.31Zm-.54-28.57l-5.88-7.42h-10.61l7.42,7.42h9.07Zm-6.06,139.36v-39.02h-30.07v39.02h30.07Zm-.08-147.78v-3.86h-11.11c.03.06.05.13.05.21v3.65h11.06Zm-3.63,36.99v-27.86l-8.13-8.13h-8.78l-6.42,8.09v27.9h23.33Zm-4.81,70.77v-3.62h-13.03v3.62h13.03Zm-3.23,156.79c.63-8.9.9-18.25-2.6-26.57-.5-1.18-1.08-2.35-1.64-3.49-1.02-2.07-2.08-4.21-2.7-6.5-.01-.04-.02-.08-.02-.13v-6.48h-4.97v6.48s-.01.09-.02.13c-.61,2.29-1.67,4.43-2.69,6.5-.57,1.13-1.15,2.31-1.65,3.49-3.5,8.32-3.23,17.67-2.6,26.57h18.89Zm-.34-268.41h-8.28v3.86h8.23v-3.65c0-.08.02-.15.05-.21Z"/>
        <rect class="uuid-c94f4e6b-2295-4144-b6ea-3ac0065ca26d" x="496.33" y="331.76" width="21.47" height="39.5"/>
        <polygon class="uuid-83cbf9cb-22a5-434a-abb2-9b747a544528" points="511.32 322.86 517.3 330.76 496.83 330.76 502.81 322.86 511.32 322.86"/>
        <path class="uuid-c94f4e6b-2295-4144-b6ea-3ac0065ca26d" d="m510.27,106.65c3.52,8.37,3.23,18,2.59,37.05h-18.85c-.65-19.05-.94-28.68,2.58-37.05.49-1.17,1.08-2.35,1.64-3.49,1.02-2.07,2.08-4.21,2.7-6.49,0-.05,0-.09,0-.13v-6.48h4.98v6.48s.01.08.02.13c.61,2.28,1.67,4.42,2.69,6.49.57,1.14,1.15,2.32,1.64,3.49Z"/>
        <path class="uuid-c94f4e6b-2295-4144-b6ea-3ac0065ca26d" d="m512.09,215.47v39.02h-20.86c.09-.09.15-.22.15-.36v-38.3c0-.14-.06-.27-.15-.36h20.86Z"/>
        <polygon class="uuid-83cbf9cb-22a5-434a-abb2-9b747a544528" points="479.2 85.63 479.2 89.06 477.13 89.06 467.76 89.06 465.69 89.06 465.69 85.63 479.2 85.63"/>
        <path class="uuid-c94f4e6b-2295-4144-b6ea-3ac0065ca26d" d="m464.07,209.38l8.94,10.73-1.48,34.09h-23.52l-1.48-34.09,8.94-10.73c.08-.09.12-.2.12-.32v-8.51h8.36v8.51c0,.12.04.23.12.32Z"/>
        <path class="uuid-83cbf9cb-22a5-434a-abb2-9b747a544528" d="m463.44,324.66v46.68h-13.34s.02-.05.02-.07v-46.26c0-.14-.06-.26-.14-.35h13.46Z"/>
        <path class="uuid-c94f4e6b-2295-4144-b6ea-3ac0065ca26d" d="m441.97,324.66h7.29c-.09.09-.14.21-.14.35v46.26s.01.04.01.07h-7.16v-46.68Z"/>
        <path class="uuid-c94f4e6b-2295-4144-b6ea-3ac0065ca26d" d="m448.43,115.76v27.94h-23.49v-27.94l4.59-8.18c.08.07.2.13.33.13h13.65c.13,0,.24-.06.33-.13l4.59,8.18Z"/>
        <path class="uuid-83cbf9cb-22a5-434a-abb2-9b747a544528" d="m443.71,102.85v3.9c-.06-.03-.13-.04-.2-.04h-13.65c-.07,0-.14.01-.2.04v-3.9h14.05Z"/>
        <path class="uuid-83cbf9cb-22a5-434a-abb2-9b747a544528" d="m434.56,348.5v22.84h-5.75s.01-.01.01-.02v-22.8s-.01-.01-.01-.02h5.75Z"/>
        <path class="uuid-c94f4e6b-2295-4144-b6ea-3ac0065ca26d" d="m427.82,371.32v.02h-25.29v-22.84h25.29v22.82Z"/>
        <rect class="uuid-83cbf9cb-22a5-434a-abb2-9b747a544528" x="404.86" y="116.13" width="9.31" height="27.57"/>
        <rect class="uuid-c94f4e6b-2295-4144-b6ea-3ac0065ca26d" x="377.5" y="215.47" width="30.07" height="39.02"/>
        <path class="uuid-83cbf9cb-22a5-434a-abb2-9b747a544528" d="m407.49,102.85v3.86h-11.06v-3.65c0-.08-.02-.15-.05-.21h11.11Z"/>
        <polygon class="uuid-c94f4e6b-2295-4144-b6ea-3ac0065ca26d" points="403.86 115.84 403.86 143.7 380.53 143.7 380.53 115.8 386.95 107.71 395.73 107.71 403.86 115.84"/>
        <rect class="uuid-83cbf9cb-22a5-434a-abb2-9b747a544528" x="386.02" y="210.85" width="13.03" height="3.62"/>
        <path class="uuid-c94f4e6b-2295-4144-b6ea-3ac0065ca26d" d="m393.22,344.69c3.5,8.32,3.23,17.67,2.6,26.57h-18.89c-.63-8.9-.9-18.25,2.6-26.57.5-1.18,1.08-2.36,1.65-3.49,1.02-2.07,2.08-4.21,2.69-6.5.01-.04.02-.08.02-.13v-6.48h4.97v6.48s.01.09.02.13c.62,2.29,1.68,4.43,2.7,6.5.56,1.14,1.14,2.31,1.64,3.49Z"/>
      </g>
      <path class="uuid-a4df100a-77f3-415c-985e-79ede3c23b59" d="m511.56,338.3h-9.01c-.28,0-.5.22-.5.5s.22.5.5.5h9.01c.28,0,.5-.22.5-.5s-.22-.5-.5-.5Z"/>
      <path class="uuid-a4df100a-77f3-415c-985e-79ede3c23b59" d="m511.56,342.61h-9.01c-.28,0-.5.22-.5.5s.22.5.5.5h9.01c.28,0,.5-.22.5-.5s-.22-.5-.5-.5Z"/>
      <path class="uuid-a4df100a-77f3-415c-985e-79ede3c23b59" d="m381.86,243.57h9.01c.28,0,.5-.22.5-.5s-.22-.5-.5-.5h-9.01c-.28,0-.5.22-.5.5s.22.5.5.5Z"/>
      <path class="uuid-a4df100a-77f3-415c-985e-79ede3c23b59" d="m222.72,308.8h-5.1c-.28,0-.5.22-.5.5s.22.5.5.5h5.1c.28,0,.5-.22.5-.5s-.22-.5-.5-.5Z"/>
      <path class="uuid-a4df100a-77f3-415c-985e-79ede3c23b59" d="m498.93,233.6h9.01c.28,0,.5-.22.5-.5s-.22-.5-.5-.5h-9.01c-.28,0-.5.22-.5.5s.22.5.5.5Z"/>
      <path class="uuid-a4df100a-77f3-415c-985e-79ede3c23b59" d="m498.93,237.98h9.01c.28,0,.5-.22.5-.5s-.22-.5-.5-.5h-9.01c-.28,0-.5.22-.5.5s.22.5.5.5Z"/>
      <g>
        <path class="uuid-83cbf9cb-22a5-434a-abb2-9b747a544528" d="m350.58,102.54v326.03c0,.27-.23.5-.5.5s-.5-.23-.5-.5v-90.19h-159.15v90.19c0,.27-.22.5-.5.5s-.5-.23-.5-.5V102.54c0-.27.23-.5.5-.5h160.15c.27,0,.5.23.5.5Zm-1,234.84v-82.03h-159.15v82.03h19.32c-.65-19.18-.94-28.88,2.66-37.44.51-1.21,1.1-2.4,1.67-3.55.99-2,2.02-4.08,2.61-6.25v-6.91c0-.28.22-.5.5-.5h5.97c.28,0,.5.22.5.5v6.91c.59,2.17,1.62,4.24,2.61,6.25.57,1.15,1.16,2.34,1.67,3.55,3.6,8.56,3.31,18.26,2.66,37.44h17.12v-40s.01-.04.01-.06c.01-.03.01-.06.02-.1.02-.03.03-.06.05-.09.01-.02.01-.04.02-.05l6.74-8.91c.09-.12.24-.19.4-.19h9c.16,0,.31.07.4.19l6.73,8.91s.02.03.03.05c.02.03.03.06.04.09.02.04.02.07.02.1,0,.02.02.04.02.06v40h8.31v-57.61c0-.28.23-.5.5-.5h30.44c.28,0,.5.22.5.5v57.61h6.25v-32.53c0-.28.22-.5.5-.5h23.83c.28,0,.5.22.5.5v32.53h7.55Zm0-83.03v-70.99h-159.15v70.99h11.92v-28.08c0-.11.04-.22.11-.31l6.57-8.29v-4.68c0-.28.23-.5.5-.5h21.29c.27,0,.5.22.5.5v4.68l6.57,8.29s.02.05.04.07l.03.06c.02.06.04.12.04.18v28.08h8.76v-28.08c0-.09.03-.17.07-.25l4.66-8.3v-4.73c0-.28.22-.5.5-.5h15.05c.27,0,.5.22.5.5v4.73l4.66,8.3c.04.08.06.16.06.25v28.08h10.26l-1.49-34.24c0-.13.03-.25.11-.34l8.95-10.74v-8.33h-2.07c-.28,0-.5-.23-.5-.5v-4.43c0-.28.22-.5.5-.5h14.51c.28,0,.5.22.5.5v4.43c0,.27-.22.5-.5.5h-2.08v8.33l8.95,10.74c.08.09.12.21.12.34l-1.49,34.24h7.8c-.65-19.18-.94-28.88,2.66-37.44.51-1.21,1.1-2.4,1.67-3.55.99-2.01,2.02-4.08,2.61-6.25v-6.91c0-.28.22-.5.5-.5h5.98c.27,0,.5.22.5.5v6.91c.59,2.17,1.61,4.24,2.61,6.24.57,1.16,1.15,2.35,1.66,3.56,3.61,8.56,3.31,18.26,2.67,37.44h12.89Zm0-71.99v-79.32h-159.15v79.32h8.36l-1.48-23.43c-.01-.16.06-.31.18-.41l8.89-7.35v-5.48h-1.69c-.28,0-.5-.22-.5-.5v-3.41c0-.28.22-.5.5-.5h13.73c.28,0,.5.22.5.5v3.41c0,.28-.22.5-.5.5h-1.68v5.48l8.88,7.35c.12.1.19.25.18.41l-1.48,23.43h6v-44.89c0-.28.22-.5.5-.5h2.57v-3.72c0-.28.22-.5.5-.5h45.76c.28,0,.5.22.5.5v3.72h2.58c.27,0,.5.22.5.5v44.89h4.2v-57.61c0-.28.22-.5.5-.5h30.44c.28,0,.5.22.5.5v57.61h7.19c-.49-10.32-.72-21.19,2.01-30.93.38-1.37.82-2.73,1.26-4.04.76-2.32,1.55-4.72,1.99-7.24v-7.88c0-.28.22-.5.5-.5h4.53c.27,0,.5.22.5.5v7.97c.44,2.43,1.22,4.83,1.99,7.15.43,1.31.87,2.67,1.26,4.04,2.72,9.74,2.49,20.61,2,30.93h7.48Zm-8.47-.17c.48-10.21.69-20.93-1.98-30.49-.37-1.35-.82-2.7-1.24-4-.78-2.35-1.58-4.79-2.04-7.38v-7.55h-3.53v7.47c-.47,2.67-1.27,5.11-2.04,7.46-.43,1.3-.87,2.65-1.25,4-2.67,9.56-2.46,20.28-1.98,30.49h14.06Zm-.08,155.19v-32.03h-22.83v32.03h22.83Zm-5.35-83.03c.65-19.06.94-28.69-2.58-37.05-.49-1.19-1.08-2.36-1.64-3.5-1.02-2.07-2.08-4.21-2.7-6.49-.01-.05-.01-.09-.01-.13v-6.48h-4.98v6.48s-.01.08-.02.13c-.61,2.28-1.67,4.42-2.69,6.49-.57,1.14-1.15,2.32-1.65,3.5-3.51,8.36-3.22,17.99-2.58,37.05h18.85Zm-17.81-71.99v-57.11h-10.73c.1.09.17.22.17.37v56.37c0,.15-.07.28-.17.37h10.73Zm-7.92,155.02v-57.11h-10.73c.1.09.17.22.17.37v56.37c0,.15-.07.28-.17.37h10.73Zm-1.44-117.12l-8.94-10.73c-.07-.09-.12-.2-.12-.32v-8.51h-8.36v8.51c0,.12-.04.23-.11.32l-8.95,10.73,1.49,34.09h23.51l1.48-34.09Zm-2.03-95.01h-18.05v57.11h18.05c-.1-.09-.17-.22-.17-.37v-56.37c0-.15.07-.28.17-.37Zm-4.45,74.45v-3.43h-13.51v3.43h13.51Zm-3.47,80.57h-18.05v57.11h18.05c-.1-.09-.17-.22-.17-.37v-56.37c0-.15.07-.28.17-.37Zm-16.33-97.91v-44.39h-24.96v44.39h24.96Zm-3.08-45.39v-3.22h-44.76v3.22h44.76Zm-7.89,117.38v-27.95l-4.59-8.18c-.09.07-.2.13-.33.13h-13.66c-.13,0-.24-.06-.33-.13l-4.59,8.18v27.95h23.5Zm-1.06,83.03v-39.5h-21.48v39.5h21.48Zm-.51-40.5l-5.98-7.9h-8.5l-5.98,7.9h20.46Zm-3.15-79.49v-3.9h-14.05v3.9c.06-.03.12-.04.19-.04h13.66c.07,0,.14.01.2.04Zm-10.27-35.03v-44.39h-24.95v44.39h24.95Zm-19.27,71.99v-27.58h-9.32v27.58h9.32Zm-.54-28.58l-5.88-7.42h-10.61l7.42,7.42h9.07Zm-6.14-8.42v-3.86h-11.11c.03.06.05.13.05.21v3.65h11.06Zm-.72,120.03c.64-19.06.94-28.69-2.58-37.05-.5-1.18-1.08-2.36-1.64-3.5-1.03-2.07-2.09-4.2-2.7-6.49-.01-.04-.02-.09-.02-.13v-6.48h-4.97v6.48s0,.09-.02.13c-.61,2.29-1.67,4.43-2.7,6.49-.56,1.14-1.14,2.32-1.64,3.5-3.52,8.36-3.22,17.99-2.58,37.05h18.85Zm-2.92-83.03v-27.87l-8.13-8.13h-8.78l-6.42,8.09v27.91h23.33Zm-3.36-71.99l1.47-23.24-8.87-7.33c-.12-.1-.18-.24-.18-.39v-5.71h-8.36v5.71c0,.15-.07.29-.19.39l-8.86,7.33,1.46,23.24h23.53Zm-5.01,31.13h-8.28v3.86h8.23v-3.65c0-.08.02-.15.05-.21Zm-.39-68.8v-2.41h-12.73v2.41h12.73Z"/>
        <path class="uuid-c94f4e6b-2295-4144-b6ea-3ac0065ca26d" d="m339.13,151.7c2.67,9.56,2.46,20.28,1.98,30.49h-14.06c-.48-10.21-.69-20.93,1.98-30.49.38-1.35.82-2.7,1.25-4,.77-2.35,1.57-4.79,2.04-7.46v-7.47h3.53v7.55c.46,2.59,1.26,5.03,2.04,7.38.42,1.3.87,2.65,1.24,4Z"/>
        <rect class="uuid-c94f4e6b-2295-4144-b6ea-3ac0065ca26d" x="318.2" y="305.35" width="22.83" height="32.03"/>
        <path class="uuid-c94f4e6b-2295-4144-b6ea-3ac0065ca26d" d="m333.1,217.3c3.52,8.36,3.23,17.99,2.58,37.05h-18.85c-.64-19.06-.93-28.69,2.58-37.05.5-1.18,1.08-2.36,1.65-3.5,1.02-2.07,2.08-4.21,2.69-6.49.01-.05.02-.09.02-.13v-6.48h4.98v6.48s0,.08.01.13c.62,2.28,1.68,4.42,2.7,6.49.56,1.14,1.15,2.31,1.64,3.5Z"/>
        <path class="uuid-c94f4e6b-2295-4144-b6ea-3ac0065ca26d" d="m317.87,125.25v57.11h-10.73c.1-.09.17-.22.17-.37v-56.37c0-.15-.07-.28-.17-.37h10.73Z"/>
        <path class="uuid-c94f4e6b-2295-4144-b6ea-3ac0065ca26d" d="m309.95,280.27v57.11h-10.73c.1-.09.17-.22.17-.37v-56.37c0-.15-.07-.28-.17-.37h10.73Z"/>
        <path class="uuid-c94f4e6b-2295-4144-b6ea-3ac0065ca26d" d="m299.57,209.53l8.94,10.73-1.48,34.09h-23.51l-1.49-34.09,8.95-10.73c.07-.09.11-.2.11-.32v-8.51h8.36v8.51c0,.12.05.23.12.32Z"/>
        <polygon class="uuid-c94f4e6b-2295-4144-b6ea-3ac0065ca26d" points="302.03 196.27 302.03 199.7 299.95 199.7 290.59 199.7 288.52 199.7 288.52 196.27 302.03 196.27"/>
        <path class="uuid-c94f4e6b-2295-4144-b6ea-3ac0065ca26d" d="m280.51,280.27h18.05c-.1.09-.17.22-.17.37v56.37c0,.15.07.28.17.37h-18.05v-57.11Z"/>
        <rect class="uuid-83cbf9cb-22a5-434a-abb2-9b747a544528" x="234.39" y="133.75" width="44.76" height="3.22"/>
        <rect class="uuid-c94f4e6b-2295-4144-b6ea-3ac0065ca26d" x="231.32" y="137.97" width="24.95" height="44.39"/>
        <rect class="uuid-83cbf9cb-22a5-434a-abb2-9b747a544528" x="227.68" y="226.77" width="9.32" height="27.58"/>
        <path class="uuid-83cbf9cb-22a5-434a-abb2-9b747a544528" d="m230.32,213.49v3.86h-11.06v-3.65c0-.08-.02-.15-.05-.21h11.11Z"/>
        <path class="uuid-c94f4e6b-2295-4144-b6ea-3ac0065ca26d" d="m227.02,300.33c3.52,8.36,3.22,17.99,2.58,37.05h-18.85c-.64-19.06-.94-28.69,2.58-37.05.5-1.18,1.08-2.36,1.64-3.5,1.03-2.06,2.09-4.2,2.7-6.49.01-.04.02-.09.02-.13v-6.48h4.97v6.48s.01.09.02.13c.61,2.29,1.67,4.42,2.7,6.49.56,1.14,1.14,2.32,1.64,3.5Z"/>
        <polygon class="uuid-c94f4e6b-2295-4144-b6ea-3ac0065ca26d" points="226.68 226.48 226.68 254.35 203.35 254.35 203.35 226.44 209.77 218.35 218.55 218.35 226.68 226.48"/>
        <path class="uuid-c94f4e6b-2295-4144-b6ea-3ac0065ca26d" d="m224.79,159.12l-1.47,23.24h-23.53l-1.46-23.24,8.86-7.33c.12-.1.19-.24.19-.39v-5.71h8.36v5.71c0,.15.06.29.18.39l8.87,7.33Z"/>
        <polygon class="uuid-83cbf9cb-22a5-434a-abb2-9b747a544528" points="217.92 142.28 217.92 144.69 216.24 144.69 206.88 144.69 205.19 144.69 205.19 142.28 217.92 142.28"/>
      </g>
      <path class="uuid-a4df100a-77f3-415c-985e-79ede3c23b59" d="m263.96,304.41h-9.01c-.28,0-.5.22-.5.5s.22.5.5.5h9.01c.28,0,.5-.22.5-.5s-.22-.5-.5-.5Z"/>
      <path class="uuid-a4df100a-77f3-415c-985e-79ede3c23b59" d="m263.96,308.73h-9.01c-.28,0-.5.22-.5.5s.22.5.5.5h9.01c.28,0,.5-.22.5-.5s-.22-.5-.5-.5Z"/>
      <path class="uuid-a4df100a-77f3-415c-985e-79ede3c23b59" d="m336.99,308.8h-9.01c-.28,0-.5.22-.5.5s.22.5.5.5h9.01c.28,0,.5-.22.5-.5s-.22-.5-.5-.5Z"/>
      <path class="uuid-a4df100a-77f3-415c-985e-79ede3c23b59" d="m336.99,312.38h-9.01c-.28,0-.5.22-.5.5s.22.5.5.5h9.01c.28,0,.5-.22.5-.5s-.22-.5-.5-.5Z"/>
      <path class="uuid-a4df100a-77f3-415c-985e-79ede3c23b59" d="m331.19,332.37h-9.01c-.28,0-.5.22-.5.5s.22.5.5.5h9.01c.28,0,.5-.22.5-.5s-.22-.5-.5-.5Z"/>
      <path class="uuid-a4df100a-77f3-415c-985e-79ede3c23b59" d="m328.81,225.77h-5.1c-.28,0-.5.22-.5.5s.22.5.5.5h5.1c.28,0,.5-.22.5-.5s-.22-.5-.5-.5Z"/>
      <path class="uuid-a4df100a-77f3-415c-985e-79ede3c23b59" d="m215.36,248.93h-6.91c-.28,0-.5.22-.5.5s.22.5.5.5h6.91c.28,0,.5-.22.5-.5s-.22-.5-.5-.5Z"/>
      <path class="uuid-a4df100a-77f3-415c-985e-79ede3c23b59" d="m208.46,245.1h6.91c.28,0,.5-.22.5-.5s-.22-.5-.5-.5h-6.91c-.28,0-.5.22-.5.5s.22.5.5.5Z"/>
      <path class="uuid-a4df100a-77f3-415c-985e-79ede3c23b59" d="m262.96,244.1h-6.91c-.28,0-.5.22-.5.5s.22.5.5.5h6.91c.28,0,.5-.22.5-.5s-.22-.5-.5-.5Z"/>
      <path class="uuid-a4df100a-77f3-415c-985e-79ede3c23b59" d="m262.96,238.67h-6.91c-.28,0-.5.22-.5.5s.22.5.5.5h6.91c.28,0,.5-.22.5-.5s-.22-.5-.5-.5Z"/>
      <path class="uuid-a4df100a-77f3-415c-985e-79ede3c23b59" d="m505.98,115.12h-5.1c-.28,0-.5.22-.5.5s.22.5.5.5h5.1c.28,0,.5-.22.5-.5s-.22-.5-.5-.5Z"/>
      <path class="uuid-a4df100a-77f3-415c-985e-79ede3c23b59" d="m385.63,139.29h6.91c.28,0,.5-.22.5-.5s-.22-.5-.5-.5h-6.91c-.28,0-.5.22-.5.5s.22.5.5.5Z"/>
      <path class="uuid-a4df100a-77f3-415c-985e-79ede3c23b59" d="m385.63,134.46h6.91c.28,0,.5-.22.5-.5s-.22-.5-.5-.5h-6.91c-.28,0-.5.22-.5.5s.22.5.5.5Z"/>
      <path class="uuid-a4df100a-77f3-415c-985e-79ede3c23b59" d="m433.23,134.46h6.91c.28,0,.5-.22.5-.5s-.22-.5-.5-.5h-6.91c-.28,0-.5.22-.5.5s.22.5.5.5Z"/>
      <path class="uuid-a4df100a-77f3-415c-985e-79ede3c23b59" d="m433.23,129.03h6.91c.28,0,.5-.22.5-.5s-.22-.5-.5-.5h-6.91c-.28,0-.5.22-.5.5s.22.5.5.5Z"/>
      <path class="uuid-a4df100a-77f3-415c-985e-79ede3c23b59" d="m277.97,176.12h-6.9c-.28,0-.5.22-.5.5s.22.5.5.5h6.9c.28,0,.5-.22.5-.5s-.22-.5-.5-.5Z"/>
      <path class="uuid-a4df100a-77f3-415c-985e-79ede3c23b59" d="m277.97,171.58h-6.9c-.28,0-.5.22-.5.5s.22.5.5.5h6.9c.28,0,.5-.22.5-.5s-.22-.5-.5-.5Z"/>
      <path class="uuid-a4df100a-77f3-415c-985e-79ede3c23b59" d="m300.64,171.58h-6.91c-.28,0-.5.22-.5.5s.22.5.5.5h6.91c.28,0,.5-.22.5-.5s-.22-.5-.5-.5Z"/>
      <path class="uuid-a4df100a-77f3-415c-985e-79ede3c23b59" d="m300.64,166.97h-6.91c-.28,0-.5.22-.5.5s.22.5.5.5h6.91c.28,0,.5-.22.5-.5s-.22-.5-.5-.5Z"/>
      <path class="uuid-a4df100a-77f3-415c-985e-79ede3c23b59" d="m310.72,131.24h4.33c.28,0,.5-.22.5-.5s-.22-.5-.5-.5h-4.33c-.28,0-.5.22-.5.5s.22.5.5.5Z"/>
      <path class="uuid-a4df100a-77f3-415c-985e-79ede3c23b59" d="m310.72,135.12h4.33c.28,0,.5-.22.5-.5s-.22-.5-.5-.5h-4.33c-.28,0-.5.22-.5.5s.22.5.5.5Z"/>
      <path class="uuid-a4df100a-77f3-415c-985e-79ede3c23b59" d="m292.72,326.6h-6.91c-.28,0-.5.22-.5.5s.22.5.5.5h6.91c.28,0,.5-.22.5-.5s-.22-.5-.5-.5Z"/>
      <path class="uuid-a4df100a-77f3-415c-985e-79ede3c23b59" d="m292.72,321.98h-6.91c-.28,0-.5.22-.5.5s.22.5.5.5h6.91c.28,0,.5-.22.5-.5s-.22-.5-.5-.5Z"/>
      <path class="uuid-a4df100a-77f3-415c-985e-79ede3c23b59" d="m307.13,285.25h-4.33c-.28,0-.5.22-.5.5s.22.5.5.5h4.33c.28,0,.5-.22.5-.5s-.22-.5-.5-.5Z"/>
      <path class="uuid-a4df100a-77f3-415c-985e-79ede3c23b59" d="m307.13,289.13h-4.33c-.28,0-.5.22-.5.5s.22.5.5.5h4.33c.28,0,.5-.22.5-.5s-.22-.5-.5-.5Z"/>
      <path class="uuid-a4df100a-77f3-415c-985e-79ede3c23b59" d="m32.1,141.27h-7.38c-.28,0-.5.22-.5.5s.22.5.5.5h7.38c.28,0,.5-.22.5-.5s-.22-.5-.5-.5Z"/>
      <path class="uuid-a4df100a-77f3-415c-985e-79ede3c23b59" d="m32.1,144.69h-7.38c-.28,0-.5.22-.5.5s.22.5.5.5h7.38c.28,0,.5-.22.5-.5s-.22-.5-.5-.5Z"/>
    </g>
    <g>
      <polygon class="uuid-43977d84-5fbe-4c4e-a8a6-022bee86d57f" points="479.5 429.31 531.91 504.42 8.09 504.42 60.5 429.31 479.5 429.31"/>
      <path class="uuid-21e5dd11-37e6-40ce-87ed-b25095f03c87" d="m60.5,429.31l-52.4,75.11h523.82l-52.4-75.11H60.5Zm472.43,75.27c.08.11.09.26.03.39-.07.12-.19.19-.34.19H7.38c-.14,0-.27-.07-.34-.19-.06-.13-.05-.28.03-.39l52.92-75.86c.07-.1.19-.16.31-.16h419.4c.12,0,.23.06.31.16l52.92,75.86Z"/>
    </g>
    <g>
      <polygon class="uuid-81eb2c60-fa1b-4a16-8b6e-ddf4b994a394" points="370.54 438.86 429.96 438.86 439.35 482.63 358.58 482.63 370.54 438.86"/>
      <g>
        <line class="uuid-37e03cf8-d18e-475e-a92a-4fce66c02bfc" x1="366.09" y1="475.7" x2="430.85" y2="475.7"/>
        <line class="uuid-37e03cf8-d18e-475e-a92a-4fce66c02bfc" x1="368.53" y1="467.7" x2="429.53" y2="467.7"/>
        <line class="uuid-37e03cf8-d18e-475e-a92a-4fce66c02bfc" x1="370.97" y1="459.71" x2="428.21" y2="459.71"/>
        <line class="uuid-37e03cf8-d18e-475e-a92a-4fce66c02bfc" x1="373.41" y1="451.71" x2="426.89" y2="451.71"/>
        <line class="uuid-37e03cf8-d18e-475e-a92a-4fce66c02bfc" x1="375.85" y1="443.72" x2="425.58" y2="443.72"/>
      </g>
    </g>
    <g>
      <g>
        <path class="uuid-ff74e771-057b-4549-bf9a-65aff7dfefe4" d="m361.52,431.88c.68,3.81,1.44,8.13.29,12.08-2.15,7.31-9.97,11.27-17.13,14.39l-17.3,7.56-4.47-17.86,16.67-19.68c.08-.1.11-.24.08-.37l-11.5-42.34,24.35-4.23c3.5,19.28,6.3,35.12,9.02,50.45Z"/>
        <path class="uuid-21e5dd11-37e6-40ce-87ed-b25095f03c87" d="m361.8,443.96c1.16-3.95.39-8.27-.29-12.08-2.72-15.33-5.52-31.17-9.02-50.45l-24.35,4.23,11.5,42.34c.03.13,0,.26-.08.37l-16.67,19.68,4.47,17.86,17.3-7.56c7.16-3.12,14.98-7.07,17.13-14.39Zm.5-12.22c.69,3.9,1.47,8.32.26,12.44-2.25,7.65-10.25,11.7-17.58,14.9l-17.73,7.74c-.06.02-.1.04-.16.04-.06,0-.12-.02-.18-.04-.11-.06-.18-.15-.22-.26l-4.63-18.52c-.03-.12,0-.25.08-.35l16.66-19.68-11.56-42.55c-.02-.11,0-.22.05-.32.06-.1.16-.16.27-.18l25.17-4.37c.22-.03.42.11.46.33,3.53,19.45,6.36,35.41,9.09,50.83Z"/>
        <path class="uuid-ff74e771-057b-4549-bf9a-65aff7dfefe4" d="m200.42,428.37l16.66,19.68-4.47,17.86-17.3-7.56c-7.16-3.12-14.98-7.07-17.12-14.39-1.16-3.95-.4-8.27.28-12.08l.04-.22c2.72-15.35,5.53-31.22,8.98-50.23l24.35,4.23-11.5,42.34c-.04.13,0,.26.08.37Z"/>
        <path class="uuid-21e5dd11-37e6-40ce-87ed-b25095f03c87" d="m211.84,385.67l-24.35-4.23c-3.45,19.02-6.26,34.88-8.98,50.23l-.04.22c-.68,3.81-1.44,8.13-.28,12.08,2.14,7.31,9.96,11.27,17.12,14.39l17.3,7.56,4.47-17.86-16.66-19.68c-.09-.1-.12-.24-.08-.37l11.5-42.34Zm-16.84,73.42c-7.33-3.2-15.33-7.25-17.57-14.9-1.21-4.13-.43-8.55.26-12.44l.03-.21c2.74-15.46,5.57-31.44,9.06-50.62.04-.22.25-.36.45-.33l25.17,4.37c.11.02.21.09.27.18s.08.21.05.32l-11.56,42.55,16.66,19.68c.09.1.11.23.09.35l-4.64,18.52c-.02.11-.1.21-.21.26-.06.02-.12.04-.18.04s-.11-.02-.16-.04l-17.74-7.74Z"/>
      </g>
      <path class="uuid-43977d84-5fbe-4c4e-a8a6-022bee86d57f" d="m256.15,327.59c-11.49-.6-23.6-1.21-35.09-1.81-7.34-.39-15.42-.54-21.14,4.07-5.61,4.52-7.22,12.25-8.48,19.34-2.08,11.75-4.17,23.51-6.25,35.26l.4.11,26.86,4.17c1.46-10.2,2.72-20.43,3.79-30.68l-.81,8.04,8.49,51.2h90.92s8.75-53.99,8.75-53.99l-.52-5.25c1.07,10.25,2.34,20.48,3.79,30.68l26.86-4.17.4-.09c-2.08-11.76-4.17-23.52-6.25-35.29-1.26-7.09-2.87-14.82-8.48-19.34-5.72-4.61-13.8-4.45-21.14-4.07-11.49.6-24.87,1.21-36.36,1.81h-25.75Z"/>
      <g>
        <path class="uuid-a4df100a-77f3-415c-985e-79ede3c23b59" d="m316.17,366.84l-6.56,50.05h-80.09l-6.35-50.05h8.56l.35,5.64c0,.21.18.37.4.37h8.17c.1,0,.22-.05.29-.13.08-.08.11-.18.11-.29l-.34-5.59h57.15l-.33,5.59c0,.11.03.22.11.29.07.08.18.13.29.13h8.17c.22,0,.38-.17.4-.37l.33-5.64h9.35Zm-19.26,29.38c0-.22-.18-.4-.4-.4h-53.36c-.22,0-.4.18-.4.4s.18.4.4.4h53.36c.22,0,.4-.18.4-.4Z"/>
        <path class="uuid-21e5dd11-37e6-40ce-87ed-b25095f03c87" d="m316.17,366.84h-9.35l-.33,5.64c-.02.21-.18.37-.4.37h-8.17c-.11,0-.22-.05-.29-.13-.08-.08-.12-.18-.11-.29l.33-5.59h-57.15v-.8h57.2l2.29-39.4c.02-.21.18-.37.38-.37l8.19-.42c.11,0,.22.04.3.12s.12.19.11.3l-2.32,39.77h9.76c.11,0,.22.05.29.14.08.09.11.21.1.32l-.06.45-.79-.1Z"/>
        <path class="uuid-21e5dd11-37e6-40ce-87ed-b25095f03c87" d="m296.5,396.62h-53.36c-.22,0-.4-.18-.4-.4s.18-.4.4-.4h53.36c.22,0,.4.18.4.4s-.18.4-.4.4Z"/>
        <path class="uuid-21e5dd11-37e6-40ce-87ed-b25095f03c87" d="m309.61,416.89l6.56-50.05.79.1-6.6,50.4c-.02.2-.19.34-.39.34h-80.79c-.2,0-.37-.15-.4-.35l-6.45-50.84c-.02-.12.02-.23.1-.32.08-.09.19-.14.3-.14h8.96l-2.46-39.85c0-.11.03-.22.11-.3s.19-.12.31-.12l8.22.52c.21.02.37.18.37.37l2.41,39.38h.05v.8l.34,5.59c0,.11-.03.22-.11.29-.07.08-.18.13-.29.13h-8.17c-.22,0-.39-.17-.4-.37l-.35-5.64h-8.56l6.35,50.05h80.09Z"/>
      </g>
      <g>
        <path class="uuid-ff74e771-057b-4549-bf9a-65aff7dfefe4" d="m319.01,267.91c-.39,3.67-1.27,8.2-4.61,10.56-.66.47-1.69,1.02-2.79.92-.75-.06-1.47-.47-1.84-1.04,1.24-3.14,2.27-6.04,3.08-8.74,1.25-.65,2.56-1.22,3.89-1.67.17-.06.27-.22.27-.38l2.01.19c0,.06,0,.11-.02.17Z"/>
        <path class="uuid-ff74e771-057b-4549-bf9a-65aff7dfefe4" d="m313.16,268.58c.84-3.04,1.44-6.64,1.76-8.78.41-.03.81,0,1.19.11.1.03.18.06.27.1,1.2.52,2.15,1.77,2.54,3.34.35,1.43.25,2.95.1,4.39l-2.01-.19s0-.09-.02-.13c-.07-.21-.3-.32-.51-.25-1.13.39-2.24.88-3.32,1.4Z"/>
        <path class="uuid-ff74e771-057b-4549-bf9a-65aff7dfefe4" d="m244.27,249.06c-1.39,4.7-3.39,8.14-6.36,10.96-.13.12-.16.3-.09.45.06.15.22.24.39.23,7.69-.63,14.54-5.25,20.23-9.68,3.43-2.67,7.17-5.93,9.38-9.99,1.43,3.75,3.84,7.11,6.87,9.52.15.12.37.11.51,0,.14-.13.18-.33.09-.5-1.33-2.37-1.61-4.97-1.8-7.72,2.25,3.47,5.58,6.33,8.63,8.7,5.69,4.43,12.55,9.05,20.23,9.68.17.02.33-.08.4-.23.06-.15.03-.33-.1-.45-2.96-2.82-4.97-6.26-6.36-10.96,3.69,5.56,7.28,9.4,11.17,11.97.96,2.61,1.25,5.67.88,9.37-.27,2.68-1.5,6.26-2.48,9.13-.19.55-.37,1.08-.53,1.56-.69,2.08-.77,3.45-.25,4.18.1.14.25.29.46.4-10.69,27.81-26.3,37.71-36.47,37.71-15.52,0-29.65-19.41-36.88-38.78,1.35-.56,1.24-2.79,1.17-4.18l-.02-.28c-.09-1.99-.37-3.99-.64-5.93-.18-1.24-.36-2.53-.49-3.81-.37-3.7-.09-6.76.88-9.37,3.9-2.57,7.48-6.41,11.17-11.97Zm46.04,13.81c.16-.15.16-.41,0-.57-2.43-2.43-5.65-3.98-9.07-4.37-.22-.03-.41.13-.44.35-.02.22.14.41.35.44,3.23.37,6.29,1.84,8.59,4.14.08.08.18.12.29.12.1,0,.2-.04.28-.12Zm-3.18,8.01c0-2.98-1.16-5.39-2.6-5.39s-2.59,2.41-2.59,5.39,1.16,5.39,2.59,5.39,2.6-2.41,2.6-5.39Zm-10.7,33.45c.16-.15.18-.4.02-.57-.14-.16-.4-.18-.57-.02-3.42,3.12-9.09,3.24-12.65.28-.17-.14-.41-.12-.56.06-.14.17-.12.41.05.56,1.86,1.55,4.26,2.32,6.66,2.32,2.56,0,5.13-.88,7.04-2.62Zm-4.59-19.24c.19-.05.31-.22.29-.41l-.93-10.3c-.02-.22-.22-.38-.43-.36-.22.02-.38.21-.37.43l.9,9.97-3.4.94c-.22.06-.33.28-.28.49.05.18.21.29.38.29.04,0,.07,0,.1,0l3.73-1.04Zm-10.82-26.36c.22-.02.37-.22.35-.44s-.22-.38-.44-.35c-3.42.39-6.64,1.94-9.07,4.37-.15.16-.15.41,0,.57.08.08.18.12.29.12.1,0,.2-.04.28-.12,2.3-2.3,5.35-3.78,8.59-4.14Zm-.79,12.15c0-2.98-1.16-5.39-2.59-5.39s-2.6,2.41-2.6,5.39,1.16,5.39,2.6,5.39,2.59-2.41,2.59-5.39Z"/>
        <path class="uuid-21e5dd11-37e6-40ce-87ed-b25095f03c87" d="m284.54,265.48c1.43,0,2.6,2.41,2.6,5.39s-1.16,5.39-2.6,5.39-2.59-2.41-2.59-5.39,1.16-5.39,2.59-5.39Z"/>
        <path class="uuid-21e5dd11-37e6-40ce-87ed-b25095f03c87" d="m281.25,257.94c3.42.39,6.64,1.94,9.07,4.37.16.16.16.41,0,.57-.08.08-.18.12-.28.12-.1,0-.21-.04-.29-.12-2.3-2.3-5.35-3.78-8.59-4.14-.22-.02-.37-.22-.35-.44.02-.22.22-.38.44-.35Z"/>
        <path class="uuid-ff74e771-057b-4549-bf9a-65aff7dfefe4" d="m281.5,320.35v12.6c-.56.84-4.66,6.69-12.08,6.83-.1,0-.18,0-.28,0-7.6,0-11.79-5.98-12.36-6.84v-12.56c4.07,2.49,8.21,3.78,12.29,3.78,4.37,0,8.53-1.43,12.43-3.83Z"/>
        <path class="uuid-21e5dd11-37e6-40ce-87ed-b25095f03c87" d="m271.31,284.41l-.9-9.97c-.02-.22.14-.41.37-.43.21-.02.41.14.43.36l.93,10.3c.02.19-.1.37-.29.41l-3.73,1.04s-.06,0-.1,0c-.18,0-.33-.11-.38-.29-.06-.22.06-.43.28-.49l3.4-.94Z"/>
        <path class="uuid-21e5dd11-37e6-40ce-87ed-b25095f03c87" d="m263.24,304.02c3.56,2.96,9.23,2.84,12.65-.28.17-.15.42-.14.57.02.15.17.14.41-.02.57-1.91,1.74-4.49,2.62-7.04,2.62-2.4,0-4.8-.77-6.66-2.32-.17-.14-.19-.39-.05-.56.14-.18.39-.19.56-.06Z"/>
        <path class="uuid-21e5dd11-37e6-40ce-87ed-b25095f03c87" d="m257.65,265.48c1.43,0,2.59,2.41,2.59,5.39s-1.16,5.39-2.59,5.39-2.6-2.41-2.6-5.39,1.16-5.39,2.6-5.39Z"/>
        <path class="uuid-21e5dd11-37e6-40ce-87ed-b25095f03c87" d="m261.02,258.73c-3.23.37-6.29,1.84-8.59,4.14-.08.08-.18.12-.28.12-.1,0-.21-.04-.29-.12-.15-.15-.15-.41,0-.57,2.43-2.43,5.65-3.98,9.07-4.37.22-.03.41.14.44.35s-.14.41-.35.44Z"/>
        <path class="uuid-ff74e771-057b-4549-bf9a-65aff7dfefe4" d="m228.61,278.74c-.4.37-.95.61-1.5.65-1.11.1-2.14-.45-2.8-.92-3.34-2.36-4.21-6.88-4.61-10.56-.16-1.49-.28-3.07.09-4.56.39-1.57,1.34-2.82,2.54-3.34,1.11-.48,2.47-.24,3.24.55.24,1.68.44,3.41.63,5.08.12,1.04.24,2.08.37,3.12-1.2-.61-2.45-1.15-3.73-1.59-.21-.07-.43.04-.5.25s.03.44.25.51c1.4.48,2.79,1.08,4.1,1.78.41,3.07.95,6.13,1.91,9.02Z"/>
        <path class="uuid-21e5dd11-37e6-40ce-87ed-b25095f03c87" d="m316.11,259.91c-.37-.12-.78-.14-1.19-.11-.32,2.14-.92,5.74-1.76,8.78,1.08-.53,2.19-1.01,3.32-1.4.21-.07.44.04.51.25.02.04.02.09.02.13,0,.17-.1.33-.27.38-1.33.45-2.64,1.02-3.89,1.67-.81,2.7-1.84,5.6-3.08,8.74.37.57,1.09.99,1.84,1.04,1.1.1,2.13-.45,2.79-.92,3.34-2.36,4.21-6.88,4.61-10.56,0-.06,0-.11.02-.17.15-1.44.25-2.96-.1-4.39-.39-1.57-1.34-2.82-2.54-3.34-.09-.04-.18-.07-.27-.1Zm-83.92,24.69c7.23,19.38,21.36,38.78,36.88,38.78,10.17,0,25.78-9.9,36.47-37.71-.22-.11-.36-.26-.46-.4-.53-.73-.45-2.1.25-4.18.17-.49.34-1.01.53-1.56.98-2.87,2.21-6.45,2.48-9.13.37-3.7.08-6.76-.88-9.37-3.89-2.57-7.48-6.41-11.17-11.97,1.39,4.7,3.39,8.14,6.36,10.96.13.12.16.3.1.45-.07.15-.23.25-.4.23-7.68-.63-14.54-5.25-20.23-9.68-3.05-2.37-6.38-5.23-8.63-8.7.19,2.75.47,5.35,1.8,7.72.1.17.06.37-.09.5-.14.12-.36.13-.51,0-3.03-2.41-5.44-5.77-6.87-9.52-2.21,4.06-5.95,7.32-9.38,9.99-5.69,4.43-12.54,9.05-20.23,9.68-.17,0-.33-.08-.39-.23-.07-.15-.04-.33.09-.45,2.96-2.82,4.97-6.26,6.36-10.96-3.69,5.56-7.27,9.41-11.17,11.97-.96,2.61-1.25,5.67-.88,9.37.13,1.27.31,2.57.49,3.81.27,1.94.55,3.94.64,5.93l.02.28c.07,1.39.18,3.63-1.17,4.18Zm24.59,48.35c.57.86,4.76,6.84,12.36,6.84.1,0,.18,0,.28,0,7.42-.14,11.52-5.98,12.08-6.83v-12.6c-3.9,2.41-8.06,3.83-12.43,3.83-4.07,0-8.21-1.29-12.29-3.78v12.56Zm-27.9-53.42c-.49.37-1.1.61-1.71.65-.1,0-.21,0-.31,0-1.22,0-2.29-.57-3.01-1.08-3.64-2.57-4.56-7.58-4.93-11.13-.17-1.56-.29-3.21.1-4.83.45-1.81,1.57-3.26,3-3.88.23-.1.46-.17.71-.22l-.06-.45c-1.45-8.02,1.78-15.42,4.75-20.23,5.21-8.44,11.67-15.16,18.83-19.75-.29-.31-.59-.62-.84-.95-4.02-4.96-4.88-12.37-2.21-18.86,2.36-5.72,7.21-10.58,13.68-13.69,8.16-3.92,17.72-4.34,25.57-1.13,8.35,3.43,14.68,11.08,16.14,19.51.79,4.58.06,8.83-2.05,11.96-.74,1.1-1.71,2.13-2.88,3.08,7.48,4.57,14.21,11.27,19.48,19.82,2.97,4.8,6.2,12.21,4.75,20.25l-.32,1.16c1,.75,1.78,1.94,2.13,3.36.4,1.62.27,3.27.1,4.83-.41,3.85-1.33,8.59-4.93,11.13-.72.5-1.79,1.08-3.01,1.08-.1,0-.21,0-.3,0-.82-.06-1.57-.45-2.1-1-.82,2.04-1.73,4.18-2.73,6.45-.07.14-.21.23-.37.23h-.02c-4.93,12.8-13.44,27.02-24.04,33.99v13.22c0,.07-.02.15-.06.22-.18.29-4.54,7.15-12.8,7.3-.1,0-.2,0-.29,0-8.45,0-12.91-7.01-13.1-7.31-.04-.06-.06-.14-.06-.22v-13.16c-3.19-2.08-6.34-4.89-9.39-8.41-6.04-7.01-11.47-16.59-15.3-26.98-1.01-1.58-1.8-3.24-2.42-4.97Zm-1.78-.14c.55-.04,1.1-.28,1.5-.65-.96-2.89-1.51-5.95-1.91-9.02-1.31-.7-2.7-1.31-4.1-1.78-.22-.07-.32-.3-.25-.51s.29-.32.5-.25c1.27.44,2.53.97,3.73,1.59-.13-1.04-.25-2.08-.37-3.12-.19-1.67-.39-3.4-.63-5.08-.77-.79-2.14-1.03-3.24-.55-1.2.52-2.15,1.77-2.54,3.34-.37,1.49-.25,3.07-.09,4.56.39,3.67,1.27,8.2,4.61,10.56.66.47,1.69,1.02,2.8.92Z"/>
      </g>
    </g>
    <g>
      <polygon class="uuid-81eb2c60-fa1b-4a16-8b6e-ddf4b994a394" points="103.91 448.09 170.69 448.09 181.25 486.92 90.47 486.92 103.91 448.09"/>
      <g>
        <line class="uuid-37e03cf8-d18e-475e-a92a-4fce66c02bfc" x1="98.91" y1="480.77" x2="171.69" y2="480.77"/>
        <line class="uuid-37e03cf8-d18e-475e-a92a-4fce66c02bfc" x1="101.65" y1="473.68" x2="170.21" y2="473.68"/>
        <line class="uuid-37e03cf8-d18e-475e-a92a-4fce66c02bfc" x1="104.39" y1="466.58" x2="168.73" y2="466.58"/>
        <line class="uuid-37e03cf8-d18e-475e-a92a-4fce66c02bfc" x1="107.14" y1="459.49" x2="167.25" y2="459.49"/>
        <line class="uuid-37e03cf8-d18e-475e-a92a-4fce66c02bfc" x1="109.88" y1="452.39" x2="165.77" y2="452.39"/>
      </g>
    </g>
    <g>
      <polygon class="uuid-81eb2c60-fa1b-4a16-8b6e-ddf4b994a394" points="90.4 443.81 157.18 443.81 167.73 482.64 76.96 482.64 90.4 443.81"/>
      <g>
        <line class="uuid-37e03cf8-d18e-475e-a92a-4fce66c02bfc" x1="85.39" y1="476.49" x2="158.18" y2="476.49"/>
        <line class="uuid-37e03cf8-d18e-475e-a92a-4fce66c02bfc" x1="88.14" y1="469.4" x2="156.7" y2="469.4"/>
        <line class="uuid-37e03cf8-d18e-475e-a92a-4fce66c02bfc" x1="90.88" y1="462.3" x2="155.21" y2="462.3"/>
        <line class="uuid-37e03cf8-d18e-475e-a92a-4fce66c02bfc" x1="93.62" y1="455.21" x2="153.73" y2="455.21"/>
        <line class="uuid-37e03cf8-d18e-475e-a92a-4fce66c02bfc" x1="96.36" y1="448.11" x2="152.25" y2="448.11"/>
      </g>
    </g>
    <g>
      <polygon class="uuid-81eb2c60-fa1b-4a16-8b6e-ddf4b994a394" points="85.99 442.48 152.77 442.48 163.33 481.31 72.55 481.31 85.99 442.48"/>
      <g>
        <line class="uuid-81eb2c60-fa1b-4a16-8b6e-ddf4b994a394" x1="80.99" y1="475.16" x2="153.77" y2="475.16"/>
        <line class="uuid-81eb2c60-fa1b-4a16-8b6e-ddf4b994a394" x1="83.73" y1="468.07" x2="152.29" y2="468.07"/>
        <line class="uuid-81eb2c60-fa1b-4a16-8b6e-ddf4b994a394" x1="86.48" y1="460.97" x2="150.81" y2="460.97"/>
        <line class="uuid-81eb2c60-fa1b-4a16-8b6e-ddf4b994a394" x1="89.22" y1="453.88" x2="149.33" y2="453.88"/>
        <line class="uuid-81eb2c60-fa1b-4a16-8b6e-ddf4b994a394" x1="91.96" y1="446.79" x2="147.85" y2="446.79"/>
      </g>
    </g>
    <g>
      <path class="uuid-ce11ca0b-83c5-453f-b604-cf811b2256e7" d="m184.4,485.93v2.33c0,.56-1.34,1.11-3.68,1.53-2.41.43-5.62.66-9.03.66s-6.62-.24-9.03-.66c-2.34-.41-3.68-.97-3.68-1.53v-2.33c.93,1.13,6.18,1.97,12.71,1.97s11.78-.84,12.71-1.97Z"/>
      <path class="uuid-ce11ca0b-83c5-453f-b604-cf811b2256e7" d="m184.4,485.57c0,.56-1.34,1.11-3.68,1.53-2.41.43-5.62.66-9.03.66s-6.62-.23-9.03-.66c-2.34-.41-3.68-.97-3.68-1.53s1.34-1.11,3.68-1.53c2.41-.43,5.62-.66,9.03-.66s6.62.23,9.03.66c2.34.41,3.68.97,3.68,1.53Zm-3.68,0c0-1.04-4.59-1.66-9.03-1.66s-9.03.62-9.03,1.66,4.59,1.66,9.03,1.66,9.03-.62,9.03-1.66Z"/>
      <path class="uuid-ce11ca0b-83c5-453f-b604-cf811b2256e7" d="m171.69,484.06c5.31,0,8.88.78,8.88,1.51s-3.57,1.51-8.88,1.51-8.88-.78-8.88-1.51,3.57-1.51,8.88-1.51Z"/>
      <path class="uuid-21e5dd11-37e6-40ce-87ed-b25095f03c87" d="m171.69,487.23c-4.44,0-9.03-.62-9.03-1.66s4.59-1.66,9.03-1.66,9.03.62,9.03,1.66-4.59,1.66-9.03,1.66Zm0-3.17c-5.31,0-8.88.78-8.88,1.51s3.57,1.51,8.88,1.51,8.88-.78,8.88-1.51-3.57-1.51-8.88-1.51Z"/>
      <path class="uuid-21e5dd11-37e6-40ce-87ed-b25095f03c87" d="m162.66,489.79c2.41.43,5.62.66,9.03.66s6.62-.24,9.03-.66c2.34-.41,3.68-.97,3.68-1.53v-2.33c-.93,1.13-6.18,1.97-12.71,1.97s-11.78-.84-12.71-1.97v2.33c0,.56,1.34,1.11,3.68,1.53Zm-3.68-4.22c0,.56,1.34,1.11,3.68,1.53,2.41.43,5.62.66,9.03.66s6.62-.23,9.03-.66c2.34-.41,3.68-.97,3.68-1.53s-1.34-1.11-3.68-1.53c-2.41-.43-5.62-.66-9.03-.66s-6.62.23-9.03.66c-2.34.41-3.68.97-3.68,1.53Zm-.15,0c0-1.31,5.65-2.33,12.86-2.33s12.86,1.03,12.86,2.33v2.69c0,1.31-5.65,2.34-12.86,2.34s-12.86-1.03-12.86-2.34v-2.69Z"/>
    </g>
    <g>
      <path class="uuid-ce11ca0b-83c5-453f-b604-cf811b2256e7" d="m187.57,481.65v2.33c0,.56-1.34,1.11-3.68,1.53-2.41.43-5.62.66-9.03.66s-6.62-.24-9.03-.66c-2.34-.41-3.68-.97-3.68-1.53v-2.33c.93,1.13,6.18,1.97,12.71,1.97s11.78-.84,12.71-1.97Z"/>
      <path class="uuid-232248b7-d2f8-4bca-9699-ed1633bebbf0" d="m187.57,481.29c0,.56-1.34,1.11-3.68,1.53-2.41.43-5.62.66-9.03.66s-6.62-.23-9.03-.66c-2.34-.41-3.68-.97-3.68-1.53s1.34-1.11,3.68-1.53c2.41-.43,5.62-.66,9.03-.66s6.62.23,9.03.66c2.34.41,3.68.97,3.68,1.53Zm-3.68,0c0-1.04-4.59-1.66-9.03-1.66s-9.03.62-9.03,1.66,4.59,1.66,9.03,1.66,9.03-.62,9.03-1.66Z"/>
      <path class="uuid-232248b7-d2f8-4bca-9699-ed1633bebbf0" d="m174.86,479.78c5.31,0,8.88.78,8.88,1.51s-3.57,1.51-8.88,1.51-8.88-.78-8.88-1.51,3.57-1.51,8.88-1.51Z"/>
      <path class="uuid-21e5dd11-37e6-40ce-87ed-b25095f03c87" d="m165.83,481.29c0-1.04,4.59-1.66,9.03-1.66s9.03.62,9.03,1.66-4.59,1.66-9.03,1.66-9.03-.62-9.03-1.66Zm.15,0c0,.73,3.57,1.51,8.88,1.51s8.88-.78,8.88-1.51-3.57-1.51-8.88-1.51-8.88.78-8.88,1.51Z"/>
      <path class="uuid-21e5dd11-37e6-40ce-87ed-b25095f03c87" d="m162,481.29c0-1.31,5.65-2.33,12.86-2.33s12.86,1.03,12.86,2.33v2.69c0,1.31-5.65,2.34-12.86,2.34s-12.86-1.03-12.86-2.34v-2.69Zm12.86-2.19c-3.41,0-6.62.23-9.03.66-2.34.41-3.68.97-3.68,1.53s1.34,1.11,3.68,1.53c2.41.43,5.62.66,9.03.66s6.62-.23,9.03-.66c2.34-.41,3.68-.97,3.68-1.53s-1.34-1.11-3.68-1.53c-2.41-.43-5.62-.66-9.03-.66Zm0,4.52c-6.53,0-11.78-.84-12.71-1.97v2.33c0,.56,1.34,1.11,3.68,1.53,2.41.43,5.62.66,9.03.66s6.62-.24,9.03-.66c2.34-.41,3.68-.97,3.68-1.53v-2.33c-.93,1.13-6.18,1.97-12.71,1.97Z"/>
    </g>
    <g>
      <path class="uuid-ce11ca0b-83c5-453f-b604-cf811b2256e7" d="m187.57,478.79v2.33c0,.56-1.34,1.11-3.68,1.53-2.41.43-5.62.66-9.03.66s-6.62-.24-9.03-.66c-2.34-.41-3.68-.97-3.68-1.53v-2.33c.93,1.13,6.18,1.97,12.71,1.97s11.78-.84,12.71-1.97Z"/>
      <path class="uuid-ce11ca0b-83c5-453f-b604-cf811b2256e7" d="m187.57,478.43c0,.56-1.34,1.11-3.68,1.53-2.41.43-5.62.66-9.03.66s-6.62-.23-9.03-.66c-2.34-.41-3.68-.97-3.68-1.53s1.34-1.11,3.68-1.53c2.41-.43,5.62-.66,9.03-.66s6.62.23,9.03.66c2.34.41,3.68.97,3.68,1.53Zm-3.68,0c0-1.04-4.59-1.66-9.03-1.66s-9.03.62-9.03,1.66,4.59,1.66,9.03,1.66,9.03-.62,9.03-1.66Z"/>
      <path class="uuid-232248b7-d2f8-4bca-9699-ed1633bebbf0" d="m174.86,476.92c5.31,0,8.88.78,8.88,1.51s-3.57,1.51-8.88,1.51-8.88-.78-8.88-1.51,3.57-1.51,8.88-1.51Z"/>
      <path class="uuid-21e5dd11-37e6-40ce-87ed-b25095f03c87" d="m174.86,476.92c-5.31,0-8.88.78-8.88,1.51s3.57,1.51,8.88,1.51,8.88-.78,8.88-1.51-3.57-1.51-8.88-1.51Zm-9.03,1.51c0-1.04,4.59-1.66,9.03-1.66s9.03.62,9.03,1.66-4.59,1.66-9.03,1.66-9.03-.62-9.03-1.66Z"/>
      <path class="uuid-21e5dd11-37e6-40ce-87ed-b25095f03c87" d="m162,478.43c0-1.31,5.65-2.33,12.86-2.33s12.86,1.03,12.86,2.33v2.69c0,1.31-5.65,2.34-12.86,2.34s-12.86-1.03-12.86-2.34v-2.69Zm12.86-2.19c-3.41,0-6.62.23-9.03.66-2.34.41-3.68.97-3.68,1.53s1.34,1.11,3.68,1.53c2.41.43,5.62.66,9.03.66s6.62-.23,9.03-.66c2.34-.41,3.68-.97,3.68-1.53s-1.34-1.11-3.68-1.53c-2.41-.43-5.62-.66-9.03-.66Zm12.71,2.55c-.93,1.13-6.18,1.97-12.71,1.97s-11.78-.84-12.71-1.97v2.33c0,.56,1.34,1.11,3.68,1.53,2.41.43,5.62.66,9.03.66s6.62-.24,9.03-.66c2.34-.41,3.68-.97,3.68-1.53v-2.33Z"/>
    </g>
    <g>
      <path class="uuid-ce11ca0b-83c5-453f-b604-cf811b2256e7" d="m185.04,475.94v2.33c0,.56-1.34,1.11-3.68,1.53-2.41.43-5.62.66-9.03.66s-6.62-.24-9.03-.66c-2.34-.41-3.68-.97-3.68-1.53v-2.33c.93,1.13,6.18,1.97,12.71,1.97s11.78-.84,12.71-1.97Z"/>
      <path class="uuid-ce11ca0b-83c5-453f-b604-cf811b2256e7" d="m185.04,475.57c0,.56-1.34,1.11-3.68,1.53-2.41.43-5.62.66-9.03.66s-6.62-.23-9.03-.66c-2.34-.41-3.68-.97-3.68-1.53s1.34-1.11,3.68-1.53c2.41-.43,5.62-.66,9.03-.66s6.62.23,9.03.66c2.34.41,3.68.97,3.68,1.53Zm-3.68,0c0-1.04-4.59-1.66-9.03-1.66s-9.03.62-9.03,1.66,4.59,1.66,9.03,1.66,9.03-.62,9.03-1.66Z"/>
      <path class="uuid-ce11ca0b-83c5-453f-b604-cf811b2256e7" d="m172.33,474.06c5.31,0,8.88.78,8.88,1.51s-3.57,1.51-8.88,1.51-8.88-.78-8.88-1.51,3.57-1.51,8.88-1.51Z"/>
      <path class="uuid-21e5dd11-37e6-40ce-87ed-b25095f03c87" d="m181.36,475.57c0,1.04-4.59,1.66-9.03,1.66s-9.03-.62-9.03-1.66,4.59-1.66,9.03-1.66,9.03.62,9.03,1.66Zm-.15,0c0-.73-3.57-1.51-8.88-1.51s-8.88.78-8.88,1.51,3.57,1.51,8.88,1.51,8.88-.78,8.88-1.51Z"/>
      <path class="uuid-21e5dd11-37e6-40ce-87ed-b25095f03c87" d="m163.3,479.79c2.41.43,5.62.66,9.03.66s6.62-.24,9.03-.66c2.34-.41,3.68-.97,3.68-1.53v-2.33c-.93,1.13-6.18,1.97-12.71,1.97s-11.78-.84-12.71-1.97v2.33c0,.56,1.34,1.11,3.68,1.53Zm9.03-6.41c-3.41,0-6.62.23-9.03.66-2.34.41-3.68.97-3.68,1.53s1.34,1.11,3.68,1.53c2.41.43,5.62.66,9.03.66s6.62-.23,9.03-.66c2.34-.41,3.68-.97,3.68-1.53s-1.34-1.11-3.68-1.53c-2.41-.43-5.62-.66-9.03-.66Zm12.86,4.88c0,1.31-5.65,2.34-12.86,2.34s-12.86-1.03-12.86-2.34v-2.69c0-1.31,5.65-2.33,12.86-2.33s12.86,1.03,12.86,2.33v2.69Z"/>
    </g>
    <g>
      <path class="uuid-ce11ca0b-83c5-453f-b604-cf811b2256e7" d="m401.04,475.94v2.33c0,.56-1.34,1.11-3.68,1.53-2.41.43-5.62.66-9.03.66s-6.62-.24-9.03-.66c-2.34-.41-3.68-.97-3.68-1.53v-2.33c.93,1.13,6.18,1.97,12.71,1.97s11.78-.84,12.71-1.97Z"/>
      <path class="uuid-ce11ca0b-83c5-453f-b604-cf811b2256e7" d="m401.04,475.57c0,.56-1.34,1.11-3.68,1.53-2.41.43-5.62.66-9.03.66s-6.62-.23-9.03-.66c-2.34-.41-3.68-.97-3.68-1.53s1.34-1.11,3.68-1.53c2.41-.43,5.62-.66,9.03-.66s6.62.23,9.03.66c2.34.41,3.68.97,3.68,1.53Zm-3.68,0c0-1.04-4.59-1.66-9.03-1.66s-9.03.62-9.03,1.66,4.59,1.66,9.03,1.66,9.03-.62,9.03-1.66Z"/>
      <path class="uuid-232248b7-d2f8-4bca-9699-ed1633bebbf0" d="m388.33,474.06c5.31,0,8.88.78,8.88,1.51s-3.57,1.51-8.88,1.51-8.88-.78-8.88-1.51,3.57-1.51,8.88-1.51Z"/>
      <path class="uuid-21e5dd11-37e6-40ce-87ed-b25095f03c87" d="m388.33,473.92c4.44,0,9.03.62,9.03,1.66s-4.59,1.66-9.03,1.66-9.03-.62-9.03-1.66,4.59-1.66,9.03-1.66Zm8.88,1.66c0-.73-3.57-1.51-8.88-1.51s-8.88.78-8.88,1.51,3.57,1.51,8.88,1.51,8.88-.78,8.88-1.51Z"/>
      <path class="uuid-21e5dd11-37e6-40ce-87ed-b25095f03c87" d="m388.33,477.76c3.41,0,6.62-.23,9.03-.66,2.34-.41,3.68-.97,3.68-1.53s-1.34-1.11-3.68-1.53c-2.41-.43-5.62-.66-9.03-.66s-6.62.23-9.03.66c-2.34.41-3.68.97-3.68,1.53s1.34,1.11,3.68,1.53c2.41.43,5.62.66,9.03.66Zm12.71-1.83c-.93,1.13-6.18,1.97-12.71,1.97s-11.78-.84-12.71-1.97v2.33c0,.56,1.34,1.11,3.68,1.53,2.41.43,5.62.66,9.03.66s6.62-.24,9.03-.66c2.34-.41,3.68-.97,3.68-1.53v-2.33Zm-12.71,4.67c-7.21,0-12.86-1.03-12.86-2.34v-2.69c0-1.31,5.65-2.33,12.86-2.33s12.86,1.03,12.86,2.33v2.69c0,1.31-5.65,2.34-12.86,2.34Z"/>
    </g>
    <g>
      <path class="uuid-ce11ca0b-83c5-453f-b604-cf811b2256e7" d="m103.57,470.79v2.33c0,.56-1.34,1.11-3.68,1.53-2.41.43-5.62.66-9.03.66s-6.62-.24-9.03-.66c-2.34-.41-3.68-.97-3.68-1.53v-2.33c.93,1.13,6.18,1.97,12.71,1.97s11.78-.84,12.71-1.97Z"/>
      <path class="uuid-ce11ca0b-83c5-453f-b604-cf811b2256e7" d="m103.57,470.43c0,.56-1.34,1.11-3.68,1.53-2.41.43-5.62.66-9.03.66s-6.62-.23-9.03-.66c-2.34-.41-3.68-.97-3.68-1.53s1.34-1.11,3.68-1.53c2.41-.43,5.62-.66,9.03-.66s6.62.23,9.03.66c2.34.41,3.68.97,3.68,1.53Zm-3.68,0c0-1.04-4.59-1.66-9.03-1.66s-9.03.62-9.03,1.66,4.59,1.66,9.03,1.66,9.03-.62,9.03-1.66Z"/>
      <path class="uuid-ce11ca0b-83c5-453f-b604-cf811b2256e7" d="m90.86,468.92c5.31,0,8.88.78,8.88,1.51s-3.57,1.51-8.88,1.51-8.88-.78-8.88-1.51,3.57-1.51,8.88-1.51Z"/>
      <path class="uuid-21e5dd11-37e6-40ce-87ed-b25095f03c87" d="m90.86,471.94c5.31,0,8.88-.78,8.88-1.51s-3.57-1.51-8.88-1.51-8.88.78-8.88,1.51,3.57,1.51,8.88,1.51Zm0,.15c-4.44,0-9.03-.62-9.03-1.66s4.59-1.66,9.03-1.66,9.03.62,9.03,1.66-4.59,1.66-9.03,1.66Z"/>
      <path class="uuid-21e5dd11-37e6-40ce-87ed-b25095f03c87" d="m81.83,468.9c-2.34.41-3.68.97-3.68,1.53s1.34,1.11,3.68,1.53c2.41.43,5.62.66,9.03.66s6.62-.23,9.03-.66c2.34-.41,3.68-.97,3.68-1.53s-1.34-1.11-3.68-1.53c-2.41-.43-5.62-.66-9.03-.66s-6.62.23-9.03.66Zm-3.68,4.22c0,.56,1.34,1.11,3.68,1.53,2.41.43,5.62.66,9.03.66s6.62-.24,9.03-.66c2.34-.41,3.68-.97,3.68-1.53v-2.33c-.93,1.13-6.18,1.97-12.71,1.97s-11.78-.84-12.71-1.97v2.33Zm12.71,2.34c-7.21,0-12.86-1.03-12.86-2.34v-2.69c0-1.31,5.65-2.33,12.86-2.33s12.86,1.03,12.86,2.33v2.69c0,1.31-5.65,2.34-12.86,2.34Z"/>
    </g>
    <g>
      <path class="uuid-232248b7-d2f8-4bca-9699-ed1633bebbf0" d="m108.4,446.93v2.33c0,.56-1.34,1.11-3.68,1.53-2.41.43-5.62.66-9.03.66s-6.62-.24-9.03-.66c-2.34-.41-3.68-.97-3.68-1.53v-2.33c.93,1.13,6.18,1.97,12.71,1.97s11.78-.84,12.71-1.97Z"/>
      <path class="uuid-232248b7-d2f8-4bca-9699-ed1633bebbf0" d="m108.4,446.57c0,.56-1.34,1.11-3.68,1.53-2.41.43-5.62.66-9.03.66s-6.62-.23-9.03-.66c-2.34-.41-3.68-.97-3.68-1.53s1.34-1.11,3.68-1.53c2.41-.43,5.62-.66,9.03-.66s6.62.23,9.03.66c2.34.41,3.68.97,3.68,1.53Zm-3.68,0c0-1.04-4.59-1.66-9.03-1.66s-9.03.62-9.03,1.66,4.59,1.66,9.03,1.66,9.03-.62,9.03-1.66Z"/>
      <path class="uuid-232248b7-d2f8-4bca-9699-ed1633bebbf0" d="m95.69,445.06c5.31,0,8.88.78,8.88,1.51s-3.57,1.51-8.88,1.51-8.88-.78-8.88-1.51,3.57-1.51,8.88-1.51Z"/>
      <path class="uuid-21e5dd11-37e6-40ce-87ed-b25095f03c87" d="m95.69,445.06c-5.31,0-8.88.78-8.88,1.51s3.57,1.51,8.88,1.51,8.88-.78,8.88-1.51-3.57-1.51-8.88-1.51Zm-9.03,1.51c0-1.04,4.59-1.66,9.03-1.66s9.03.62,9.03,1.66-4.59,1.66-9.03,1.66-9.03-.62-9.03-1.66Z"/>
      <path class="uuid-21e5dd11-37e6-40ce-87ed-b25095f03c87" d="m86.66,450.79c2.41.43,5.62.66,9.03.66s6.62-.24,9.03-.66c2.34-.41,3.68-.97,3.68-1.53v-2.33c-.93,1.13-6.18,1.97-12.71,1.97s-11.78-.84-12.71-1.97v2.33c0,.56,1.34,1.11,3.68,1.53Zm-3.68-4.22c0,.56,1.34,1.11,3.68,1.53,2.41.43,5.62.66,9.03.66s6.62-.23,9.03-.66c2.34-.41,3.68-.97,3.68-1.53s-1.34-1.11-3.68-1.53c-2.41-.43-5.62-.66-9.03-.66s-6.62.23-9.03.66c-2.34.41-3.68.97-3.68,1.53Zm-.15,0c0-1.31,5.65-2.33,12.86-2.33s12.86,1.03,12.86,2.33v2.69c0,1.31-5.65,2.34-12.86,2.34s-12.86-1.03-12.86-2.34v-2.69Z"/>
    </g>
    <g>
      <path class="uuid-ce11ca0b-83c5-453f-b604-cf811b2256e7" d="m96.04,478.94v2.33c0,.56-1.34,1.11-3.68,1.53-2.41.43-5.62.66-9.03.66s-6.62-.24-9.03-.66c-2.34-.41-3.68-.97-3.68-1.53v-2.33c.93,1.13,6.18,1.97,12.71,1.97s11.78-.84,12.71-1.97Z"/>
      <path class="uuid-ce11ca0b-83c5-453f-b604-cf811b2256e7" d="m96.04,478.57c0,.56-1.34,1.11-3.68,1.53-2.41.43-5.62.66-9.03.66s-6.62-.23-9.03-.66c-2.34-.41-3.68-.97-3.68-1.53s1.34-1.11,3.68-1.53c2.41-.43,5.62-.66,9.03-.66s6.62.23,9.03.66c2.34.41,3.68.97,3.68,1.53Zm-3.68,0c0-1.04-4.59-1.66-9.03-1.66s-9.03.62-9.03,1.66,4.59,1.66,9.03,1.66,9.03-.62,9.03-1.66Z"/>
      <path class="uuid-ce11ca0b-83c5-453f-b604-cf811b2256e7" d="m83.33,477.06c5.31,0,8.88.78,8.88,1.51s-3.57,1.51-8.88,1.51-8.88-.78-8.88-1.51,3.57-1.51,8.88-1.51Z"/>
      <path class="uuid-21e5dd11-37e6-40ce-87ed-b25095f03c87" d="m83.33,480.23c-4.44,0-9.03-.62-9.03-1.66s4.59-1.66,9.03-1.66,9.03.62,9.03,1.66-4.59,1.66-9.03,1.66Zm0-3.17c-5.31,0-8.88.78-8.88,1.51s3.57,1.51,8.88,1.51,8.88-.78,8.88-1.51-3.57-1.51-8.88-1.51Z"/>
      <path class="uuid-21e5dd11-37e6-40ce-87ed-b25095f03c87" d="m70.47,478.57c0-1.31,5.65-2.33,12.86-2.33s12.86,1.03,12.86,2.33v2.69c0,1.31-5.65,2.34-12.86,2.34s-12.86-1.03-12.86-2.34v-2.69Zm12.86-2.19c-3.41,0-6.62.23-9.03.66-2.34.41-3.68.97-3.68,1.53s1.34,1.11,3.68,1.53c2.41.43,5.62.66,9.03.66s6.62-.23,9.03-.66c2.34-.41,3.68-.97,3.68-1.53s-1.34-1.11-3.68-1.53c-2.41-.43-5.62-.66-9.03-.66Zm0,4.52c-6.53,0-11.78-.84-12.71-1.97v2.33c0,.56,1.34,1.11,3.68,1.53,2.41.43,5.62.66,9.03.66s6.62-.24,9.03-.66c2.34-.41,3.68-.97,3.68-1.53v-2.33c-.93,1.13-6.18,1.97-12.71,1.97Z"/>
    </g>
    <g>
      <path class="uuid-b4e63510-eb12-4d58-a7ef-09dedb782e32" d="m356.13,387.45l-19.27,93.32h-134.94l-18.08-93.32h172.29Zm-78.03,53.3c2.62-3.45,2.91-8.47.69-12.2-2.12-3.58-6.61-5.78-10.93-5.33-3.59.36-6.31,2.48-7.46,5.79-1.04,3.01-.92,6.55.33,9.97.7,1.88,1.59,3.25,2.71,4.18.83.68,1.86,1.2,3.08,1.52.89.25,1.81.36,2.73.36,3.39,0,6.77-1.59,8.84-4.3Z"/>
      <path class="uuid-43977d84-5fbe-4c4e-a8a6-022bee86d57f" d="m278.11,428.96c2.06,3.46,1.79,8.11-.65,11.31-2.43,3.2-6.84,4.7-10.72,3.66-1.11-.3-2.05-.76-2.78-1.37-1.01-.84-1.82-2.1-2.47-3.85-1.2-3.25-1.31-6.6-.33-9.43,1.04-3.01,3.52-4.93,6.79-5.27.34-.03.69-.05,1.03-.05,3.69,0,7.34,1.96,9.14,5Z"/>
      <path class="uuid-21e5dd11-37e6-40ce-87ed-b25095f03c87" d="m263.45,443.17c-1.12-.93-2.01-2.3-2.71-4.18-1.26-3.43-1.38-6.96-.33-9.97,1.15-3.31,3.86-5.43,7.46-5.79,4.32-.45,8.81,1.75,10.93,5.33,2.21,3.73,1.93,8.75-.69,12.2-2.06,2.72-5.45,4.3-8.84,4.3-.92,0-1.84-.11-2.73-.36-1.22-.33-2.25-.84-3.08-1.52Zm-1.96-4.46c.65,1.75,1.46,3.01,2.47,3.85.73.61,1.67,1.07,2.78,1.37,3.89,1.04,8.29-.45,10.72-3.66,2.44-3.2,2.7-7.86.65-11.31-1.8-3.04-5.45-5-9.14-5-.34,0-.69.02-1.03.05-3.27.33-5.74,2.25-6.79,5.27-.98,2.84-.86,6.18.33,9.43Z"/>
      <path class="uuid-21e5dd11-37e6-40ce-87ed-b25095f03c87" d="m337.18,481.57h-135.59c-.19,0-.35-.14-.39-.33l-18.24-94.12c-.02-.11,0-.23.09-.33.07-.09.18-.14.3-.14h173.27c.12,0,.23.06.3.14.08.1.11.22.08.33l-19.44,94.12c-.04.18-.2.32-.39.32Zm-135.26-.8h134.94l19.27-93.32h-172.29l18.08,93.32Z"/>
    </g>
    <g>
      <path class="uuid-ce11ca0b-83c5-453f-b604-cf811b2256e7" d="m100.12,476.02v2.33c0,.56-1.34,1.11-3.68,1.53-2.41.43-5.62.66-9.03.66s-6.62-.24-9.03-.66c-2.34-.41-3.68-.97-3.68-1.53v-2.33c.93,1.13,6.18,1.97,12.71,1.97s11.78-.84,12.71-1.97Z"/>
      <path class="uuid-ce11ca0b-83c5-453f-b604-cf811b2256e7" d="m100.12,475.65c0,.56-1.34,1.11-3.68,1.53-2.41.43-5.62.66-9.03.66s-6.62-.23-9.03-.66c-2.34-.41-3.68-.97-3.68-1.53s1.34-1.11,3.68-1.53c2.41-.43,5.62-.66,9.03-.66s6.62.23,9.03.66c2.34.41,3.68.97,3.68,1.53Zm-12.71,1.66c4.44,0,9.03-.62,9.03-1.66s-4.59-1.66-9.03-1.66-9.03.62-9.03,1.66,4.59,1.66,9.03,1.66Z"/>
      <path class="uuid-232248b7-d2f8-4bca-9699-ed1633bebbf0" d="m87.41,474.14c5.31,0,8.88.78,8.88,1.51s-3.57,1.51-8.88,1.51-8.88-.78-8.88-1.51,3.57-1.51,8.88-1.51Z"/>
      <path class="uuid-21e5dd11-37e6-40ce-87ed-b25095f03c87" d="m87.41,474.14c-5.31,0-8.88.78-8.88,1.51s3.57,1.51,8.88,1.51,8.88-.78,8.88-1.51-3.57-1.51-8.88-1.51Zm0,3.17c-4.44,0-9.03-.62-9.03-1.66s4.59-1.66,9.03-1.66,9.03.62,9.03,1.66-4.59,1.66-9.03,1.66Z"/>
      <path class="uuid-21e5dd11-37e6-40ce-87ed-b25095f03c87" d="m87.41,473.47c-3.41,0-6.62.23-9.03.66-2.34.41-3.68.97-3.68,1.53s1.34,1.11,3.68,1.53c2.41.43,5.62.66,9.03.66s6.62-.23,9.03-.66c2.34-.41,3.68-.97,3.68-1.53s-1.34-1.11-3.68-1.53c-2.41-.43-5.62-.66-9.03-.66Zm0,4.52c-6.53,0-11.78-.84-12.71-1.97v2.33c0,.56,1.34,1.11,3.68,1.53,2.41.43,5.62.66,9.03.66s6.62-.24,9.03-.66c2.34-.41,3.68-.97,3.68-1.53v-2.33c-.93,1.13-6.18,1.97-12.71,1.97Zm-12.86-2.33c0-1.31,5.65-2.33,12.86-2.33s12.86,1.03,12.86,2.33v2.69c0,1.31-5.65,2.34-12.86,2.34s-12.86-1.03-12.86-2.34v-2.69Z"/>
    </g>
    <g>
      <path class="uuid-ce11ca0b-83c5-453f-b604-cf811b2256e7" d="m102.57,472.79v2.33c0,.56-1.34,1.11-3.68,1.53-2.41.43-5.62.66-9.03.66s-6.62-.24-9.03-.66c-2.34-.41-3.68-.97-3.68-1.53v-2.33c.93,1.13,6.18,1.97,12.71,1.97s11.78-.84,12.71-1.97Z"/>
      <path class="uuid-ce11ca0b-83c5-453f-b604-cf811b2256e7" d="m102.57,472.43c0,.56-1.34,1.11-3.68,1.53-2.41.43-5.62.66-9.03.66s-6.62-.23-9.03-.66c-2.34-.41-3.68-.97-3.68-1.53s1.34-1.11,3.68-1.53c2.41-.43,5.62-.66,9.03-.66s6.62.23,9.03.66c2.34.41,3.68.97,3.68,1.53Zm-3.68,0c0-1.04-4.59-1.66-9.03-1.66s-9.03.62-9.03,1.66,4.59,1.66,9.03,1.66,9.03-.62,9.03-1.66Z"/>
      <path class="uuid-ce11ca0b-83c5-453f-b604-cf811b2256e7" d="m89.86,470.92c5.31,0,8.88.78,8.88,1.51s-3.57,1.51-8.88,1.51-8.88-.78-8.88-1.51,3.57-1.51,8.88-1.51Z"/>
      <path class="uuid-21e5dd11-37e6-40ce-87ed-b25095f03c87" d="m80.83,472.43c0-1.04,4.59-1.66,9.03-1.66s9.03.62,9.03,1.66-4.59,1.66-9.03,1.66-9.03-.62-9.03-1.66Zm.15,0c0,.73,3.57,1.51,8.88,1.51s8.88-.78,8.88-1.51-3.57-1.51-8.88-1.51-8.88.78-8.88,1.51Z"/>
      <path class="uuid-21e5dd11-37e6-40ce-87ed-b25095f03c87" d="m77,472.43c0-1.31,5.65-2.33,12.86-2.33s12.86,1.03,12.86,2.33v2.69c0,1.31-5.65,2.34-12.86,2.34s-12.86-1.03-12.86-2.34v-2.69Zm12.86-2.19c-3.41,0-6.62.23-9.03.66-2.34.41-3.68.97-3.68,1.53s1.34,1.11,3.68,1.53c2.41.43,5.62.66,9.03.66s6.62-.23,9.03-.66c2.34-.41,3.68-.97,3.68-1.53s-1.34-1.11-3.68-1.53c-2.41-.43-5.62-.66-9.03-.66Zm0,4.52c-6.53,0-11.78-.84-12.71-1.97v2.33c0,.56,1.34,1.11,3.68,1.53,2.41.43,5.62.66,9.03.66s6.62-.24,9.03-.66c2.34-.41,3.68-.97,3.68-1.53v-2.33c-.93,1.13-6.18,1.97-12.71,1.97Z"/>
    </g>
    <g>
      <path class="uuid-ce11ca0b-83c5-453f-b604-cf811b2256e7" d="m402.57,472.79v2.33c0,.56-1.34,1.11-3.68,1.53-2.41.43-5.62.66-9.03.66s-6.62-.24-9.03-.66c-2.34-.41-3.68-.97-3.68-1.53v-2.33c.93,1.13,6.18,1.97,12.71,1.97s11.78-.84,12.71-1.97Z"/>
      <path class="uuid-ce11ca0b-83c5-453f-b604-cf811b2256e7" d="m402.57,472.43c0,.56-1.34,1.11-3.68,1.53-2.41.43-5.62.66-9.03.66s-6.62-.23-9.03-.66c-2.34-.41-3.68-.97-3.68-1.53s1.34-1.11,3.68-1.53c2.41-.43,5.62-.66,9.03-.66s6.62.23,9.03.66c2.34.41,3.68.97,3.68,1.53Zm-3.68,0c0-1.04-4.59-1.66-9.03-1.66s-9.03.62-9.03,1.66,4.59,1.66,9.03,1.66,9.03-.62,9.03-1.66Z"/>
      <path class="uuid-232248b7-d2f8-4bca-9699-ed1633bebbf0" d="m389.86,470.92c5.31,0,8.88.78,8.88,1.51s-3.57,1.51-8.88,1.51-8.88-.78-8.88-1.51,3.57-1.51,8.88-1.51Z"/>
      <path class="uuid-21e5dd11-37e6-40ce-87ed-b25095f03c87" d="m389.86,470.92c-5.31,0-8.88.78-8.88,1.51s3.57,1.51,8.88,1.51,8.88-.78,8.88-1.51-3.57-1.51-8.88-1.51Zm-9.03,1.51c0-1.04,4.59-1.66,9.03-1.66s9.03.62,9.03,1.66-4.59,1.66-9.03,1.66-9.03-.62-9.03-1.66Z"/>
      <path class="uuid-21e5dd11-37e6-40ce-87ed-b25095f03c87" d="m377,472.43c0-1.31,5.65-2.33,12.86-2.33s12.86,1.03,12.86,2.33v2.69c0,1.31-5.65,2.34-12.86,2.34s-12.86-1.03-12.86-2.34v-2.69Zm12.86-2.19c-3.41,0-6.62.23-9.03.66-2.34.41-3.68.97-3.68,1.53s1.34,1.11,3.68,1.53c2.41.43,5.62.66,9.03.66s6.62-.23,9.03-.66c2.34-.41,3.68-.97,3.68-1.53s-1.34-1.11-3.68-1.53c-2.41-.43-5.62-.66-9.03-.66Zm12.71,2.55c-.93,1.13-6.18,1.97-12.71,1.97s-11.78-.84-12.71-1.97v2.33c0,.56,1.34,1.11,3.68,1.53,2.41.43,5.62.66,9.03.66s6.62-.24,9.03-.66c2.34-.41,3.68-.97,3.68-1.53v-2.33Z"/>
    </g>
    <g>
      <path class="uuid-ce11ca0b-83c5-453f-b604-cf811b2256e7" d="m406.57,469.79v2.33c0,.56-1.34,1.11-3.68,1.53-2.41.43-5.62.66-9.03.66s-6.62-.24-9.03-.66c-2.34-.41-3.68-.97-3.68-1.53v-2.33c.93,1.13,6.18,1.97,12.71,1.97s11.78-.84,12.71-1.97Z"/>
      <path class="uuid-ce11ca0b-83c5-453f-b604-cf811b2256e7" d="m406.57,469.43c0,.56-1.34,1.11-3.68,1.53-2.41.43-5.62.66-9.03.66s-6.62-.23-9.03-.66c-2.34-.41-3.68-.97-3.68-1.53s1.34-1.11,3.68-1.53c2.41-.43,5.62-.66,9.03-.66s6.62.23,9.03.66c2.34.41,3.68.97,3.68,1.53Zm-3.68,0c0-1.04-4.59-1.66-9.03-1.66s-9.03.62-9.03,1.66,4.59,1.66,9.03,1.66,9.03-.62,9.03-1.66Z"/>
      <path class="uuid-232248b7-d2f8-4bca-9699-ed1633bebbf0" d="m393.86,467.92c5.31,0,8.88.78,8.88,1.51s-3.57,1.51-8.88,1.51-8.88-.78-8.88-1.51,3.57-1.51,8.88-1.51Z"/>
      <path class="uuid-21e5dd11-37e6-40ce-87ed-b25095f03c87" d="m402.89,469.43c0,1.04-4.59,1.66-9.03,1.66s-9.03-.62-9.03-1.66,4.59-1.66,9.03-1.66,9.03.62,9.03,1.66Zm-.15,0c0-.73-3.57-1.51-8.88-1.51s-8.88.78-8.88,1.51,3.57,1.51,8.88,1.51,8.88-.78,8.88-1.51Z"/>
      <path class="uuid-21e5dd11-37e6-40ce-87ed-b25095f03c87" d="m384.83,473.65c2.41.43,5.62.66,9.03.66s6.62-.24,9.03-.66c2.34-.41,3.68-.97,3.68-1.53v-2.33c-.93,1.13-6.18,1.97-12.71,1.97s-11.78-.84-12.71-1.97v2.33c0,.56,1.34,1.11,3.68,1.53Zm9.03-6.41c-3.41,0-6.62.23-9.03.66-2.34.41-3.68.97-3.68,1.53s1.34,1.11,3.68,1.53c2.41.43,5.62.66,9.03.66s6.62-.23,9.03-.66c2.34-.41,3.68-.97,3.68-1.53s-1.34-1.11-3.68-1.53c-2.41-.43-5.62-.66-9.03-.66Zm-12.86,4.88v-2.69c0-1.31,5.65-2.33,12.86-2.33s12.86,1.03,12.86,2.33v2.69c0,1.31-5.65,2.34-12.86,2.34s-12.86-1.03-12.86-2.34Z"/>
    </g>
    <g>
      <path class="uuid-ce11ca0b-83c5-453f-b604-cf811b2256e7" d="m406.57,466.79v2.33c0,.56-1.34,1.11-3.68,1.53-2.41.43-5.62.66-9.03.66s-6.62-.24-9.03-.66c-2.34-.41-3.68-.97-3.68-1.53v-2.33c.93,1.13,6.18,1.97,12.71,1.97s11.78-.84,12.71-1.97Z"/>
      <path class="uuid-232248b7-d2f8-4bca-9699-ed1633bebbf0" d="m406.57,466.43c0,.56-1.34,1.11-3.68,1.53-2.41.43-5.62.66-9.03.66s-6.62-.23-9.03-.66c-2.34-.41-3.68-.97-3.68-1.53s1.34-1.11,3.68-1.53c2.41-.43,5.62-.66,9.03-.66s6.62.23,9.03.66c2.34.41,3.68.97,3.68,1.53Zm-3.68,0c0-1.04-4.59-1.66-9.03-1.66s-9.03.62-9.03,1.66,4.59,1.66,9.03,1.66,9.03-.62,9.03-1.66Z"/>
      <path class="uuid-232248b7-d2f8-4bca-9699-ed1633bebbf0" d="m393.86,464.92c5.31,0,8.88.78,8.88,1.51s-3.57,1.51-8.88,1.51-8.88-.78-8.88-1.51,3.57-1.51,8.88-1.51Z"/>
      <path class="uuid-21e5dd11-37e6-40ce-87ed-b25095f03c87" d="m402.74,466.43c0-.73-3.57-1.51-8.88-1.51s-8.88.78-8.88,1.51,3.57,1.51,8.88,1.51,8.88-.78,8.88-1.51Zm-8.88-1.66c4.44,0,9.03.62,9.03,1.66s-4.59,1.66-9.03,1.66-9.03-.62-9.03-1.66,4.59-1.66,9.03-1.66Z"/>
      <path class="uuid-21e5dd11-37e6-40ce-87ed-b25095f03c87" d="m381,466.43c0-1.31,5.65-2.33,12.86-2.33s12.86,1.03,12.86,2.33v2.69c0,1.31-5.65,2.34-12.86,2.34s-12.86-1.03-12.86-2.34v-2.69Zm.15,2.69c0,.56,1.34,1.11,3.68,1.53,2.41.43,5.62.66,9.03.66s6.62-.24,9.03-.66c2.34-.41,3.68-.97,3.68-1.53v-2.33c-.93,1.13-6.18,1.97-12.71,1.97s-11.78-.84-12.71-1.97v2.33Zm3.68-4.22c-2.34.41-3.68.97-3.68,1.53s1.34,1.11,3.68,1.53c2.41.43,5.62.66,9.03.66s6.62-.23,9.03-.66c2.34-.41,3.68-.97,3.68-1.53s-1.34-1.11-3.68-1.53c-2.41-.43-5.62-.66-9.03-.66s-6.62.23-9.03.66Z"/>
    </g>
    <g>
      <path class="uuid-ce11ca0b-83c5-453f-b604-cf811b2256e7" d="m402.57,463.79v2.33c0,.56-1.34,1.11-3.68,1.53-2.41.43-5.62.66-9.03.66s-6.62-.24-9.03-.66c-2.34-.41-3.68-.97-3.68-1.53v-2.33c.93,1.13,6.18,1.97,12.71,1.97s11.78-.84,12.71-1.97Z"/>
      <path class="uuid-ce11ca0b-83c5-453f-b604-cf811b2256e7" d="m402.57,463.43c0,.56-1.34,1.11-3.68,1.53-2.41.43-5.62.66-9.03.66s-6.62-.23-9.03-.66c-2.34-.41-3.68-.97-3.68-1.53s1.34-1.11,3.68-1.53c2.41-.43,5.62-.66,9.03-.66s6.62.23,9.03.66c2.34.41,3.68.97,3.68,1.53Zm-3.68,0c0-1.04-4.59-1.66-9.03-1.66s-9.03.62-9.03,1.66,4.59,1.66,9.03,1.66,9.03-.62,9.03-1.66Z"/>
      <path class="uuid-ce11ca0b-83c5-453f-b604-cf811b2256e7" d="m389.86,461.92c5.31,0,8.88.78,8.88,1.51s-3.57,1.51-8.88,1.51-8.88-.78-8.88-1.51,3.57-1.51,8.88-1.51Z"/>
      <path class="uuid-21e5dd11-37e6-40ce-87ed-b25095f03c87" d="m389.86,465.09c-4.44,0-9.03-.62-9.03-1.66s4.59-1.66,9.03-1.66,9.03.62,9.03,1.66-4.59,1.66-9.03,1.66Zm0-3.17c-5.31,0-8.88.78-8.88,1.51s3.57,1.51,8.88,1.51,8.88-.78,8.88-1.51-3.57-1.51-8.88-1.51Z"/>
      <path class="uuid-21e5dd11-37e6-40ce-87ed-b25095f03c87" d="m377,463.43c0-1.31,5.65-2.33,12.86-2.33s12.86,1.03,12.86,2.33v2.69c0,1.31-5.65,2.34-12.86,2.34s-12.86-1.03-12.86-2.34v-2.69Zm3.83,4.22c2.41.43,5.62.66,9.03.66s6.62-.24,9.03-.66c2.34-.41,3.68-.97,3.68-1.53v-2.33c-.93,1.13-6.18,1.97-12.71,1.97s-11.78-.84-12.71-1.97v2.33c0,.56,1.34,1.11,3.68,1.53Zm-3.68-4.22c0,.56,1.34,1.11,3.68,1.53,2.41.43,5.62.66,9.03.66s6.62-.23,9.03-.66c2.34-.41,3.68-.97,3.68-1.53s-1.34-1.11-3.68-1.53c-2.41-.43-5.62-.66-9.03-.66s-6.62.23-9.03.66c-2.34.41-3.68.97-3.68,1.53Z"/>
    </g>
    <g>
      <path class="uuid-ce11ca0b-83c5-453f-b604-cf811b2256e7" d="m389.57,451.79v2.33c0,.56-1.34,1.11-3.68,1.53-2.41.43-5.62.66-9.03.66s-6.62-.24-9.03-.66c-2.34-.41-3.68-.97-3.68-1.53v-2.33c.93,1.13,6.18,1.97,12.71,1.97s11.78-.84,12.71-1.97Z"/>
      <path class="uuid-ce11ca0b-83c5-453f-b604-cf811b2256e7" d="m389.57,451.43c0,.56-1.34,1.11-3.68,1.53-2.41.43-5.62.66-9.03.66s-6.62-.23-9.03-.66c-2.34-.41-3.68-.97-3.68-1.53s1.34-1.11,3.68-1.53c2.41-.43,5.62-.66,9.03-.66s6.62.23,9.03.66c2.34.41,3.68.97,3.68,1.53Zm-3.68,0c0-1.04-4.59-1.66-9.03-1.66s-9.03.62-9.03,1.66,4.59,1.66,9.03,1.66,9.03-.62,9.03-1.66Z"/>
      <path class="uuid-ce11ca0b-83c5-453f-b604-cf811b2256e7" d="m376.86,449.92c5.31,0,8.88.78,8.88,1.51s-3.57,1.51-8.88,1.51-8.88-.78-8.88-1.51,3.57-1.51,8.88-1.51Z"/>
      <path class="uuid-21e5dd11-37e6-40ce-87ed-b25095f03c87" d="m367.83,451.43c0-1.04,4.59-1.66,9.03-1.66s9.03.62,9.03,1.66-4.59,1.66-9.03,1.66-9.03-.62-9.03-1.66Zm.15,0c0,.73,3.57,1.51,8.88,1.51s8.88-.78,8.88-1.51-3.57-1.51-8.88-1.51-8.88.78-8.88,1.51Z"/>
      <path class="uuid-21e5dd11-37e6-40ce-87ed-b25095f03c87" d="m364,451.43c0-1.31,5.65-2.33,12.86-2.33s12.86,1.03,12.86,2.33v2.69c0,1.31-5.65,2.34-12.86,2.34s-12.86-1.03-12.86-2.34v-2.69Zm12.86,2.33c-6.53,0-11.78-.84-12.71-1.97v2.33c0,.56,1.34,1.11,3.68,1.53,2.41.43,5.62.66,9.03.66s6.62-.24,9.03-.66c2.34-.41,3.68-.97,3.68-1.53v-2.33c-.93,1.13-6.18,1.97-12.71,1.97Zm-9.03-.81c2.41.43,5.62.66,9.03.66s6.62-.23,9.03-.66c2.34-.41,3.68-.97,3.68-1.53s-1.34-1.11-3.68-1.53c-2.41-.43-5.62-.66-9.03-.66s-6.62.23-9.03.66c-2.34.41-3.68.97-3.68,1.53s1.34,1.11,3.68,1.53Z"/>
    </g>
    <g>
      <path class="uuid-ce11ca0b-83c5-453f-b604-cf811b2256e7" d="m423.57,480.79v2.33c0,.56-1.34,1.11-3.68,1.53-2.41.43-5.62.66-9.03.66s-6.62-.24-9.03-.66c-2.34-.41-3.68-.97-3.68-1.53v-2.33c.93,1.13,6.18,1.97,12.71,1.97s11.78-.84,12.71-1.97Z"/>
      <path class="uuid-ce11ca0b-83c5-453f-b604-cf811b2256e7" d="m423.57,480.43c0,.56-1.34,1.11-3.68,1.53-2.41.43-5.62.66-9.03.66s-6.62-.23-9.03-.66c-2.34-.41-3.68-.97-3.68-1.53s1.34-1.11,3.68-1.53c2.41-.43,5.62-.66,9.03-.66s6.62.23,9.03.66c2.34.41,3.68.97,3.68,1.53Zm-3.68,0c0-1.04-4.59-1.66-9.03-1.66s-9.03.62-9.03,1.66,4.59,1.66,9.03,1.66,9.03-.62,9.03-1.66Z"/>
      <path class="uuid-232248b7-d2f8-4bca-9699-ed1633bebbf0" d="m410.86,478.92c5.31,0,8.88.78,8.88,1.51s-3.57,1.51-8.88,1.51-8.88-.78-8.88-1.51,3.57-1.51,8.88-1.51Z"/>
      <path class="uuid-21e5dd11-37e6-40ce-87ed-b25095f03c87" d="m410.86,478.92c-5.31,0-8.88.78-8.88,1.51s3.57,1.51,8.88,1.51,8.88-.78,8.88-1.51-3.57-1.51-8.88-1.51Zm-9.03,1.51c0-1.04,4.59-1.66,9.03-1.66s9.03.62,9.03,1.66-4.59,1.66-9.03,1.66-9.03-.62-9.03-1.66Z"/>
      <path class="uuid-21e5dd11-37e6-40ce-87ed-b25095f03c87" d="m398,480.43c0-1.31,5.65-2.33,12.86-2.33s12.86,1.03,12.86,2.33v2.69c0,1.31-5.65,2.34-12.86,2.34s-12.86-1.03-12.86-2.34v-2.69Zm12.86-2.19c-3.41,0-6.62.23-9.03.66-2.34.41-3.68.97-3.68,1.53s1.34,1.11,3.68,1.53c2.41.43,5.62.66,9.03.66s6.62-.23,9.03-.66c2.34-.41,3.68-.97,3.68-1.53s-1.34-1.11-3.68-1.53c-2.41-.43-5.62-.66-9.03-.66Zm0,4.52c-6.53,0-11.78-.84-12.71-1.97v2.33c0,.56,1.34,1.11,3.68,1.53,2.41.43,5.62.66,9.03.66s6.62-.24,9.03-.66c2.34-.41,3.68-.97,3.68-1.53v-2.33c-.93,1.13-6.18,1.97-12.71,1.97Z"/>
    </g>
    <g>
      <path class="uuid-ce11ca0b-83c5-453f-b604-cf811b2256e7" d="m424.57,477.79v2.33c0,.56-1.34,1.11-3.68,1.53-2.41.43-5.62.66-9.03.66s-6.62-.24-9.03-.66c-2.34-.41-3.68-.97-3.68-1.53v-2.33c.93,1.13,6.18,1.97,12.71,1.97s11.78-.84,12.71-1.97Z"/>
      <path class="uuid-ce11ca0b-83c5-453f-b604-cf811b2256e7" d="m424.57,477.43c0,.56-1.34,1.11-3.68,1.53-2.41.43-5.62.66-9.03.66s-6.62-.23-9.03-.66c-2.34-.41-3.68-.97-3.68-1.53s1.34-1.11,3.68-1.53c2.41-.43,5.62-.66,9.03-.66s6.62.23,9.03.66c2.34.41,3.68.97,3.68,1.53Zm-3.68,0c0-1.04-4.59-1.66-9.03-1.66s-9.03.62-9.03,1.66,4.59,1.66,9.03,1.66,9.03-.62,9.03-1.66Z"/>
      <path class="uuid-232248b7-d2f8-4bca-9699-ed1633bebbf0" d="m411.86,475.92c5.31,0,8.88.78,8.88,1.51s-3.57,1.51-8.88,1.51-8.88-.78-8.88-1.51,3.57-1.51,8.88-1.51Z"/>
      <path class="uuid-21e5dd11-37e6-40ce-87ed-b25095f03c87" d="m420.89,477.43c0,1.04-4.59,1.66-9.03,1.66s-9.03-.62-9.03-1.66,4.59-1.66,9.03-1.66,9.03.62,9.03,1.66Zm-.15,0c0-.73-3.57-1.51-8.88-1.51s-8.88.78-8.88,1.51,3.57,1.51,8.88,1.51,8.88-.78,8.88-1.51Z"/>
      <path class="uuid-21e5dd11-37e6-40ce-87ed-b25095f03c87" d="m411.86,482.46c-7.21,0-12.86-1.03-12.86-2.34v-2.69c0-1.31,5.65-2.33,12.86-2.33s12.86,1.03,12.86,2.33v2.69c0,1.31-5.65,2.34-12.86,2.34Zm-9.03-.81c2.41.43,5.62.66,9.03.66s6.62-.24,9.03-.66c2.34-.41,3.68-.97,3.68-1.53v-2.33c-.93,1.13-6.18,1.97-12.71,1.97s-11.78-.84-12.71-1.97v2.33c0,.56,1.34,1.11,3.68,1.53Zm9.03-6.41c-3.41,0-6.62.23-9.03.66-2.34.41-3.68.97-3.68,1.53s1.34,1.11,3.68,1.53c2.41.43,5.62.66,9.03.66s6.62-.23,9.03-.66c2.34-.41,3.68-.97,3.68-1.53s-1.34-1.11-3.68-1.53c-2.41-.43-5.62-.66-9.03-.66Z"/>
    </g>
    <g>
      <path class="uuid-ce11ca0b-83c5-453f-b604-cf811b2256e7" d="m426.57,474.79v2.33c0,.56-1.34,1.11-3.68,1.53-2.41.43-5.62.66-9.03.66s-6.62-.24-9.03-.66c-2.34-.41-3.68-.97-3.68-1.53v-2.33c.93,1.13,6.18,1.97,12.71,1.97s11.78-.84,12.71-1.97Z"/>
      <path class="uuid-ce11ca0b-83c5-453f-b604-cf811b2256e7" d="m426.57,474.43c0,.56-1.34,1.11-3.68,1.53-2.41.43-5.62.66-9.03.66s-6.62-.23-9.03-.66c-2.34-.41-3.68-.97-3.68-1.53s1.34-1.11,3.68-1.53c2.41-.43,5.62-.66,9.03-.66s6.62.23,9.03.66c2.34.41,3.68.97,3.68,1.53Zm-3.68,0c0-1.04-4.59-1.66-9.03-1.66s-9.03.62-9.03,1.66,4.59,1.66,9.03,1.66,9.03-.62,9.03-1.66Z"/>
      <path class="uuid-232248b7-d2f8-4bca-9699-ed1633bebbf0" d="m413.86,472.92c5.31,0,8.88.78,8.88,1.51s-3.57,1.51-8.88,1.51-8.88-.78-8.88-1.51,3.57-1.51,8.88-1.51Z"/>
      <path class="uuid-21e5dd11-37e6-40ce-87ed-b25095f03c87" d="m413.86,472.77c4.44,0,9.03.62,9.03,1.66s-4.59,1.66-9.03,1.66-9.03-.62-9.03-1.66,4.59-1.66,9.03-1.66Zm0,3.17c5.31,0,8.88-.78,8.88-1.51s-3.57-1.51-8.88-1.51-8.88.78-8.88,1.51,3.57,1.51,8.88,1.51Z"/>
      <path class="uuid-21e5dd11-37e6-40ce-87ed-b25095f03c87" d="m413.86,476.62c3.41,0,6.62-.23,9.03-.66,2.34-.41,3.68-.97,3.68-1.53s-1.34-1.11-3.68-1.53c-2.41-.43-5.62-.66-9.03-.66s-6.62.23-9.03.66c-2.34.41-3.68.97-3.68,1.53s1.34,1.11,3.68,1.53c2.41.43,5.62.66,9.03.66Zm0,2.69c3.41,0,6.62-.24,9.03-.66,2.34-.41,3.68-.97,3.68-1.53v-2.33c-.93,1.13-6.18,1.97-12.71,1.97s-11.78-.84-12.71-1.97v2.33c0,.56,1.34,1.11,3.68,1.53,2.41.43,5.62.66,9.03.66Zm-12.86-4.88c0-1.31,5.65-2.33,12.86-2.33s12.86,1.03,12.86,2.33v2.69c0,1.31-5.65,2.34-12.86,2.34s-12.86-1.03-12.86-2.34v-2.69Z"/>
    </g>
    <g>
      <path class="uuid-ce11ca0b-83c5-453f-b604-cf811b2256e7" d="m426.57,471.79v2.33c0,.56-1.34,1.11-3.68,1.53-2.41.43-5.62.66-9.03.66s-6.62-.24-9.03-.66c-2.34-.41-3.68-.97-3.68-1.53v-2.33c.93,1.13,6.18,1.97,12.71,1.97s11.78-.84,12.71-1.97Z"/>
      <path class="uuid-ce11ca0b-83c5-453f-b604-cf811b2256e7" d="m426.57,471.43c0,.56-1.34,1.11-3.68,1.53-2.41.43-5.62.66-9.03.66s-6.62-.23-9.03-.66c-2.34-.41-3.68-.97-3.68-1.53s1.34-1.11,3.68-1.53c2.41-.43,5.62-.66,9.03-.66s6.62.23,9.03.66c2.34.41,3.68.97,3.68,1.53Zm-3.68,0c0-1.04-4.59-1.66-9.03-1.66s-9.03.62-9.03,1.66,4.59,1.66,9.03,1.66,9.03-.62,9.03-1.66Z"/>
      <path class="uuid-ce11ca0b-83c5-453f-b604-cf811b2256e7" d="m413.86,469.92c5.31,0,8.88.78,8.88,1.51s-3.57,1.51-8.88,1.51-8.88-.78-8.88-1.51,3.57-1.51,8.88-1.51Z"/>
      <path class="uuid-21e5dd11-37e6-40ce-87ed-b25095f03c87" d="m422.74,471.43c0-.73-3.57-1.51-8.88-1.51s-8.88.78-8.88,1.51,3.57,1.51,8.88,1.51,8.88-.78,8.88-1.51Zm-8.88-1.66c4.44,0,9.03.62,9.03,1.66s-4.59,1.66-9.03,1.66-9.03-.62-9.03-1.66,4.59-1.66,9.03-1.66Z"/>
      <path class="uuid-21e5dd11-37e6-40ce-87ed-b25095f03c87" d="m401,471.43c0-1.31,5.65-2.33,12.86-2.33s12.86,1.03,12.86,2.33v2.69c0,1.31-5.65,2.34-12.86,2.34s-12.86-1.03-12.86-2.34v-2.69Zm3.83-1.53c-2.34.41-3.68.97-3.68,1.53s1.34,1.11,3.68,1.53c2.41.43,5.62.66,9.03.66s6.62-.23,9.03-.66c2.34-.41,3.68-.97,3.68-1.53s-1.34-1.11-3.68-1.53c-2.41-.43-5.62-.66-9.03-.66s-6.62.23-9.03.66Zm9.03,3.86c-6.53,0-11.78-.84-12.71-1.97v2.33c0,.56,1.34,1.11,3.68,1.53,2.41.43,5.62.66,9.03.66s6.62-.24,9.03-.66c2.34-.41,3.68-.97,3.68-1.53v-2.33c-.93,1.13-6.18,1.97-12.71,1.97Z"/>
    </g>
    <g>
      <path class="uuid-ce11ca0b-83c5-453f-b604-cf811b2256e7" d="m430.57,468.79v2.33c0,.56-1.34,1.11-3.68,1.53-2.41.43-5.62.66-9.03.66s-6.62-.24-9.03-.66c-2.34-.41-3.68-.97-3.68-1.53v-2.33c.93,1.13,6.18,1.97,12.71,1.97s11.78-.84,12.71-1.97Z"/>
      <path class="uuid-ce11ca0b-83c5-453f-b604-cf811b2256e7" d="m430.57,468.43c0,.56-1.34,1.11-3.68,1.53-2.41.43-5.62.66-9.03.66s-6.62-.23-9.03-.66c-2.34-.41-3.68-.97-3.68-1.53s1.34-1.11,3.68-1.53c2.41-.43,5.62-.66,9.03-.66s6.62.23,9.03.66c2.34.41,3.68.97,3.68,1.53Zm-3.68,0c0-1.04-4.59-1.66-9.03-1.66s-9.03.62-9.03,1.66,4.59,1.66,9.03,1.66,9.03-.62,9.03-1.66Z"/>
      <path class="uuid-ce11ca0b-83c5-453f-b604-cf811b2256e7" d="m417.86,466.92c5.31,0,8.88.78,8.88,1.51s-3.57,1.51-8.88,1.51-8.88-.78-8.88-1.51,3.57-1.51,8.88-1.51Z"/>
      <path class="uuid-21e5dd11-37e6-40ce-87ed-b25095f03c87" d="m417.86,470.09c-4.44,0-9.03-.62-9.03-1.66s4.59-1.66,9.03-1.66,9.03.62,9.03,1.66-4.59,1.66-9.03,1.66Zm0-3.17c-5.31,0-8.88.78-8.88,1.51s3.57,1.51,8.88,1.51,8.88-.78,8.88-1.51-3.57-1.51-8.88-1.51Z"/>
      <path class="uuid-21e5dd11-37e6-40ce-87ed-b25095f03c87" d="m405,468.43c0-1.31,5.65-2.33,12.86-2.33s12.86,1.03,12.86,2.33v2.69c0,1.31-5.65,2.34-12.86,2.34s-12.86-1.03-12.86-2.34v-2.69Zm3.83,4.22c2.41.43,5.62.66,9.03.66s6.62-.24,9.03-.66c2.34-.41,3.68-.97,3.68-1.53v-2.33c-.93,1.13-6.18,1.97-12.71,1.97s-11.78-.84-12.71-1.97v2.33c0,.56,1.34,1.11,3.68,1.53Zm-3.68-4.22c0,.56,1.34,1.11,3.68,1.53,2.41.43,5.62.66,9.03.66s6.62-.23,9.03-.66c2.34-.41,3.68-.97,3.68-1.53s-1.34-1.11-3.68-1.53c-2.41-.43-5.62-.66-9.03-.66s-6.62.23-9.03.66c-2.34.41-3.68.97-3.68,1.53Z"/>
    </g>
  </g>
  <path class="uuid-21e5dd11-37e6-40ce-87ed-b25095f03c87" d="m314.87,377.13h-90.44c-.21,0-.38-.17-.38-.38s.17-.38.38-.38h90.44c.21,0,.38.17.38.38s-.17.38-.38.38Z"/>
</svg>