<?xml version="1.0" encoding="UTF-8"?>
<svg xmlns="http://www.w3.org/2000/svg" viewBox="0 0 485.18 363.88">
  <defs>
    <style>
      .uuid-5cbc23ad-6c88-4b90-a5be-b6c2e02e55ad {
        fill: none;
        stroke: #7fb9f2;
        stroke-linecap: round;
        stroke-linejoin: round;
        stroke-width: .75px;
      }

      .uuid-af99ca66-0c2b-4a5f-8faa-338630a2716c {
        fill: #474747;
      }

      .uuid-af99ca66-0c2b-4a5f-8faa-338630a2716c, .uuid-b1744dc8-234e-43ea-a0e5-39d2cdea5188, .uuid-9789c8eb-94e7-4eea-991c-bc27f0794e35, .uuid-2a89d0a2-d851-4977-8265-22397c290f0a, .uuid-51a6e2f1-16ec-437d-adff-de73c1d94410, .uuid-28dfdc72-5c4d-4ba2-85bc-7935fb88313b, .uuid-ff041dd8-ffa7-4124-9946-87679cb7cf86, .uuid-dad503de-03a2-4468-8167-23deb3cc64ba {
        stroke-width: 0px;
      }

      .uuid-b1744dc8-234e-43ea-a0e5-39d2cdea5188 {
        fill: #7fb9f2;
      }

      .uuid-9789c8eb-94e7-4eea-991c-bc27f0794e35 {
        fill: #459af0;
      }

      .uuid-2a89d0a2-d851-4977-8265-22397c290f0a {
        fill: #40c767;
      }

      .uuid-51a6e2f1-16ec-437d-adff-de73c1d94410 {
        fill: #bad6f3;
      }

      .uuid-28dfdc72-5c4d-4ba2-85bc-7935fb88313b {
        fill: #333;
      }

      .uuid-ff041dd8-ffa7-4124-9946-87679cb7cf86 {
        fill: #7fb8f1;
      }

      .uuid-dad503de-03a2-4468-8167-23deb3cc64ba {
        fill: #f4f4f4;
      }
    </style>
  </defs>
  <g id="uuid-23792659-89d4-45a4-afa4-5a574a203f43" data-name="Capa 2">
    <g>
      <path class="uuid-af99ca66-0c2b-4a5f-8faa-338630a2716c" d="m203.74,123.38v182.14c0,.19-.15.34-.34.34H63.53c-.19,0-.35-.15-.35-.34v-159.11s.02-.09.03-.13c0-.02.03-.04.04-.06.02-.02.03-.04.04-.06l23.02-23.02s.03-.02.05-.03c.02-.02.05-.04.06-.05.05-.02.09-.03.14-.03h116.84c.19,0,.34.16.34.34Zm-.69,181.79V123.73h-116.15v22.67c0,.19-.15.35-.34.35h-22.68v158.41h139.17Zm-116.84-159.11v-21.84l-21.83,21.84h21.83Z"/>
      <path class="uuid-dad503de-03a2-4468-8167-23deb3cc64ba" d="m203.04,123.73v181.44H63.87v-158.41h22.68c.19,0,.34-.16.34-.35v-22.67h116.15Zm-17.02,159.25v-13.3c0-.19-.16-.34-.34-.34h-33.21c-.18,0-.34.15-.34.34v13.3c0,.18.16.34.34.34h33.21c.18,0,.34-.16.34-.34Zm-5.03-88.91c0-.19-.16-.34-.35-.34h-23.13c-.19,0-.35.15-.35.34s.16.35.35.35h23.13c.19,0,.35-.16.35-.35Zm0,16.8c0-.19-.16-.34-.35-.34h-23.13c-.19,0-.35.15-.35.34s.16.35.35.35h23.13c.19,0,.35-.16.35-.35Zm0,7.16c0-.19-.16-.34-.35-.34h-23.13c-.19,0-.35.15-.35.34s.16.35.35.35h23.13c.19,0,.35-.16.35-.35Zm0,6.92c0-.18-.16-.34-.35-.34h-23.13c-.19,0-.35.16-.35.34,0,.19.16.35.35.35h23.13c.19,0,.35-.16.35-.35Zm0,7.17c0-.19-.16-.35-.35-.35h-23.13c-.19,0-.35.16-.35.35s.16.34.35.34h23.13c.19,0,.35-.16.35-.34Zm0,16c0-.19-.16-.35-.35-.35h-23.13c-.19,0-.35.16-.35.35s.16.34.35.34h23.13c.19,0,.35-.16.35-.34Zm0,7.16c0-.19-.16-.35-.35-.35h-23.13c-.19,0-.35.16-.35.35s.16.34.35.34h23.13c.19,0,.35-.16.35-.34Zm-.06-92.91c0-.18-.16-.34-.35-.34h-89.81c-.19,0-.35.16-.35.34,0,.19.16.35.35.35h89.81c.19,0,.35-.16.35-.35Zm0,7.76c0-.19-.16-.35-.35-.35h-89.81c-.19,0-.35.16-.35.35s.16.34.35.34h89.81c.19,0,.35-.16.35-.34Zm-32.29,112.87v-13.3c0-.19-.16-.34-.34-.34h-22.53c-.19,0-.35.15-.35.34v13.3c0,.18.16.34.35.34h22.53c.18,0,.34-.16.34-.34Zm-2.55-88.91c0-.19-.16-.34-.34-.34h-17.43c-.19,0-.35.15-.35.34s.16.35.35.35h17.43c.18,0,.34-.16.34-.35Zm0,16.8c0-.19-.16-.34-.34-.34h-17.43c-.19,0-.35.15-.35.34s.16.35.35.35h17.43c.18,0,.34-.16.34-.35Zm0,7.16c0-.19-.16-.34-.34-.34h-17.43c-.19,0-.35.15-.35.34s.16.35.35.35h17.43c.18,0,.34-.16.34-.35Zm0,6.92c0-.18-.16-.34-.34-.34h-17.43c-.19,0-.35.16-.35.34,0,.19.16.35.35.35h17.43c.18,0,.34-.16.34-.35Zm0,7.17c0-.19-.16-.35-.34-.35h-17.43c-.19,0-.35.16-.35.35s.16.34.35.34h17.43c.18,0,.34-.16.34-.34Zm0,16c0-.19-.16-.35-.34-.35h-17.43c-.19,0-.35.16-.35.35s.16.34.35.34h17.43c.18,0,.34-.16.34-.34Zm0,7.16c0-.19-.16-.35-.34-.35h-17.43c-.19,0-.35.16-.35.35s.16.34.35.34h17.43c.18,0,.34-.16.34-.34Zm-24.07,27.71v-13.3c0-.19-.16-.34-.34-.34h-37.61c-.19,0-.34.15-.34.34v13.3c0,.18.15.34.34.34h37.61c.18,0,.34-.16.34-.34Zm-2.12-88.91c0-.19-.16-.34-.35-.34h-33.34c-.19,0-.35.15-.35.34s.16.35.35.35h33.34c.19,0,.35-.16.35-.35Zm0,16.8c0-.19-.16-.34-.35-.34h-33.34c-.19,0-.35.15-.35.34s.16.35.35.35h33.34c.19,0,.35-.16.35-.35Zm0,7.16c0-.19-.16-.34-.35-.34h-33.34c-.19,0-.35.15-.35.34s.16.35.35.35h33.34c.19,0,.35-.16.35-.35Zm0,6.92c0-.18-.16-.34-.35-.34h-33.34c-.19,0-.35.16-.35.34,0,.19.16.35.35.35h33.34c.19,0,.35-.16.35-.35Zm0,7.17c0-.19-.16-.35-.35-.35h-33.34c-.19,0-.35.16-.35.35s.16.34.35.34h33.34c.19,0,.35-.16.35-.34Zm0,16c0-.19-.16-.35-.35-.35h-33.34c-.19,0-.35.16-.35.35s.16.34.35.34h33.34c.19,0,.35-.16.35-.34Zm0,7.16c0-.19-.16-.35-.35-.35h-33.34c-.19,0-.35.16-.35.35s.16.34.35.34h33.34c.19,0,.35-.16.35-.34Z"/>
      <path class="uuid-af99ca66-0c2b-4a5f-8faa-338630a2716c" d="m186.02,269.69v13.3c0,.18-.16.34-.34.34h-33.21c-.18,0-.34-.16-.34-.34v-13.3c0-.19.16-.34.34-.34h33.21c.18,0,.34.15.34.34Zm-.69,12.95v-12.6h-32.51v12.6h32.51Z"/>
      <rect class="uuid-9789c8eb-94e7-4eea-991c-bc27f0794e35" x="152.83" y="270.04" width="32.51" height="12.6"/>
      <path class="uuid-af99ca66-0c2b-4a5f-8faa-338630a2716c" d="m180.65,193.73c.19,0,.35.15.35.34s-.16.35-.35.35h-23.13c-.19,0-.35-.16-.35-.35s.16-.34.35-.34h23.13Z"/>
      <path class="uuid-af99ca66-0c2b-4a5f-8faa-338630a2716c" d="m180.65,210.53c.19,0,.35.15.35.34s-.16.35-.35.35h-23.13c-.19,0-.35-.16-.35-.35s.16-.34.35-.34h23.13Z"/>
      <path class="uuid-af99ca66-0c2b-4a5f-8faa-338630a2716c" d="m180.65,217.69c.19,0,.35.15.35.34s-.16.35-.35.35h-23.13c-.19,0-.35-.16-.35-.35s.16-.34.35-.34h23.13Z"/>
      <path class="uuid-af99ca66-0c2b-4a5f-8faa-338630a2716c" d="m180.65,224.61c.19,0,.35.16.35.34,0,.19-.16.35-.35.35h-23.13c-.19,0-.35-.16-.35-.35s.16-.34.35-.34h23.13Z"/>
      <path class="uuid-af99ca66-0c2b-4a5f-8faa-338630a2716c" d="m180.65,231.77c.19,0,.35.16.35.35s-.16.34-.35.34h-23.13c-.19,0-.35-.16-.35-.34,0-.19.16-.35.35-.35h23.13Z"/>
      <path class="uuid-af99ca66-0c2b-4a5f-8faa-338630a2716c" d="m180.65,247.77c.19,0,.35.16.35.35s-.16.34-.35.34h-23.13c-.19,0-.35-.16-.35-.34,0-.19.16-.35.35-.35h23.13Z"/>
      <path class="uuid-af99ca66-0c2b-4a5f-8faa-338630a2716c" d="m180.65,254.93c.19,0,.35.16.35.35s-.16.34-.35.34h-23.13c-.19,0-.35-.16-.35-.34,0-.19.16-.35.35-.35h23.13Z"/>
      <path class="uuid-af99ca66-0c2b-4a5f-8faa-338630a2716c" d="m180.58,162.02c.19,0,.35.16.35.34,0,.19-.16.35-.35.35h-89.81c-.19,0-.35-.16-.35-.35s.16-.34.35-.34h89.81Z"/>
      <path class="uuid-af99ca66-0c2b-4a5f-8faa-338630a2716c" d="m180.58,169.77c.19,0,.35.16.35.35s-.16.34-.35.34h-89.81c-.19,0-.35-.16-.35-.34,0-.19.16-.35.35-.35h89.81Z"/>
      <path class="uuid-af99ca66-0c2b-4a5f-8faa-338630a2716c" d="m148.64,269.69v13.3c0,.18-.16.34-.34.34h-22.53c-.19,0-.35-.16-.35-.34v-13.3c0-.19.16-.34.35-.34h22.53c.18,0,.34.15.34.34Zm-.69,12.95v-12.6h-21.83v12.6h21.83Z"/>
      <rect class="uuid-9789c8eb-94e7-4eea-991c-bc27f0794e35" x="126.11" y="270.04" width="21.83" height="12.6"/>
      <path class="uuid-af99ca66-0c2b-4a5f-8faa-338630a2716c" d="m145.75,193.73c.18,0,.34.15.34.34s-.16.35-.34.35h-17.43c-.19,0-.35-.16-.35-.35s.16-.34.35-.34h17.43Z"/>
      <path class="uuid-af99ca66-0c2b-4a5f-8faa-338630a2716c" d="m145.75,210.53c.18,0,.34.15.34.34s-.16.35-.34.35h-17.43c-.19,0-.35-.16-.35-.35s.16-.34.35-.34h17.43Z"/>
      <path class="uuid-af99ca66-0c2b-4a5f-8faa-338630a2716c" d="m145.75,217.69c.18,0,.34.15.34.34s-.16.35-.34.35h-17.43c-.19,0-.35-.16-.35-.35s.16-.34.35-.34h17.43Z"/>
      <path class="uuid-af99ca66-0c2b-4a5f-8faa-338630a2716c" d="m145.75,224.61c.18,0,.34.16.34.34,0,.19-.16.35-.34.35h-17.43c-.19,0-.35-.16-.35-.35s.16-.34.35-.34h17.43Z"/>
      <path class="uuid-af99ca66-0c2b-4a5f-8faa-338630a2716c" d="m145.75,231.77c.18,0,.34.16.34.35s-.16.34-.34.34h-17.43c-.19,0-.35-.16-.35-.34,0-.19.16-.35.35-.35h17.43Z"/>
      <path class="uuid-af99ca66-0c2b-4a5f-8faa-338630a2716c" d="m145.75,247.77c.18,0,.34.16.34.35s-.16.34-.34.34h-17.43c-.19,0-.35-.16-.35-.34,0-.19.16-.35.35-.35h17.43Z"/>
      <path class="uuid-af99ca66-0c2b-4a5f-8faa-338630a2716c" d="m145.75,254.93c.18,0,.34.16.34.35s-.16.34-.34.34h-17.43c-.19,0-.35-.16-.35-.34,0-.19.16-.35.35-.35h17.43Z"/>
      <path class="uuid-af99ca66-0c2b-4a5f-8faa-338630a2716c" d="m122.02,269.69v13.3c0,.18-.16.34-.34.34h-37.61c-.19,0-.34-.16-.34-.34v-13.3c0-.19.15-.34.34-.34h37.61c.18,0,.34.15.34.34Zm-.69,12.95v-12.6h-36.91v12.6h36.91Z"/>
      <rect class="uuid-9789c8eb-94e7-4eea-991c-bc27f0794e35" x="84.42" y="270.04" width="36.91" height="12.6"/>
      <path class="uuid-af99ca66-0c2b-4a5f-8faa-338630a2716c" d="m119.55,193.73c.19,0,.35.15.35.34s-.16.35-.35.35h-33.34c-.19,0-.35-.16-.35-.35s.16-.34.35-.34h33.34Z"/>
      <path class="uuid-af99ca66-0c2b-4a5f-8faa-338630a2716c" d="m119.55,210.53c.19,0,.35.15.35.34s-.16.35-.35.35h-33.34c-.19,0-.35-.16-.35-.35s.16-.34.35-.34h33.34Z"/>
      <path class="uuid-af99ca66-0c2b-4a5f-8faa-338630a2716c" d="m119.55,217.69c.19,0,.35.15.35.34s-.16.35-.35.35h-33.34c-.19,0-.35-.16-.35-.35s.16-.34.35-.34h33.34Z"/>
      <path class="uuid-af99ca66-0c2b-4a5f-8faa-338630a2716c" d="m119.55,224.61c.19,0,.35.16.35.34,0,.19-.16.35-.35.35h-33.34c-.19,0-.35-.16-.35-.35s.16-.34.35-.34h33.34Z"/>
      <path class="uuid-af99ca66-0c2b-4a5f-8faa-338630a2716c" d="m119.55,231.77c.19,0,.35.16.35.35s-.16.34-.35.34h-33.34c-.19,0-.35-.16-.35-.34,0-.19.16-.35.35-.35h33.34Z"/>
      <path class="uuid-af99ca66-0c2b-4a5f-8faa-338630a2716c" d="m119.55,247.77c.19,0,.35.16.35.35s-.16.34-.35.34h-33.34c-.19,0-.35-.16-.35-.34,0-.19.16-.35.35-.35h33.34Z"/>
      <path class="uuid-af99ca66-0c2b-4a5f-8faa-338630a2716c" d="m119.55,254.93c.19,0,.35.16.35.35s-.16.34-.35.34h-33.34c-.19,0-.35-.16-.35-.34,0-.19.16-.35.35-.35h33.34Z"/>
      <polygon class="uuid-af99ca66-0c2b-4a5f-8faa-338630a2716c" points="86.2 124.22 86.2 146.06 64.37 146.06 86.2 124.22"/>
    </g>
    <g>
      <path class="uuid-b1744dc8-234e-43ea-a0e5-39d2cdea5188" d="m363.5,312.92c.24,2.04-.42,4.1-1.79,5.63-1.37,1.54-3.33,2.42-5.4,2.42h-132.33c-3.68,0-6.77-2.76-7.19-6.41l-27.78-244.04c-.24-2.04.42-4.1,1.79-5.64,1.37-1.53,3.33-2.42,5.4-2.42h132.33c3.68,0,6.77,2.76,7.19,6.42l27.78,244.04Zm-8.17-1.33c1.5-1.68,2.22-3.92,1.97-6.16l-25.52-229.18c-.45-4.02-3.84-7.06-7.88-7.06h-120.81c-2.25,0-4.4.97-5.9,2.65s-2.22,3.92-1.97,6.16l25.52,229.18c.45,4.02,3.84,7.06,7.88,7.06h120.81c2.25,0,4.4-.97,5.9-2.65Z"/>
      <path class="uuid-51a6e2f1-16ec-437d-adff-de73c1d94410" d="m334.67,300.56c0-.19-.15-.35-.34-.35h-88.8c-.19,0-.34.16-.34.35s.15.34.34.34h88.8c.19,0,.34-.15.34-.34Zm21.93,4.95c.23,2.04-.42,4.09-1.8,5.62-1.37,1.53-3.33,2.42-5.39,2.42h-120.81c-3.69,0-6.78-2.77-7.19-6.44l-25.52-229.19c-.23-2.04.42-4.09,1.8-5.62s3.34-2.42,5.39-2.42h120.81c3.69,0,6.78,2.77,7.19,6.44l25.52,229.19Zm-58.19-71.12c21.93-8.86,31.93-35.5,22.29-59.41-9.65-23.9-35.35-36.15-57.29-27.28-21.93,8.86-31.92,35.5-22.28,59.41,7.52,18.62,24.78,30.17,42.42,30.17,4.99,0,10.02-.93,14.86-2.89Z"/>
      <path class="uuid-2a89d0a2-d851-4977-8265-22397c290f0a" d="m319.84,175.33c9.46,23.43-.3,49.54-21.77,58.21-21.46,8.66-46.63-3.35-56.08-26.79-9.46-23.43.3-49.54,21.77-58.21,4.73-1.91,9.64-2.81,14.52-2.81,17.27,0,34.19,11.33,41.56,29.6Zm-21.65-.4c.58-1.16.68-2.49.27-3.73s-1.28-2.24-2.45-2.82c-2.41-1.21-5.35-.23-6.55,2.19l-14.57,29.13-5.94-2.97c-2.41-1.21-5.35-.23-6.55,2.19-.59,1.16-.68,2.49-.27,3.73s1.28,2.24,2.44,2.83l10.31,5.15c.69.35,1.42.52,2.19.52,1.86,0,3.53-1.03,4.37-2.7l16.75-33.5Z"/>
      <path class="uuid-28dfdc72-5c4d-4ba2-85bc-7935fb88313b" d="m298.46,171.21c.42,1.24.31,2.56-.27,3.73l-16.75,33.5c-.84,1.67-2.51,2.7-4.37,2.7-.77,0-1.49-.17-2.19-.52l-10.31-5.15c-1.16-.59-2.03-1.6-2.44-2.83s-.32-2.56.27-3.73c1.2-2.42,4.14-3.39,6.55-2.19l5.94,2.97,14.57-29.13c1.2-2.42,4.14-3.39,6.55-2.19,1.17.58,2.04,1.59,2.45,2.82Z"/>
      <path class="uuid-28dfdc72-5c4d-4ba2-85bc-7935fb88313b" d="m334.33,300.21c.19,0,.34.16.34.35s-.15.34-.34.34h-88.8c-.19,0-.34-.15-.34-.34s.15-.35.34-.35h88.8Z"/>
      <path class="uuid-28dfdc72-5c4d-4ba2-85bc-7935fb88313b" d="m320.7,174.98c9.65,23.91-.35,50.56-22.29,59.41-4.84,1.96-9.87,2.89-14.86,2.89-17.64,0-34.9-11.55-42.42-30.17-9.65-23.91.34-50.56,22.28-59.41,21.94-8.86,47.64,3.39,57.29,27.28Zm-22.63,58.56c21.46-8.67,31.23-34.78,21.77-58.21-7.37-18.27-24.3-29.6-41.56-29.6-4.88,0-9.79.9-14.52,2.81-21.46,8.67-31.23,34.78-21.77,58.21,9.45,23.44,34.62,35.45,56.08,26.79Z"/>
      <path class="uuid-af99ca66-0c2b-4a5f-8faa-338630a2716c" d="m220.76,320.96h-7.85c-3.68,0-6.77-2.76-7.19-6.41l-27.78-244.04c-.24-2.04.42-4.1,1.79-5.64,1.37-1.53,3.33-2.42,5.4-2.42h7.83c-1.01.45-1.93,1.12-2.67,1.96-1.5,1.68-2.22,3.93-1.96,6.17l27.79,244.03c.32,2.88,2.16,5.23,4.65,6.34Z"/>
      <path class="uuid-af99ca66-0c2b-4a5f-8faa-338630a2716c" d="m203.09,69.88c-2.05,0-4.01.89-5.39,2.42s-2.03,3.58-1.8,5.62l25.52,229.19c.41,3.67,3.5,6.44,7.19,6.44h120.81c2.06,0,4.02-.89,5.39-2.42,1.37-1.53,2.03-3.58,1.8-5.62l-25.52-229.19c-.41-3.67-3.5-6.44-7.19-6.44h-120.81Zm154.21,235.54c.25,2.24-.47,4.48-1.97,6.16s-3.65,2.65-5.9,2.65h-120.81c-4.04,0-7.43-3.03-7.88-7.06l-25.52-229.18c-.25-2.24.47-4.48,1.97-6.16s3.65-2.65,5.9-2.65h120.81c4.04,0,7.43,3.03,7.88,7.06l25.52,229.18Z"/>
      <path class="uuid-af99ca66-0c2b-4a5f-8faa-338630a2716c" d="m185.13,62.46c-2.07,0-4.03.89-5.4,2.42-1.37,1.54-2.03,3.6-1.79,5.64l27.78,244.04c.42,3.65,3.51,6.41,7.19,6.41h7.85c-2.49-1.11-4.33-3.46-4.65-6.34l-27.79-244.03c-.26-2.24.46-4.49,1.96-6.17.75-.85,1.66-1.51,2.67-1.96h-7.83Zm150.58,6.42c-.42-3.66-3.51-6.42-7.19-6.42h-132.33c-2.07,0-4.03.89-5.4,2.42-1.37,1.54-2.03,3.6-1.79,5.64l27.78,244.04c.42,3.65,3.51,6.41,7.19,6.41h132.33c2.07,0,4.03-.88,5.4-2.42,1.37-1.53,2.03-3.59,1.79-5.63l-27.78-244.04Zm-122.8,252.78c-4.03,0-7.42-3.02-7.87-7.03l-27.79-244.03c-.26-2.24.46-4.49,1.96-6.17,1.49-1.69,3.65-2.66,5.91-2.66h143.4c4.03,0,7.42,3.03,7.87,7.03l27.79,244.04c.26,2.24-.46,4.49-1.96,6.17-1.49,1.69-3.65,2.65-5.91,2.65h-143.4Z"/>
    </g>
    <g>
      <path class="uuid-af99ca66-0c2b-4a5f-8faa-338630a2716c" d="m449.37,211.25c.17.06.28.22.24.41-.03.16-.18.28-.34.28h-.04l-76.09-8.59c-60.96-11.89-61.54-55.82-62.05-94.59-.11-7.92-.21-15.41-.78-22.59-1.13-14.14-5.73-25.53-13.69-34h-.08c-6.09,0-10.78,5.21-12.58,10.07-.05.14-.18.22-.32.22h-70.1c-.12,0-.24-.06-.3-.17-.12-.2-.07-.29.46-1.26.15-.27.36-.65.42-.79,0-.04,0-.07.03-.12,14.86-30.23,45.96-25.94,46.47-25.86h.04c1.86.21,80.06,9.04,80.87,9.12,25.45,2.88,38.34,25.81,43.77,39.22,5.47,13.53,7.08,28.03,7.93,40.43.12,1.71.22,3.4.32,5.09.7,11.58,1.37,22.51,6.58,33.32,4.68,9.71,22.05,42.02,49.26,49.82Zm-76.13-8.59l72.69,8.2c-25.62-9.38-41.93-39.74-46.45-49.13-5.27-10.94-5.93-21.93-6.63-33.58-.11-1.69-.21-3.39-.32-5.09-.86-12.34-2.45-26.77-7.89-40.22-5.37-13.27-18.12-35.96-43.21-38.79-2.6-.3-51.22-5.77-71.81-8.1,7.3,1.95,14.33,5.22,20.42,9.54,12.47,8.86,19.52,22.52,20.96,40.6.57,7.19.67,14.69.78,22.64.26,19.72.53,40.12,8.28,57.24,8.8,19.43,26.2,31.43,53.18,36.68Zm-77.23-151.16c-1.94-1.97-4.06-3.79-6.37-5.43-8.46-6-18.78-9.96-29.07-11.12h-.05c-.3-.06-31.02-4.37-45.71,25.4-.04.17-.18.42-.51,1.01-.06.12-.15.28-.22.41h69.32c1.89-4.87,6.56-9.98,12.62-10.27Z"/>
      <path class="uuid-dad503de-03a2-4468-8167-23deb3cc64ba" d="m445.94,210.86l-72.69-8.2c-26.98-5.26-44.38-17.26-53.18-36.68-7.76-17.12-8.02-37.51-8.28-57.24-.11-7.94-.21-15.44-.78-22.64-1.44-18.09-8.49-31.75-20.96-40.6-6.09-4.32-13.13-7.59-20.42-9.54,20.59,2.32,69.21,7.8,71.81,8.1,25.1,2.83,37.85,25.51,43.21,38.79,5.43,13.45,7.03,27.88,7.89,40.22.11,1.71.21,3.4.32,5.09.7,11.64,1.37,22.64,6.63,33.58,4.52,9.39,20.84,39.75,46.45,49.13Zm-23.56-9.86c.02-.19-.12-.36-.31-.38l-54.34-5.2c-.2-.02-.36.12-.38.31-.02.18.12.36.3.38l54.35,5.19s.02,0,.03,0c.18,0,.33-.14.35-.31Zm-5.36-5.78c.02-.19-.12-.36-.31-.38l-58.81-5.2c-.2,0-.36.13-.38.31-.02.19.12.36.31.38l58.81,5.2h.04c.18,0,.32-.14.34-.31Zm-7.63-5.78c0-.19-.13-.36-.32-.38l-60.41-5.2c-.18-.02-.35.13-.37.32-.02.18.12.35.31.37l60.41,5.2h.03c.18,0,.33-.14.35-.31Zm-6.8-6.63c.02-.18-.13-.35-.31-.37l-61.74-5.2c-.21-.02-.36.13-.37.31-.02.19.12.36.31.38l61.73,5.2h.04c.18,0,.32-.14.34-.32Zm-4.76-6.62c.02-.18-.13-.36-.31-.37l-61.74-5.2c-.21-.02-.36.13-.37.31-.02.19.12.36.31.38l61.73,5.19s.03,0,.04,0c.18,0,.32-.14.34-.32Zm-5.44-6.62c.02-.19-.12-.36-.31-.38l-61.74-5.19c-.2-.02-.35.12-.37.31-.02.18.12.36.31.37l61.74,5.2h.03c.18,0,.33-.14.34-.31Zm-3.32-6.55c.02-.19-.13-.36-.31-.38l-61.74-5.2c-.19-.02-.35.13-.37.32-.02.18.12.35.31.37l61.74,5.2h.03c.18,0,.32-.14.34-.31Zm-2.12-37.29c.02-.18-.12-.36-.31-.37l-63.38-5.2c-.18-.02-.36.13-.37.31-.02.19.12.36.31.38l63.38,5.2h.03c.18,0,.33-.14.34-.32Zm-3.15-27.16c.02-.19-.13-.36-.31-.38l-63.38-5.19c-.19-.02-.36.12-.38.31s.13.36.31.37l63.39,5.2h.03c.18,0,.32-.13.34-.31Zm-1.34-6.53c.02-.19-.13-.36-.32-.38l-63.38-5.19c-.18-.02-.35.12-.37.31s.13.36.31.37l63.38,5.2h.03c.18,0,.33-.14.35-.31Zm-.56-6.53c.02-.19-.12-.36-.31-.38l-63.38-5.19c-.18-.02-.36.12-.38.31,0,.18.13.36.32.37l63.38,5.2h.03c.18,0,.33-.14.34-.31Zm-3.97-6.53c.02-.19-.12-.36-.31-.38l-60.64-5.2c-.18-.02-.36.13-.37.32-.02.18.12.35.31.37l60.64,5.2h.03c.18,0,.32-.14.34-.31Zm-1.94-6.53c.02-.19-.12-.36-.31-.38l-62.88-5.2c-.21-.02-.36.13-.38.32,0,.18.13.35.32.37l62.88,5.2h.03c.18,0,.33-.14.34-.31Zm-3.74-6.54c0-.18-.13-.35-.31-.37l-62.79-5.2c-.2-.02-.36.13-.38.32,0,.18.13.35.32.37l62.78,5.2h.03c.18,0,.33-.14.35-.32Zm-8.03-7.42c0-.19-.13-.36-.32-.38l-59.73-5.19c-.18-.02-.35.12-.37.31-.02.18.12.36.31.37l59.73,5.2h.03c.18,0,.33-.13.35-.31Zm-7.62-6.77c.02-.18-.12-.36-.31-.37l-58.39-5.2c-.19-.02-.36.12-.37.31-.02.18.12.36.31.37l58.39,5.2h.03c.18,0,.33-.13.34-.31Z"/>
      <path class="uuid-af99ca66-0c2b-4a5f-8faa-338630a2716c" d="m422.07,200.62c.19.02.33.18.31.38-.02.18-.17.31-.35.31,0,0-.02,0-.03,0l-54.35-5.19c-.18-.02-.32-.19-.3-.38.02-.19.18-.33.38-.31l54.34,5.2Z"/>
      <path class="uuid-af99ca66-0c2b-4a5f-8faa-338630a2716c" d="m416.71,194.84c.19.02.33.18.31.38-.02.18-.17.31-.34.31h-.04l-58.81-5.2c-.19-.02-.33-.18-.31-.38.02-.18.18-.32.38-.31l58.81,5.2Z"/>
      <path class="uuid-af99ca66-0c2b-4a5f-8faa-338630a2716c" d="m409.07,189.06c.19.02.33.18.32.38-.02.18-.17.31-.35.31h-.03l-60.41-5.2c-.19-.02-.33-.18-.31-.37.02-.19.18-.34.37-.32l60.41,5.2Z"/>
      <path class="uuid-af99ca66-0c2b-4a5f-8faa-338630a2716c" d="m402.28,182.43c.18.02.33.18.31.37s-.17.32-.34.32h-.04l-61.73-5.2c-.19-.02-.33-.18-.31-.38,0-.18.16-.33.37-.31l61.74,5.2Z"/>
      <path class="uuid-af99ca66-0c2b-4a5f-8faa-338630a2716c" d="m397.52,175.81c.18,0,.33.18.31.37s-.17.32-.34.32c0,0-.02,0-.04,0l-61.73-5.19c-.19-.02-.33-.18-.31-.38,0-.18.16-.33.37-.31l61.74,5.2Z"/>
      <path class="uuid-af99ca66-0c2b-4a5f-8faa-338630a2716c" d="m392.08,169.18c.19.02.33.18.31.38,0,.18-.17.31-.34.31h-.03l-61.74-5.2c-.19,0-.33-.18-.31-.37.02-.19.17-.33.37-.31l61.74,5.19Z"/>
      <path class="uuid-af99ca66-0c2b-4a5f-8faa-338630a2716c" d="m388.76,162.63c.18.02.33.18.31.38-.02.18-.17.31-.34.31h-.03l-61.74-5.2c-.19-.02-.33-.18-.31-.37.02-.19.18-.34.37-.32l61.74,5.2Z"/>
      <path class="uuid-af99ca66-0c2b-4a5f-8faa-338630a2716c" d="m386.64,125.35c.19,0,.33.18.31.37,0,.18-.17.32-.34.32h-.03l-63.38-5.2c-.19-.02-.33-.18-.31-.38,0-.18.18-.33.37-.31l63.38,5.2Z"/>
      <path class="uuid-af99ca66-0c2b-4a5f-8faa-338630a2716c" d="m383.48,98.18c.18.02.33.18.31.38-.02.18-.17.31-.34.31h-.03l-63.39-5.2c-.18,0-.33-.18-.31-.37s.18-.33.38-.31l63.38,5.19Z"/>
      <path class="uuid-af99ca66-0c2b-4a5f-8faa-338630a2716c" d="m382.14,91.65c.19.02.34.18.32.38-.02.18-.17.31-.35.31h-.03l-63.38-5.2c-.18,0-.33-.18-.31-.37s.19-.33.37-.31l63.38,5.19Z"/>
      <path class="uuid-af99ca66-0c2b-4a5f-8faa-338630a2716c" d="m381.58,85.12c.19.02.33.18.31.38,0,.18-.17.31-.34.31h-.03l-63.38-5.2c-.19,0-.33-.18-.32-.37.02-.19.19-.33.38-.31l63.38,5.19Z"/>
      <path class="uuid-af99ca66-0c2b-4a5f-8faa-338630a2716c" d="m377.62,78.59c.19.02.33.18.31.38-.02.18-.17.31-.34.31h-.03l-60.64-5.2c-.19-.02-.33-.18-.31-.37,0-.19.18-.34.37-.32l60.64,5.2Z"/>
      <path class="uuid-af99ca66-0c2b-4a5f-8faa-338630a2716c" d="m375.68,72.06c.19.02.33.18.31.38,0,.18-.17.31-.34.31h-.03l-62.88-5.2c-.19-.02-.33-.18-.32-.37.02-.19.17-.34.38-.32l62.88,5.2Z"/>
      <path class="uuid-af99ca66-0c2b-4a5f-8faa-338630a2716c" d="m371.94,65.53c.18.02.32.18.31.37-.02.18-.17.32-.35.32h-.03l-62.78-5.2c-.19-.02-.33-.18-.32-.37.02-.19.18-.34.38-.32l62.79,5.2Z"/>
      <path class="uuid-af99ca66-0c2b-4a5f-8faa-338630a2716c" d="m363.9,58.1c.19.02.33.18.32.38-.02.18-.18.31-.35.31h-.03l-59.73-5.2c-.19,0-.33-.18-.31-.37.02-.19.18-.33.37-.31l59.73,5.19Z"/>
      <path class="uuid-af99ca66-0c2b-4a5f-8faa-338630a2716c" d="m356.29,51.34c.19,0,.33.18.31.37,0,.18-.17.31-.34.31h-.03l-58.39-5.2c-.19,0-.33-.18-.31-.37,0-.19.18-.33.37-.31l58.39,5.2Z"/>
      <path class="uuid-af99ca66-0c2b-4a5f-8faa-338630a2716c" d="m289.64,46.07c2.32,1.64,4.44,3.46,6.37,5.43-6.06.29-10.73,5.4-12.62,10.27h-69.32c.07-.13.16-.29.22-.41.32-.59.47-.85.51-1.01,14.69-29.78,45.41-25.46,45.71-25.41h0s.02,0,.04,0c10.29,1.16,20.62,5.12,29.07,11.12Z"/>
    </g>
  </g>
  <g id="uuid-9d204542-ccaf-4cfd-a764-6860e252a298" data-name="Capa 1">
    <g>
      <g>
        <path class="uuid-af99ca66-0c2b-4a5f-8faa-338630a2716c" d="m390.01,332.98c.24,1.01-.4,1.61-.43,1.63-.06.06-.14.08-.22.08h-22.49c-.09,0-.17-.04-.23-.1-.06-.06-.09-.15-.09-.24l.42-10.82c0-.17.14-.3.31-.31l7.75-.34c.16-.01.28.09.32.23l.8,2.72c8.52,2.35,13.31,4.81,13.86,7.14Zm-.79,1.06c.11-.14.28-.46.16-.94-.28-1.12-2.19-3.35-11.58-6.13-1.96.4-3.75.53-5.28.53-2.48,0-4.27-.36-5.03-.54l-.28,7.07h22.01Zm-12.85-7.47c-.19-.05-.37-.1-.57-.16-.11-.03-.19-.12-.23-.22l-.77-2.65-7.2.31-.09,2.46c.91.23,4.32.94,8.86.26Z"/>
        <path class="uuid-af99ca66-0c2b-4a5f-8faa-338630a2716c" d="m389.38,333.11c.12.47-.05.79-.16.94h-22.01l.28-7.07c.76.18,2.55.54,5.03.54,1.53,0,3.31-.14,5.28-.53,9.39,2.78,11.3,5.01,11.58,6.13Z"/>
        <path class="uuid-dad503de-03a2-4468-8167-23deb3cc64ba" d="m375.81,326.42c.19.05.38.1.57.16-4.53.68-7.95-.04-8.86-.26l.09-2.46,7.2-.31.77,2.65c.03.11.12.19.23.22Z"/>
        <path class="uuid-af99ca66-0c2b-4a5f-8faa-338630a2716c" d="m356.3,334.35c0,.09-.03.17-.09.24-.06.06-.15.1-.24.1h-22.49c-.08,0-.16-.03-.21-.08-.03-.02-.67-.61-.43-1.63.55-2.33,5.34-4.79,13.86-7.14l.8-2.72c.04-.14.17-.25.32-.23l7.75.34c.17,0,.3.14.31.31l.42,10.82Zm-.66-.31l-.28-7.07c-.76.18-2.55.54-5.03.54-1.53,0-3.31-.14-5.28-.53-9.39,2.78-11.3,5.01-11.58,6.13-.12.47.05.79.16.94h22Zm-.3-7.73l-.09-2.46-7.2-.31-.78,2.65c-.03.11-.12.19-.22.22-.19.05-.38.1-.57.16,4.53.68,7.95-.04,8.86-.26Z"/>
        <path class="uuid-af99ca66-0c2b-4a5f-8faa-338630a2716c" d="m355.37,326.97l.28,7.07h-22c-.11-.15-.28-.46-.16-.94.28-1.12,2.19-3.35,11.58-6.13,1.96.4,3.75.53,5.28.53,2.48,0,4.27-.36,5.03-.54Z"/>
        <path class="uuid-dad503de-03a2-4468-8167-23deb3cc64ba" d="m355.25,323.85l.09,2.46c-.91.23-4.32.94-8.86.26.19-.05.37-.1.57-.16.11-.03.19-.12.22-.22l.78-2.65,7.2.31Z"/>
      </g>
      <path class="uuid-dad503de-03a2-4468-8167-23deb3cc64ba" d="m343.47,329c-.08,0-.16-.03-.22-.09-.43-.39-.92-.7-1.46-.92-.17-.07-.25-.25-.18-.42.07-.17.25-.25.42-.18.61.24,1.17.59,1.65,1.04.13.12.14.33.02.46-.06.07-.15.1-.24.1Z"/>
      <path class="uuid-dad503de-03a2-4468-8167-23deb3cc64ba" d="m341.52,329.76c-.09,0-.17-.03-.24-.1-.4-.42-.84-.79-1.32-1.11-.15-.1-.19-.3-.09-.45.1-.15.3-.19.45-.09.52.34,1,.75,1.43,1.2.12.13.12.33-.01.46-.06.06-.14.09-.22.09Z"/>
      <path class="uuid-dad503de-03a2-4468-8167-23deb3cc64ba" d="m379.39,329c-.09,0-.17-.04-.24-.1-.12-.13-.11-.34.02-.46.49-.45,1.04-.8,1.65-1.04.17-.07.35.01.42.18.07.17-.01.35-.18.42-.54.21-1.03.52-1.46.92-.06.06-.14.09-.22.09Z"/>
      <path class="uuid-dad503de-03a2-4468-8167-23deb3cc64ba" d="m381.33,329.76c-.08,0-.16-.03-.22-.09-.13-.12-.14-.33-.01-.46.43-.45.91-.86,1.43-1.2.15-.1.35-.06.45.09.1.15.06.35-.09.45-.48.32-.92.69-1.32,1.11-.06.07-.15.1-.24.1Z"/>
      <polygon class="uuid-af99ca66-0c2b-4a5f-8faa-338630a2716c" points="363.58 218.36 366.44 324.61 375.89 324.61 379.05 209.08 343.81 209.08 346.97 324.61 356.42 324.61 359.28 218.36 363.58 218.36"/>
      <g>
        <path class="uuid-af99ca66-0c2b-4a5f-8faa-338630a2716c" d="m391.36,173.71c0,.08-.02.17-.07.24-.06.06-.13.11-.22.11-1.64.14-3.25.21-4.76.21-1.67,0-3.23-.08-4.62-.25l-1.03,13.2c0,.09-.05.17-.12.22.23,2.53.44,5.03.64,7.47.22,2.61.46,5.26.7,7.82.49,5.33,1,10.84,1.27,16.26.02.44.05.88.08,1.33.1,1.54.2,3.14.07,4.68-.01.17-.16.3-.32.3h-42.72c-.17,0-.31-.13-.32-.3-.12-1.54-.03-3.14.07-4.68.03-.44.06-.89.08-1.32.28-5.42.78-10.94,1.27-16.26.23-2.57.48-5.22.69-7.82.2-2.41.38-4.53.55-6.49-.07-.06-.12-.13-.13-.23l-1.01-14.21c-2.71.35-6.14.39-9.72.08-.09,0-.17-.05-.22-.11-.06-.07-.08-.16-.07-.24.2-2.04,2.01-19.98,4.09-21.65,1.28-1.03,4.23-1.68,10.78-2.84.37-.06.78-.14,1.22-.21l-.02-.33c0-.09.03-.18.09-.25.06-.06.16-.1.25-.09l2.62.17c2.21-.38,4.36-.76,5.32-.95h0v-4.19c-1.27-.84-2.52-1.95-3.72-3.35-2.44-2.83-4.63-6.68-6.17-10.87-.37-.58-.67-1.19-.91-1.82-.18.1-.39.16-.59.18-.05,0-.09,0-.14,0-.42,0-.87-.16-1.3-.46-1.51-1.07-1.89-3.13-2.05-4.58-.07-.64-.12-1.32.05-1.99.19-.78.68-1.4,1.29-1.67.06-.02.11-.04.17-.06v-.04c-.59-3.26.72-6.27,1.93-8.22,2.06-3.34,4.61-6.02,7.44-7.87-.07-.08-.15-.16-.21-.24-1.65-2.04-2.01-5.07-.91-7.73.96-2.33,2.94-4.31,5.57-5.58,3.32-1.59,7.2-1.76,10.4-.46,3.4,1.39,5.98,4.52,6.58,7.95.32,1.88.02,3.63-.85,4.92-.27.4-.61.77-1.01,1.12,2.95,1.84,5.59,4.51,7.68,7.89,1.2,1.95,2.52,4.96,1.93,8.24l-.1.38c.39.33.68.81.82,1.37.17.68.12,1.36.05,1.99-.15,1.46-.53,3.51-2.05,4.58-.43.3-.88.46-1.3.46-.05,0-.09,0-.14,0-.28-.02-.55-.13-.77-.29-.3.76-.64,1.54-1.01,2.37-.04.08-.1.14-.18.17-1.98,5.11-5.37,10.76-9.6,13.58v4.21c.93.19,3.18.56,5.35.92.14.02.29.05.43.07.06-.03.13-.05.19-.03l2.82.54c.36.06.7.12,1,.17,6.56,1.17,9.51,1.82,10.78,2.84,2.07,1.67,3.89,19.61,4.09,21.65Zm-.68-.27c-.79-7.91-2.42-19.76-3.82-20.88-1.16-.93-4.17-1.59-10.49-2.71-.2-.04-.42-.07-.64-.11l-.74,12.65h2.16s.04,0,.06,0c.14.02.25.13.27.27l.02.12c.61,3.8,1.01,6.33,1.17,7.52.62,4.68,1.13,9.35,1.57,13.94l.81-10.3s-.03,0-.04,0c-.01,0-.02,0-.03,0-.01,0-.02,0-.04,0h0c-.18,0-.32-.15-.32-.33l.23-10.4c0-.18.16-.33.33-.32.18,0,.32.15.32.33l-.22,10.1c2.6.36,5.93.4,9.42.13Zm-8.02,51.21c.09-1.4,0-2.87-.09-4.29-.03-.45-.06-.89-.08-1.34-.27-5.41-.78-10.91-1.27-16.24-.24-2.57-.48-5.22-.7-7.83-.64-7.82-1.39-16.21-2.51-24.58-.16-1.17-.54-3.64-1.14-7.35-.22,0-.55,0-1.02,0h-.9l-.11,1.79c0,.17-.15.3-.32.3h-2.85c-.09,0-.17-.04-.24-.1s-.09-.15-.09-.24l.1-1.75h-19.56l.11,1.75c0,.09-.03.18-.09.24-.06.06-.15.1-.24.1h-2.85c-.17,0-.31-.13-.32-.3l-.11-1.8h-1.05c-.47,0-.8,0-1.02,0-.6,3.71-.98,6.18-1.14,7.35-.52,3.9-.99,8.06-1.45,12.74-.34,3.42-.66,7.08-1.06,11.84-.21,2.61-.46,5.26-.69,7.83-.49,5.32-1,10.83-1.27,16.24-.02.44-.05.89-.08,1.33-.09,1.42-.18,2.89-.09,4.29h42.12Zm-1.56-102.35c.06-.56.1-1.15-.04-1.7-.14-.58-.49-1.04-.93-1.23-.03-.01-.06-.02-.09-.03-.09-.03-.19-.04-.28-.05-.12.79-.33,1.98-.6,3.07.34-.15.68-.29,1.03-.42.17-.06.35.03.41.2.01.04.02.07.02.11,0,.14-.08.26-.22.3-.51.17-1,.39-1.48.64-.32,1.04-.71,2.16-1.18,3.36.13.16.34.27.56.28.39.03.77-.17,1.02-.34,1.28-.91,1.62-2.68,1.78-4.12,0-.03,0-.05,0-.07Zm-.76-3.74c.55-3.05-.7-5.9-1.85-7.76-2.11-3.42-4.81-6.09-7.81-7.89-.03-.01-.05-.03-.07-.05-4.13-2.45-8.84-3.24-13.39-2.04-4.74,1.26-9.1,4.8-12.3,9.97-1.15,1.85-2.4,4.71-1.84,7.79v.06c.39.03.76.18,1.02.45.02.01.03.03.05.05,0,0,.01,0,.02.02,0,0,0,0,0,0,.02.02.03.04.04.07,0,.02.02.04.02.06,0,0,0,0,0,.02.1.7.18,1.42.26,2.11.28,2.47.57,5.01,1.82,7.12.13-.25.1-.83.09-1.11v-.12c-.04-.78-.15-1.57-.26-2.33-.07-.5-.14-1.03-.19-1.55-.16-1.58-.03-2.9.4-4.03.03-.06.07-.12.13-.16,1.71-1.12,3.27-2.88,4.92-5.54.08-.14.25-.19.4-.13.15.06.23.22.19.37-.49,2.1-1.21,3.67-2.3,4.94,2.6-.49,4.96-2.1,6.97-3.66,1.42-1.11,2.98-2.47,3.79-4.17.06-.12.17-.18.31-.18.13,0,.24.09.28.22.37,1.1.96,2.13,1.72,2.98-.18-.74-.23-1.51-.28-2.27l-.02-.33c0-.15.09-.29.24-.33.15-.04.3.02.38.16.83,1.58,2.32,2.87,3.68,3.93,2,1.56,4.36,3.18,6.97,3.66-1.09-1.27-1.81-2.83-2.3-4.94-.04-.16.05-.31.19-.37s.31,0,.4.13c1.65,2.66,3.22,4.42,4.93,5.54.06.04.1.09.12.16.43,1.13.56,2.44.4,4.03-.11,1.13-.61,2.6-1.02,3.77-.07.22-.15.43-.21.62-.23.68-.23,1-.2,1.14,1.03-2.34,1.79-4.35,2.33-6.14.39-1.3.67-3,.8-3.9,0,0,0,0,0-.01,0-.02.02-.04.02-.06,0-.02.02-.04.03-.06,0-.01.02-.02.03-.03.02-.02.04-.04.06-.06,0,0,.02,0,.03-.02.03-.01.06-.03.09-.03,0,0,0,0,0,0,.28-.05.56-.03.82.06.02,0,.03.01.05.02l.05-.18Zm-3.53,4.82c.14-1.43.04-2.62-.32-3.63-1.33-.89-2.56-2.13-3.81-3.85.52,1.31,1.21,2.34,2.13,3.22.1.09.13.24.07.37-.06.13-.18.2-.32.19-3.13-.26-5.9-2.13-8.2-3.92-1.09-.85-2.26-1.84-3.15-3.03.08.86.23,1.68.65,2.43.07.13.05.3-.07.4-.12.1-.29.1-.41,0-1.15-.92-2.08-2.17-2.68-3.57-.91,1.52-2.33,2.75-3.63,3.76-2.3,1.79-5.08,3.66-8.2,3.92-.14,0-.27-.06-.32-.19-.06-.12-.03-.27.07-.37.92-.88,1.61-1.91,2.13-3.22-1.25,1.72-2.48,2.96-3.81,3.85-.36,1.01-.47,2.2-.32,3.63.05.51.12,1.03.19,1.52.11.78.22,1.59.26,2.39v.11c.03.53.07,1.42-.42,1.77,2.89,7.67,8.48,15.32,14.59,15.32,4.02,0,10.18-3.92,14.44-14.91-.05-.04-.09-.08-.12-.12-.25-.34-.22-.93.08-1.83.06-.2.14-.41.21-.63.39-1.15.88-2.57.98-3.63Zm-2.47,39.09l.75-12.85c-.68-.11-1.42-.24-2.18-.37l-.78,13.43s0,0,0,.02c0,0,0,.02,0,.03l-.1,1.75h2.2l.09-1.57c-.04-.06-.07-.12-.07-.2,0-.09.04-.17.1-.23Zm-2.5-61.39c.78-1.15,1.04-2.73.75-4.45-.56-3.22-2.99-6.15-6.19-7.46-3.03-1.24-6.72-1.07-9.87.44-2.49,1.19-4.35,3.06-5.25,5.24-1.01,2.44-.69,5.22.82,7.08.08.1.17.2.27.3,1.5-.91,3.07-1.6,4.69-2.03,4.67-1.24,9.49-.45,13.73,2.01.43-.35.79-.73,1.06-1.13Zm-.34,61.3l.77-13.23c-.11-.02-.22-.04-.33-.06-2.18-.36-4.25-.71-5.24-.9v.35c0,.06-.02.12-.05.17-.07.12-1.87,2.95-5.27,3.01h-.12c-3.48,0-5.32-2.88-5.4-3.01-.03-.05-.05-.11-.05-.17v-.35c-.94.19-2.8.51-4.76.85l.82,13.33h19.64Zm-5.45-13.93v-4.72c-1.52.89-3.13,1.41-4.83,1.41-1.58,0-3.18-.48-4.77-1.39v4.7c.3.43,1.96,2.63,4.8,2.63h.1c2.8-.06,4.39-2.19,4.69-2.63Zm-14.71,16.03l-.94-15.32c-.17.03-.34.06-.51.09-.58.1-1.14.2-1.68.29l.92,14.94h2.2Zm-2.98-2.1l-.79-12.74c-.41.07-.8.14-1.15.2-6.32,1.12-9.33,1.78-10.49,2.71-1.39,1.12-3.03,12.97-3.82,20.88,3.5.28,6.83.23,9.44-.13l-.24-10.1c0-.18.14-.33.31-.33.18,0,.33.14.33.31l.25,10.4c0,.1-.05.19-.12.25l.8,11.26c.06-.7.13-1.38.2-2.05.46-4.68.94-8.86,1.46-12.76.16-1.19.55-3.72,1.17-7.52l.02-.12c.02-.14.13-.25.27-.27.02,0,.04,0,.06,0h2.3Zm-3.99-35.54c.15-.01.3-.07.42-.16-.36-1.11-.57-2.28-.73-3.45-.5-.26-1.02-.49-1.55-.67-.12-.04-.19-.14-.21-.25,0-.05,0-.11.01-.16.06-.17.25-.26.41-.2.42.15.84.32,1.24.51-.04-.32-.07-.63-.11-.95-.07-.65-.15-1.33-.24-1.98-.27-.24-.72-.31-1.08-.15-.44.19-.78.65-.93,1.23-.14.57-.09,1.19-.03,1.77.15,1.44.49,3.21,1.78,4.12.25.17.62.37,1.02.34Z"/>
        <path class="uuid-9789c8eb-94e7-4eea-991c-bc27f0794e35" d="m386.87,152.57c1.39,1.12,3.03,12.97,3.82,20.88-3.49.28-6.82.23-9.42-.13l.22-10.1c0-.18-.14-.33-.32-.33-.17,0-.33.14-.33.32l-.23,10.4c0,.18.14.33.32.33h0s.02,0,.04,0c.01,0,.02,0,.03,0,.01,0,.03,0,.04,0l-.81,10.3c-.44-4.59-.95-9.26-1.57-13.94-.16-1.19-.55-3.72-1.17-7.52l-.02-.12c-.02-.14-.13-.25-.27-.27-.02,0-.04,0-.06,0h-2.16l.74-12.65c.23.04.45.08.64.11,6.32,1.12,9.33,1.78,10.49,2.71Z"/>
        <path class="uuid-ff041dd8-ffa7-4124-9946-87679cb7cf86" d="m382.58,220.37c.09,1.42.18,2.89.09,4.29h-42.12c-.09-1.4,0-2.87.09-4.29.03-.45.06-.89.08-1.33.27-5.41.78-10.91,1.27-16.24.24-2.57.48-5.22.69-7.83.39-4.76.72-8.42,1.06-11.84.46-4.68.94-8.84,1.45-12.74.16-1.17.54-3.64,1.14-7.35.23,0,.55,0,1.02,0h1.05l.11,1.8c0,.17.15.3.32.3h2.85c.09,0,.17-.04.24-.1.06-.06.09-.15.09-.24l-.11-1.75h19.56l-.1,1.75c0,.09.03.18.09.24s.15.1.24.1h2.85c.17,0,.31-.13.32-.3l.11-1.79h.9c.47,0,.8,0,1.02,0,.6,3.71.99,6.18,1.14,7.35,1.12,8.37,1.86,16.76,2.51,24.58.21,2.61.46,5.26.7,7.83.49,5.32.99,10.83,1.27,16.24.02.44.05.89.08,1.34Z"/>
        <path class="uuid-dad503de-03a2-4468-8167-23deb3cc64ba" d="m381.07,120.62c.14.55.1,1.14.04,1.7l-.48-.05s0-.07-.02-.11c-.06-.17-.24-.26-.41-.2-.35.12-.69.27-1.03.42.27-1.08.48-2.28.6-3.07.1,0,.19.02.28.05.03,0,.06.02.09.03.44.19.78.65.93,1.23Z"/>
        <path class="uuid-dad503de-03a2-4468-8167-23deb3cc64ba" d="m381.1,122.31s0,.05,0,.07c-.15,1.44-.49,3.21-1.78,4.12-.25.17-.62.37-1.02.34-.22-.02-.43-.13-.56-.28.47-1.2.87-2.32,1.18-3.36.48-.25.97-.46,1.48-.64.13-.04.22-.17.22-.3l.48.05Z"/>
        <path class="uuid-af99ca66-0c2b-4a5f-8faa-338630a2716c" d="m378.5,110.81c1.15,1.85,2.4,4.71,1.85,7.76l-.05.18s-.03,0-.05-.02c-.26-.08-.54-.1-.82-.06,0,0,0,0,0,0-.03,0-.06.02-.09.03,0,0-.02,0-.03.02-.02.01-.04.03-.06.06-.01,0-.02.02-.03.03,0,.02-.02.04-.03.06,0,.02-.02.04-.02.06,0,0,0,0,0,.01-.13.9-.41,2.6-.8,3.9-.54,1.79-1.3,3.81-2.33,6.14-.03-.14-.02-.46.2-1.14.06-.19.14-.4.21-.62.4-1.17.9-2.64,1.02-3.77.16-1.58.03-2.9-.4-4.03-.02-.06-.07-.12-.12-.16-1.71-1.12-3.28-2.88-4.93-5.54-.08-.14-.25-.19-.4-.13s-.23.22-.19.37c.49,2.1,1.21,3.67,2.3,4.94-2.6-.49-4.96-2.1-6.97-3.66-1.35-1.05-2.84-2.34-3.68-3.93-.07-.14-.23-.2-.38-.16-.15.04-.25.18-.24.33l.02.33c.05.75.1,1.52.28,2.27-.75-.85-1.34-1.88-1.72-2.98-.04-.13-.16-.21-.28-.22-.14,0-.26.06-.31.18-.81,1.7-2.37,3.06-3.79,4.17-2,1.56-4.36,3.18-6.97,3.66,1.09-1.27,1.81-2.83,2.3-4.94.04-.16-.05-.31-.19-.37-.15-.06-.32,0-.4.13-1.65,2.66-3.21,4.42-4.92,5.54-.06.04-.1.09-.13.16-.43,1.13-.56,2.44-.4,4.03.05.52.12,1.05.19,1.55.11.76.22,1.55.26,2.33v.12c.02.28.05.86-.08,1.11-1.25-2.1-1.54-4.65-1.82-7.12-.08-.7-.16-1.41-.26-2.11,0,0,0,0,0-.02,0-.02-.01-.04-.02-.06,0-.03-.02-.05-.04-.07,0,0,0,0,0,0,0,0,0,0-.02-.02-.02-.02-.03-.03-.05-.05-.26-.27-.63-.42-1.01-.45v-.06c-.56-3.07.69-5.93,1.83-7.79,3.19-5.17,7.56-8.71,12.3-9.97,4.55-1.21,9.26-.41,13.39,2.04.02.02.05.03.07.05,3,1.8,5.7,4.47,7.81,7.89Z"/>
        <path class="uuid-dad503de-03a2-4468-8167-23deb3cc64ba" d="m376.49,119.76c.36,1.01.47,2.2.32,3.63-.11,1.06-.59,2.48-.98,3.63-.08.22-.15.43-.21.63-.3.9-.33,1.48-.08,1.83.03.04.07.08.12.12-4.26,10.99-10.42,14.91-14.44,14.91-6.11,0-11.7-7.64-14.59-15.32.5-.34.46-1.24.43-1.77v-.11c-.04-.81-.16-1.61-.27-2.39-.07-.5-.14-1.02-.19-1.52-.15-1.43-.04-2.62.32-3.63,1.33-.89,2.56-2.13,3.81-3.85-.52,1.31-1.2,2.34-2.13,3.22-.1.09-.13.24-.07.37.06.13.19.2.32.19,3.13-.26,5.9-2.13,8.2-3.92,1.3-1.02,2.72-2.24,3.63-3.76.6,1.4,1.53,2.66,2.68,3.57.12.1.29.09.41,0,.12-.1.15-.27.07-.4-.42-.75-.57-1.57-.65-2.43.89,1.19,2.06,2.18,3.15,3.03,2.3,1.79,5.08,3.66,8.2,3.92.14,0,.27-.06.32-.19.06-.12.03-.27-.07-.37-.92-.88-1.61-1.91-2.13-3.22,1.25,1.72,2.49,2.96,3.81,3.85Zm-6.63.74c.13-.13.13-.33,0-.46-1-1-2.33-1.64-3.74-1.8-.18-.02-.34.11-.36.28s.11.34.28.36c1.26.14,2.45.72,3.35,1.62.06.06.15.09.23.09s.17-.03.23-.09Zm-1.39,3.1c0-1.2-.47-2.17-1.04-2.17s-1.04.97-1.04,2.17.47,2.16,1.04,2.16,1.04-.97,1.04-2.16Zm-4.18,13.55c.13-.12.14-.33.02-.46-.12-.13-.32-.14-.46-.02-1.29,1.17-3.52,1.23-4.86.11-.14-.11-.34-.09-.46.04-.12.14-.1.34.04.46.77.64,1.77.96,2.77.96,1.07,0,2.14-.37,2.94-1.09Zm-1.91-7.68c.15-.04.25-.18.23-.34l-.37-4.14c-.02-.17-.17-.31-.35-.29-.18.02-.31.17-.29.35l.35,3.86-1.24.34c-.17.05-.27.23-.23.4.04.14.17.24.31.24.03,0,.06,0,.08,0l1.5-.41Zm-4.37-10.57c.18-.02.3-.18.28-.36s-.18-.31-.36-.28c-1.41.16-2.73.8-3.74,1.8-.13.13-.13.33,0,.46.06.06.15.09.23.09s.17-.03.23-.09c.9-.9,2.09-1.47,3.35-1.62Zm-.33,4.71c0-1.2-.47-2.17-1.04-2.17s-1.04.97-1.04,2.17.47,2.16,1.04,2.16,1.04-.97,1.04-2.16Z"/>
        <path class="uuid-af99ca66-0c2b-4a5f-8faa-338630a2716c" d="m375.09,149.64l-.75,12.85c-.06.06-.1.14-.1.23,0,.08.03.15.07.2l-.09,1.57h-2.2l.1-1.75s0-.02,0-.03c0,0,0,0,0-.02l.78-13.43c.76.13,1.51.25,2.18.37Z"/>
        <path class="uuid-af99ca66-0c2b-4a5f-8faa-338630a2716c" d="m372.59,96.65c.29,1.72.03,3.29-.75,4.45-.27.4-.63.78-1.06,1.13-4.24-2.46-9.06-3.25-13.73-2.01-1.62.43-3.18,1.12-4.69,2.03-.09-.1-.18-.2-.27-.3-1.5-1.85-1.82-4.63-.82-7.08.9-2.18,2.77-4.05,5.25-5.24,3.15-1.51,6.84-1.68,9.87-.44,3.2,1.31,5.63,4.24,6.19,7.46Z"/>
        <path class="uuid-9789c8eb-94e7-4eea-991c-bc27f0794e35" d="m372.27,149.17l-.77,13.23h-19.64l-.82-13.33c1.96-.34,3.82-.66,4.76-.85v.35c0,.06.02.12.05.17.08.13,1.91,3.01,5.4,3.01h.12c3.4-.06,5.2-2.89,5.27-3.01.03-.05.05-.11.05-.17v-.35c1,.19,3.06.54,5.24.9.11.02.22.04.33.06Z"/>
        <path class="uuid-af99ca66-0c2b-4a5f-8faa-338630a2716c" d="m369.86,120.04c.13.13.13.33,0,.46-.06.06-.15.09-.23.09s-.17-.03-.23-.09c-.9-.9-2.09-1.47-3.35-1.62-.18-.02-.3-.18-.28-.36s.17-.31.36-.28c1.41.16,2.73.8,3.74,1.8Z"/>
        <path class="uuid-af99ca66-0c2b-4a5f-8faa-338630a2716c" d="m367.43,121.43c.57,0,1.04.97,1.04,2.17s-.47,2.16-1.04,2.16-1.04-.97-1.04-2.16.47-2.17,1.04-2.17Z"/>
        <path class="uuid-dad503de-03a2-4468-8167-23deb3cc64ba" d="m366.05,143.74v4.72c-.3.44-1.89,2.57-4.69,2.63h-.1c-2.84,0-4.5-2.2-4.8-2.63v-4.7c1.58.92,3.18,1.39,4.77,1.39,1.69,0,3.31-.52,4.83-1.41Z"/>
        <path class="uuid-af99ca66-0c2b-4a5f-8faa-338630a2716c" d="m364.31,136.69c.12.13.11.34-.02.46-.8.73-1.87,1.09-2.94,1.09-1,0-2-.32-2.77-.96-.14-.12-.16-.32-.04-.46.11-.14.32-.16.46-.04,1.34,1.12,3.57,1.07,4.86-.11.13-.12.34-.11.46.02Z"/>
        <path class="uuid-af99ca66-0c2b-4a5f-8faa-338630a2716c" d="m362.61,129.12c.02.16-.08.3-.23.34l-1.5.41s-.06,0-.08,0c-.14,0-.27-.09-.31-.24-.05-.17.06-.35.23-.4l1.24-.34-.35-3.86c-.02-.18.11-.33.29-.35.18-.02.34.12.35.29l.37,4.14Z"/>
        <path class="uuid-af99ca66-0c2b-4a5f-8faa-338630a2716c" d="m358.3,118.53c.02.18-.11.34-.28.36-1.26.14-2.45.72-3.35,1.62-.06.06-.15.09-.23.09s-.17-.03-.23-.09c-.13-.13-.13-.33,0-.46,1-1,2.33-1.64,3.74-1.8.18-.02.34.11.36.28Z"/>
        <path class="uuid-af99ca66-0c2b-4a5f-8faa-338630a2716c" d="m356.64,121.43c.58,0,1.04.97,1.04,2.17s-.47,2.16-1.04,2.16-1.04-.97-1.04-2.16.47-2.17,1.04-2.17Z"/>
        <path class="uuid-af99ca66-0c2b-4a5f-8faa-338630a2716c" d="m350.4,149.17l.94,15.32h-2.2l-.92-14.94c.53-.09,1.1-.19,1.68-.29.17-.03.34-.06.51-.09Z"/>
        <path class="uuid-9789c8eb-94e7-4eea-991c-bc27f0794e35" d="m347.57,149.66l.79,12.74h-2.3s-.04,0-.06,0c-.14.02-.25.13-.27.27l-.02.12c-.61,3.8-1.01,6.33-1.17,7.52-.52,3.9-1,8.08-1.46,12.76-.07.67-.13,1.35-.2,2.05l-.8-11.26c.07-.06.12-.15.12-.25l-.25-10.4c0-.18-.15-.31-.33-.31-.18,0-.32.15-.31.33l.24,10.1c-2.61.36-5.94.41-9.44.13.79-7.91,2.42-19.76,3.82-20.88,1.16-.93,4.18-1.59,10.49-2.71.35-.06.73-.13,1.15-.2Z"/>
        <path class="uuid-dad503de-03a2-4468-8167-23deb3cc64ba" d="m344.79,126.7c-.12.09-.28.14-.42.16-.39.03-.77-.17-1.02-.34-1.28-.91-1.62-2.68-1.78-4.12l.73-.07c.02.11.1.21.21.25.53.18,1.05.41,1.55.67.16,1.17.37,2.34.73,3.45Z"/>
        <path class="uuid-dad503de-03a2-4468-8167-23deb3cc64ba" d="m343.86,121.52c.04.31.07.63.11.95-.4-.19-.82-.37-1.24-.51-.17-.06-.35.03-.41.2-.02.05-.02.11-.01.16l-.73.07c-.06-.58-.11-1.2.03-1.77.14-.58.49-1.04.93-1.23.36-.16.81-.08,1.08.15.09.65.17,1.33.24,1.98Z"/>
      </g>
      <g>
        <path class="uuid-af99ca66-0c2b-4a5f-8faa-338630a2716c" d="m389.89,173.82c.5,4.79.27,11,.12,15.12-.12,3.21-2.31,5.42-6,6.06-1.06.18-2.13.25-3.2.25-2.01,0-3.99-.26-5.77-.54-1.93-.31-3.7-.58-5.37-.84-4.03-.63-7.47-1.16-11.11-1.83-2.65.27-5.46.88-8.18,1.47-3.64.79-7.11,1.54-10.21,1.54-.6,0-1.19-.03-1.76-.09-3.08-.33-5.5-2.92-5.61-6.02-.15-4.11-.38-10.33.12-15.12.02-.17.17-.29.33-.29l2.36.09h1.77l1.81-.07,1.8-.11.36-.09c.1-.02.19,0,.27.06.08.06.13.15.13.25l.37,9.6c.07-.04.14-.07.22-.11.55-.25,1.16-.31,1.74-.34.37-.02.74-.03,1.1-.02.73,0,2.06.51,3.35.99.73.28,1.42.53,1.82.63l4.63.25c3.87-.92,7.83-1.62,11.65-2.3,3.68-.65,7.48-1.33,11.2-2.2,1.37-.25,2.65-.38,3.76-.4v-6.02c0-.09.04-.18.11-.24.07-.06.16-.09.25-.08l1.4.13h6.25c.17,0,.3.12.32.29Zm-.53,15.09c.15-4.01.37-10.03-.08-14.74h-5.98l-1.08-.09v5.66c1.18.03,2.13.2,2.71.51.35.19.61.38.83.6.41.41.67.96.73,1.55.07.67-.07,1.36-.38,1.84-.03.05-.08.08-.13.11,0,.07.02.14.03.21.03.21.05.42.08.63l.04.2c.06.35.13.72.07,1.1-.09.51-.5,1.05-1.09,1.06h0s-.03,0-.05,0c-.02.2-.06.4-.13.61-.25.73-.89,1.24-1.56,1.26-.04.16-.09.32-.17.48-.2.36-.54.6-.9.62-.03,0-.05,0-.07,0-.21,0-.43-.07-.65-.2-.56-.34-.95-.97-1.15-1.86-.06-.27-.08-.59-.11-.92-.02-.29-.05-.61-.1-.88l-29.93-1.6s-.02,0-.03,0c0,0-.02,0-.03,0-.44-.1-1.13-.36-1.93-.66-1.12-.42-2.51-.94-3.13-.95-.35,0-.7,0-1.06.02-.59.03-1.07.09-1.5.29-.47.21-.8.57-.88.97-.02.09-.08.17-.16.22-.52.28-.89,1.02-.75,1.5.02.06.02.13,0,.19-.1.31-.14.68-.09.98.48.1.92.25,1.35.4.26.09.52.18.8.26.12.04.24.07.36.11.12.04.24.07.35.11,1.52.44,3.1.69,4.68.74.01,0,.02,0,.03,0,0,0,.02,0,.03,0,8.55,2,13.96,2.84,21.46,4,1.67.26,3.44.53,5.37.84,2.68.42,5.83.79,8.76.29,3.37-.58,5.36-2.56,5.46-5.45Zm-3.58-5.58c.06-.27.09-.57.06-.86-.04-.43-.24-.85-.55-1.16-.17-.17-.39-.33-.68-.49-.38-.21-1.1-.38-2.13-.43.78.29,1.35.58,1.84.94.64.47,1.12,1.06,1.37,1.7.04.1.07.2.1.29Zm-.23,3.05c.05-.27,0-.56-.06-.87l-.04-.21c-.04-.22-.06-.44-.09-.66-.06-.49-.11-.95-.28-1.37-.2-.52-.6-1.01-1.15-1.41-.45-.32-.98-.59-1.72-.87-.17-.06-.25-.25-.19-.42.03-.09.1-.15.18-.18-1.1-.03-2.51.08-4.27.39-3.72.86-7.53,1.54-11.21,2.2-3.08.55-6.25,1.11-9.38,1.79l22.68,1.21c0-.11.06-.22.17-.28.16-.08.36-.02.43.14.22.44.27,1.04.31,1.62.03.31.05.61.1.83.11.49.34,1.14.85,1.45.09.06.21.12.34.11.14-.01.29-.13.39-.29.11-.19.15-.43.17-.66.11-1.11-.06-2.24-.49-3.27-.17-.4-.35-.71-.56-.96-.43-.52-1.1-.85-1.77-.89-.18,0-.32-.16-.3-.34,0-.18.17-.31.34-.3.85.05,1.68.47,2.23,1.12.25.3.46.66.66,1.12.45,1.06.63,2.22.56,3.37.4-.06.73-.44.86-.82.17-.49.12-1.05.04-1.59-.09-.58-.21-1.15-.37-1.72-.14-.48-.31-.96-.63-1.3-.24-.25-.56-.42-.88-.58-.36-.18-.73-.35-1.09-.51-.17-.07-.24-.26-.17-.42s.26-.24.42-.17c.38.16.75.34,1.12.52.37.18.75.39,1.06.71.42.44.63,1.02.79,1.58.17.59.3,1.19.39,1.79.03.2.06.4.07.6.05,0,.09.01.14.04.18-.06.33-.29.36-.51Zm-29.05,5.28c-2.52-.49-5.21-1.06-8.31-1.79-1.63-.05-3.25-.31-4.81-.77-.12-.03-.24-.07-.36-.11s-.24-.07-.36-.11c-.29-.08-.56-.18-.83-.28-.49-.17-.94-.33-1.45-.41-.13-.02-.23-.11-.26-.23-.12-.42-.11-.97.03-1.46-.17-.78.34-1.67.96-2.08.07-.24.2-.46.37-.66,0-.02,0-.03,0-.05l-.38-9.65s-.04,0-.06,0l-1.84.11-1.83.07h-1.79l-2.07-.08c-.45,4.7-.23,10.72-.08,14.72.1,2.78,2.27,5.1,5.03,5.4,3.41.37,7.47-.51,11.77-1.44,2.06-.45,4.18-.91,6.26-1.22Z"/>
        <path class="uuid-dad503de-03a2-4468-8167-23deb3cc64ba" d="m389.28,174.17c.46,4.71.23,10.73.08,14.74-.11,2.88-2.1,4.87-5.46,5.45-2.94.5-6.08.14-8.76-.29-1.93-.31-3.7-.58-5.37-.84-7.49-1.16-12.9-2-21.46-4,0,0-.02,0-.03,0,0,0-.02,0-.03,0-1.59-.05-3.16-.3-4.68-.74-.12-.04-.24-.07-.35-.11-.12-.04-.24-.07-.36-.11-.27-.08-.54-.17-.8-.26-.43-.15-.86-.3-1.35-.4-.04-.3,0-.67.09-.98.02-.06.02-.13,0-.19-.14-.48.23-1.22.75-1.5.08-.05.14-.13.16-.22.08-.39.41-.76.88-.97.43-.19.91-.26,1.5-.29.36-.02.71-.03,1.06-.02.62,0,2.01.53,3.13.95.8.3,1.49.56,1.93.66,0,0,.02,0,.03,0,0,0,.02,0,.03,0l29.93,1.6c.05.28.07.59.1.88.03.34.05.66.11.92.2.89.59,1.52,1.15,1.86.22.13.44.2.65.2.02,0,.05,0,.07,0,.36-.03.7-.26.9-.62.08-.16.14-.32.17-.48.67-.02,1.31-.53,1.56-1.26.07-.2.11-.4.13-.61.02,0,.04,0,.05,0h0c.59,0,1-.55,1.09-1.06.06-.38,0-.74-.07-1.1l-.04-.2c-.03-.21-.06-.42-.08-.63,0-.07-.02-.14-.03-.21.05-.03.1-.06.13-.11.31-.48.45-1.16.38-1.84-.06-.58-.32-1.13-.73-1.55-.22-.22-.48-.41-.83-.6-.58-.31-1.53-.49-2.71-.51v-5.66l1.08.09h5.98Z"/>
        <path class="uuid-dad503de-03a2-4468-8167-23deb3cc64ba" d="m385.84,182.46c.03.29,0,.59-.06.86-.03-.1-.06-.2-.1-.29-.25-.64-.72-1.22-1.37-1.7-.49-.36-1.06-.65-1.84-.94,1.04.05,1.75.22,2.13.43.29.16.51.31.68.49.3.3.5.73.55,1.16Z"/>
        <path class="uuid-dad503de-03a2-4468-8167-23deb3cc64ba" d="m385.49,185.5c.06.31.11.6.06.87-.04.21-.18.44-.36.51-.05-.02-.09-.03-.14-.04-.02-.2-.04-.4-.07-.6-.09-.6-.23-1.2-.39-1.79-.16-.56-.36-1.14-.79-1.58-.31-.32-.69-.52-1.06-.71-.37-.18-.74-.36-1.12-.52-.16-.07-.35,0-.42.17s0,.36.17.42c.37.16.73.33,1.09.51.31.16.64.33.88.58.32.34.5.83.63,1.3.16.56.28,1.14.37,1.72.08.53.14,1.09-.04,1.59-.13.38-.46.75-.86.82.08-1.15-.11-2.31-.56-3.37-.19-.47-.4-.82-.66-1.12-.55-.65-1.38-1.07-2.23-1.12-.17,0-.33.12-.34.3-.01.18.13.33.3.34.67.04,1.34.37,1.77.89.21.25.39.55.56.96.43,1.03.61,2.16.49,3.27-.02.23-.06.47-.17.66-.09.17-.24.28-.39.29-.13,0-.25-.05-.34-.11-.5-.31-.74-.95-.85-1.45-.05-.22-.07-.51-.1-.83-.04-.58-.09-1.18-.31-1.62-.08-.16-.27-.22-.43-.14-.11.05-.17.16-.17.28l-22.68-1.21c3.14-.68,6.3-1.24,9.38-1.79,3.68-.66,7.49-1.34,11.21-2.2,1.75-.32,3.17-.42,4.27-.39-.08.04-.15.1-.18.18-.06.17.02.36.19.42.74.28,1.28.54,1.72.87.54.4.94.89,1.15,1.41.17.42.22.88.28,1.37.03.22.05.44.09.66l.04.21Z"/>
        <path class="uuid-dad503de-03a2-4468-8167-23deb3cc64ba" d="m348.19,189.86c3.1.73,5.78,1.29,8.31,1.79-2.07.32-4.19.77-6.26,1.22-4.3.93-8.36,1.81-11.77,1.44-2.76-.3-4.93-2.62-5.03-5.4-.15-4.01-.37-10.02.08-14.72l2.07.08h1.79l1.83-.07,1.84-.11s.04,0,.06,0l.38,9.65s0,.03,0,.05c-.17.2-.3.42-.37.66-.62.41-1.13,1.29-.96,2.08-.14.49-.15,1.04-.03,1.46.03.12.14.21.26.23.51.08.97.24,1.45.41.27.09.54.19.83.28.12.04.24.07.36.11s.24.07.36.11c1.56.46,3.18.72,4.81.77Z"/>
      </g>
      <polygon class="uuid-9789c8eb-94e7-4eea-991c-bc27f0794e35" points="374.46 204.03 376.83 221.51 346.61 221.51 349.34 204.03 374.46 204.03"/>
      <rect class="uuid-af99ca66-0c2b-4a5f-8faa-338630a2716c" x="348.36" y="205.26" width="26.73" height=".32"/>
    </g>
    <line class="uuid-5cbc23ad-6c88-4b90-a5be-b6c2e02e55ad" x1="53.67" y1="294.98" x2="57.29" y2="294.98"/>
    <line class="uuid-5cbc23ad-6c88-4b90-a5be-b6c2e02e55ad" x1="70.55" y1="310.96" x2="82.32" y2="310.96"/>
    <line class="uuid-5cbc23ad-6c88-4b90-a5be-b6c2e02e55ad" x1="187.85" y1="310.96" x2="193.28" y2="310.96"/>
    <line class="uuid-5cbc23ad-6c88-4b90-a5be-b6c2e02e55ad" x1="145.34" y1="329.05" x2="152.88" y2="329.05"/>
    <line class="uuid-5cbc23ad-6c88-4b90-a5be-b6c2e02e55ad" x1="289.47" y1="326.94" x2="298.9" y2="326.94"/>
    <line class="uuid-5cbc23ad-6c88-4b90-a5be-b6c2e02e55ad" x1="389.58" y1="312.47" x2="399.17" y2="312.47"/>
    <line class="uuid-5cbc23ad-6c88-4b90-a5be-b6c2e02e55ad" x1="369.68" y1="342.62" x2="376.32" y2="342.62"/>
    <line class="uuid-5cbc23ad-6c88-4b90-a5be-b6c2e02e55ad" x1="412.8" y1="296.49" x2="425.56" y2="296.49"/>
    <line class="uuid-5cbc23ad-6c88-4b90-a5be-b6c2e02e55ad" x1="142.32" y1="308.55" x2="147.14" y2="308.55"/>
    <line class="uuid-5cbc23ad-6c88-4b90-a5be-b6c2e02e55ad" x1="59.7" y1="332.67" x2="67.54" y2="332.67"/>
  </g>
</svg>